<?xml version="1.0" standalone="no"?>
<!DOCTYPE svg PUBLIC "-//W3C//DTD SVG 1.1//EN" "http://www.w3.org/Graphics/SVG/1.1/DTD/svg11.dtd" >
<svg>
<metadata>
Created by FontForge 20120731 at Fri Dec 13 06:49:17 2013
 By root
Copyright (c) Mark Simonson, 2005. All rights reserved.
</metadata>
<defs>
<font id="ProximaNova-Regular" horiz-adv-x="572" >
  <font-face 
    font-family="ProximaNova-Regular"
    font-weight="400"
    font-stretch="normal"
    units-per-em="1000"
    panose-1="2 0 5 6 3 0 0 2 0 4"
    ascent="775"
    descent="-225"
    x-height="483"
    cap-height="667"
    bbox="-172 -272 1082 907"
    underline-thickness="20"
    underline-position="-113"
    unicode-range="U+000D-FB04"
  />
<missing-glyph horiz-adv-x="507" 
d="M78 -90v842h351v-842h-351zM397 722h-288v-782h288v782z" />
    <glyph glyph-name="f_b" unicode="fb" horiz-adv-x="858" 
d="M96 0v417h-80v66h80v37q0 75 38.5 116t101.5 41q21 0 40 -4t33 -13l-19 -57q-8 5 -18.5 8.5t-24.5 3.5q-37 0 -56.5 -24.5t-19.5 -70.5v-37h98v-66h-98v-417h-75zM433 131q20 -32 59.5 -54t84.5 -22q37 0 66 14t49 39t30.5 59t10.5 74t-10.5 74.5t-30.5 59.5t-49 39
t-66 14q-45 0 -84.5 -23t-59.5 -55v-219zM358 0v667h75v-257q29 40 71 62.5t92 22.5q47 0 86.5 -18t68 -51t44.5 -80t16 -105q0 -59 -16 -106t-44.5 -79.5t-68 -50t-86.5 -17.5q-51 0 -93.5 23.5t-69.5 60.5v-72h-75z" />
    <glyph glyph-name="f_f" unicode="ff" horiz-adv-x="567" 
d="M96 0v417h-80v66h80v37q0 75 37.5 116t102.5 41q29 0 54 -8t48 -29l-31 -49q-12 11 -26.5 17.5t-33.5 6.5q-37 0 -56.5 -24.5t-19.5 -70.5v-37h98v-66h-98v-417h-75zM379 0v417h-80v66h80v37q0 75 37.5 116t102.5 41q29 0 54 -8t48 -29l-31 -49q-12 11 -26.5 17.5
t-33.5 6.5q-37 0 -56.5 -24.5t-19.5 -70.5v-37h98v-66h-98v-417h-75z" />
    <glyph glyph-name="f_h" unicode="fh" horiz-adv-x="835" 
d="M96 0v417h-80v66h80v37q0 75 38.5 116t101.5 41q21 0 40 -4t33 -13l-19 -57q-8 5 -18.5 8.5t-24.5 3.5q-37 0 -56.5 -24.5t-19.5 -70.5v-37h98v-66h-98v-417h-75zM685 0v318q0 32 -8 53t-22 34t-34.5 18t-44.5 5q-22 0 -43 -6t-39.5 -16.5t-34 -24t-26.5 -28.5v-353h-75
v667h75v-254q13 15 31 29.5t40.5 26.5t48.5 19t53 7q76 0 115 -37.5t39 -116.5v-341h-75z" />
    <glyph glyph-name="fi" unicode="fi" horiz-adv-x="509" 
d="M96 0v417h-80v66h80v37q0 75 38.5 116t101.5 41q21 0 40 -4t33 -13l-19 -57q-8 5 -18.5 8.5t-24.5 3.5q-37 0 -56.5 -24.5t-19.5 -70.5v-37h98v-66h-98v-417h-75zM395 552q-20 0 -35 14.5t-15 35.5t15 36t35 15q21 0 36 -15t15 -36t-15 -35.5t-36 -14.5zM358 0v483h75
v-483h-75z" />
    <glyph glyph-name="f_j" unicode="fj" horiz-adv-x="509" 
d="M96 0v417h-80v66h80v37q0 75 38.5 116t101.5 41q21 0 40 -4t33 -13l-19 -57q-8 5 -18.5 8.5t-24.5 3.5q-37 0 -56.5 -24.5t-19.5 -70.5v-37h98v-66h-98v-417h-75zM395 552q-20 0 -35 14.5t-15 35.5t15 36t35 15q21 0 36 -15t15 -36t-15 -35.5t-36 -14.5zM290 -196
q-37 0 -60 9t-46 27l27 57q13 -13 29.5 -22t39.5 -9q34 0 56 20.5t22 66.5v530h75v-530q0 -72 -37 -110.5t-106 -38.5z" />
    <glyph glyph-name="f_k" unicode="fk" horiz-adv-x="798" 
d="M96 0v417h-80v66h80v37q0 75 38.5 116t101.5 41q21 0 40 -4t33 -13l-19 -57q-8 5 -18.5 8.5t-24.5 3.5q-37 0 -56.5 -24.5t-19.5 -70.5v-37h98v-66h-98v-417h-75zM687 0l-174 217l-80 -79v-138h-75v667h75v-441l254 257h95l-214 -219l215 -264h-96z" />
    <glyph glyph-name="fl" unicode="fl" horiz-adv-x="509" 
d="M96 0v417h-80v66h80v37q0 75 38.5 116t101.5 41q21 0 40 -4t33 -13l-19 -57q-8 5 -18.5 8.5t-24.5 3.5q-37 0 -56.5 -24.5t-19.5 -70.5v-37h98v-66h-98v-417h-75zM358 0v667h75v-667h-75z" />
    <glyph glyph-name="f_f_i" unicode="ffi" horiz-adv-x="792" 
d="M379 0v417h-80v66h80v37q0 75 38.5 116t101.5 41q21 0 40 -4t33 -13l-19 -57q-8 5 -18.5 8.5t-24.5 3.5q-37 0 -56.5 -24.5t-19.5 -70.5v-37h98v-66h-98v-417h-75zM679 552q-20 0 -35 14.5t-15 35.5t15 36t35 15q21 0 36 -15t15 -36t-15 -35.5t-36 -14.5zM642 0v483h75
v-483h-75zM96 0v417h-80v66h80v37q0 75 37.5 116t102.5 41q29 0 54 -8t48 -29l-31 -49q-12 11 -26.5 17.5t-33.5 6.5q-37 0 -56.5 -24.5t-19.5 -70.5v-37h98v-66h-98v-417h-75z" />
    <glyph glyph-name="f_f_j" unicode="ffj" horiz-adv-x="792" 
d="M379 0v417h-80v66h80v37q0 75 38.5 116t101.5 41q21 0 40 -4t33 -13l-19 -57q-8 5 -18.5 8.5t-24.5 3.5q-37 0 -56.5 -24.5t-19.5 -70.5v-37h98v-66h-98v-417h-75zM679 552q-20 0 -35 14.5t-15 35.5t15 36t35 15q21 0 36 -15t15 -36t-15 -35.5t-36 -14.5zM574 -196
q-37 0 -60 9t-46 27l27 57q13 -13 29.5 -22t39.5 -9q34 0 56 20.5t22 66.5v530h75v-530q0 -72 -37 -110.5t-106 -38.5zM96 0v417h-80v66h80v37q0 75 37.5 116t102.5 41q29 0 54 -8t48 -29l-31 -49q-12 11 -26.5 17.5t-33.5 6.5q-37 0 -56.5 -24.5t-19.5 -70.5v-37h98v-66
h-98v-417h-75z" />
    <glyph glyph-name="f_f_l" unicode="ffl" horiz-adv-x="792" 
d="M379 0v417h-80v66h80v37q0 75 38.5 116t101.5 41q21 0 40 -4t33 -13l-19 -57q-8 5 -18.5 8.5t-24.5 3.5q-37 0 -56.5 -24.5t-19.5 -70.5v-37h98v-66h-98v-417h-75zM642 0v667h75v-667h-75zM96 0v417h-80v66h80v37q0 75 37.5 116t102.5 41q29 0 54 -8t48 -29l-31 -49
q-12 11 -26.5 17.5t-33.5 6.5q-37 0 -56.5 -24.5t-19.5 -70.5v-37h98v-66h-98v-417h-75z" />
    <glyph glyph-name=".notdef" horiz-adv-x="507" 
d="M78 -90v842h351v-842h-351zM397 722h-288v-782h288v782z" />
    <glyph glyph-name=".null" horiz-adv-x="0" 
 />
    <glyph glyph-name=".null" horiz-adv-x="0" 
 />
    <glyph glyph-name="nonmarkingreturn" unicode="&#xd;" horiz-adv-x="0" 
 />
    <glyph glyph-name="space" unicode=" " horiz-adv-x="258" 
 />
    <glyph glyph-name="nonbreakingspace" unicode="&#xa0;" horiz-adv-x="258" 
 />
    <glyph glyph-name="thinspace" unicode="&#x2009;" horiz-adv-x="51" 
 />
    <glyph glyph-name="zero" unicode="0" horiz-adv-x="612" 
d="M306 -12q-69 0 -117 31t-79 80.5t-45 111t-14 122.5t14 122.5t45 110.5t79 80t117 31q68 0 116.5 -31t79 -80t45 -110.5t14.5 -122.5t-14.5 -122.5t-45 -111t-79 -80.5t-116.5 -31zM306 62q48 0 80.5 23.5t52.5 62t28.5 87t8.5 98.5t-8.5 98.5t-28.5 86.5t-52.5 61.5
t-80.5 23.5t-80.5 -23.5t-52.5 -61.5t-28.5 -86.5t-8.5 -98.5t8.5 -98.5t28.5 -87t52.5 -62t80.5 -23.5z" />
    <glyph glyph-name="zero.pzero" horiz-adv-x="612" 
d="M306 -12q-47 0 -83.5 14.5t-65.5 40.5l-27 -43h-65l54 86q-36 51 -52 116t-16 131q0 61 14 122.5t45 110.5t79 80t117 31q46 0 82 -14.5t65 -39.5l28 44h65l-54 -87q36 -51 52.5 -116t16.5 -131q0 -61 -14.5 -122.5t-45 -111t-79 -80.5t-116.5 -31zM306 62
q48 0 80.5 23.5t52.5 62t28.5 87t8.5 98.5q0 46 -7 90t-24 81l-246 -394q20 -23 46 -35.5t61 -12.5zM136 333q0 -46 7 -90t23 -81l246 394q-20 22 -46 34.5t-60 12.5q-48 0 -80.5 -23.5t-52.5 -61.5t-28.5 -86.5t-8.5 -98.5z" />
    <glyph glyph-name="one" unicode="1" horiz-adv-x="339" 
d="M178 0v557l-107 -113l-50 51l167 172h73v-667h-83z" />
    <glyph glyph-name="two" unicode="2" horiz-adv-x="588" 
d="M54 0v66q90 71 159 128.5t116 107t71 93t24 86.5q0 32 -12 55t-31.5 38t-44.5 22t-51 7q-60 0 -106 -23t-75 -61l-51 53q38 51 99.5 78t132.5 27q42 0 82 -12t71.5 -36t51 -61t19.5 -87q0 -51 -24.5 -100.5t-68 -99t-102.5 -101t-129 -106.5h327v-74h-458z" />
    <glyph glyph-name="three" unicode="3" horiz-adv-x="557" 
d="M266 -12q-85 0 -145.5 32.5t-91.5 77.5l49 52q29 -39 77.5 -63.5t108.5 -24.5q73 0 114.5 33.5t41.5 91.5q0 31 -12 53.5t-34 36.5t-52.5 21t-67.5 7h-41t-28 -1v76q8 -1 28.5 -1h40.5q31 0 59.5 6.5t49.5 20t33.5 34t12.5 49.5q0 28 -12 49t-32 35.5t-47.5 22t-57.5 7.5
q-55 0 -97 -20.5t-79 -60.5l-46 52q36 44 93 73.5t135 29.5q48 0 89.5 -12t71.5 -34.5t47.5 -56t17.5 -75.5q0 -36 -13.5 -63t-34.5 -46t-46.5 -30.5t-49.5 -15.5q23 -2 50 -13t50 -31t38.5 -50t15.5 -70q0 -42 -16 -77t-46.5 -60.5t-74.5 -40t-99 -14.5z" />
    <glyph glyph-name="four" unicode="4" horiz-adv-x="558" 
d="M349 0v169h-317v69l286 429h114v-425h94v-73h-94v-169h-83zM349 590l-234 -348h234v348z" />
    <glyph glyph-name="five" unicode="5" horiz-adv-x="590" 
d="M301 -12q-85 0 -141 28.5t-94 78.5l51 55q33 -42 77.5 -65t106.5 -23q34 0 62.5 11t48.5 30t31.5 45.5t11.5 56.5q0 33 -11.5 59.5t-31.5 45.5t-48 29t-62 10q-45 0 -82.5 -15t-71.5 -48l-61 21v360h408v-74h-325v-232q24 24 64.5 42t91.5 18q42 0 80 -14t67.5 -41
t47 -67t17.5 -91t-18 -92t-50 -69.5t-75.5 -43.5t-93.5 -15z" />
    <glyph glyph-name="six" unicode="6" horiz-adv-x="591" 
d="M308 -12q-70 0 -119 28.5t-79.5 76t-44.5 109.5t-14 130t16 130.5t49.5 110t84.5 76t121 28.5q65 0 109.5 -22.5t75.5 -57.5l-42 -62q-26 30 -58 49t-85 19q-48 0 -83.5 -22.5t-59 -59.5t-34.5 -84t-11 -96v-13t1 -13q11 17 29.5 35.5t43.5 33.5t54.5 25t61.5 10
q45 0 84.5 -13.5t69.5 -40t47 -66.5t17 -93q0 -44 -16 -83.5t-46 -69.5t-73.5 -47.5t-98.5 -17.5zM305 62q39 0 67.5 13t47.5 33.5t28.5 45.5t9.5 49q0 37 -12 64t-33 45t-49 26.5t-60 8.5q-50 0 -94.5 -27.5t-72.5 -72.5q3 -31 13.5 -64t30 -60t50 -44t74.5 -17z" />
    <glyph glyph-name="seven" unicode="7" horiz-adv-x="515" 
d="M121 0l269 593h-359v74h455v-57l-273 -610h-92z" />
    <glyph glyph-name="eight" unicode="8" horiz-adv-x="581" 
d="M291 -12q-50 0 -93.5 12t-75.5 35.5t-51 57t-19 76.5q0 33 13 61t35 50.5t51 38.5t60 25q-29 8 -55.5 22t-47 33.5t-33 45.5t-12.5 59q0 45 20 77.5t52.5 54t73 31.5t82.5 10q41 0 82 -10t73.5 -31.5t53 -54t20.5 -77.5q0 -33 -12.5 -59t-33 -45.5t-47.5 -33.5t-56 -22
q31 -9 60 -25t51 -38.5t35 -50.5t13 -61q0 -42 -19 -76t-51.5 -57t-76 -35.5t-92.5 -12.5zM291 378q15 3 40 9.5t48 20t40 34.5t17 51q0 26 -11.5 46.5t-31 34.5t-46 21.5t-56.5 7.5t-56.5 -7.5t-46 -21.5t-31 -34.5t-11.5 -46.5q0 -30 17 -51t40.5 -34.5t48 -20t39.5 -9.5z
M291 62q31 0 59 8t49.5 23t34 36.5t12.5 48.5q0 33 -18.5 56.5t-43.5 39t-51.5 23.5t-41.5 10q-15 -2 -41.5 -10t-52 -23.5t-44 -39t-18.5 -56.5q0 -27 12.5 -48.5t34 -36.5t50 -23t59.5 -8z" />
    <glyph glyph-name="nine" unicode="9" horiz-adv-x="591" 
d="M269 -11q-64 0 -108.5 22t-76.5 58l42 62q26 -30 58.5 -49t84.5 -19q51 0 86.5 23t58 60t33 84t10.5 94v13.5t-1 13.5q-11 -17 -29.5 -35.5t-43.5 -33.5t-54 -25t-61 -10q-45 0 -85 13.5t-69.5 40t-47 66.5t-17.5 93q0 43 16 82.5t46 69.5t73.5 48t97.5 18
q70 0 119 -28.5t80 -76t45 -110t14 -130.5t-16 -130t-49.5 -109.5t-84.5 -76t-121 -28.5zM287 319q50 0 95 27t71 72q-3 31 -13 64t-29.5 60t-50.5 44.5t-74 17.5q-38 0 -67 -13t-48 -33.5t-28.5 -45.5t-9.5 -49q0 -37 12 -64t33 -45t49 -26.5t60 -8.5z" />
    <glyph glyph-name="zero.tnum" unicode="&#xf639;" horiz-adv-x="598" 
d="M300 -12q-69 0 -117 31t-79 80.5t-45 111t-14 122.5t14 122.5t45 110.5t79 80t117 31q68 0 116.5 -31t79 -80t45 -110.5t14.5 -122.5t-14.5 -122.5t-45 -111t-79 -80.5t-116.5 -31zM300 62q48 0 80.5 23.5t52.5 62t28.5 87t8.5 98.5t-8.5 98.5t-28.5 86.5t-52.5 61.5
t-80.5 23.5t-80.5 -23.5t-52.5 -61.5t-28.5 -86.5t-8.5 -98.5t8.5 -98.5t28.5 -87t52.5 -62t80.5 -23.5z" />
    <glyph glyph-name="zero.tzero" unicode="&#xf638;" horiz-adv-x="598" 
d="M300 -12q-47 0 -83.5 14.5t-65.5 40.5l-27 -43h-65l54 86q-36 51 -52 116t-16 131q0 61 14 122.5t45 110.5t79 80t117 31q46 0 82 -14.5t65 -39.5l28 44h65l-54 -87q36 -51 52.5 -116t16.5 -131q0 -61 -14.5 -122.5t-45 -111t-79 -80.5t-116.5 -31zM300 62
q48 0 80.5 23.5t52.5 62t28.5 87t8.5 98.5q0 46 -7 90t-24 81l-246 -394q20 -23 46 -35.5t61 -12.5zM130 333q0 -46 7 -90t23 -81l246 394q-20 22 -46 34.5t-60 12.5q-48 0 -80.5 -23.5t-52.5 -61.5t-28.5 -86.5t-8.5 -98.5z" />
    <glyph glyph-name="one.tnum" unicode="&#xf6dc;" horiz-adv-x="598" 
d="M312 0v557l-107 -113l-50 51l167 172h73v-667h-83z" />
    <glyph glyph-name="two.tnum" unicode="&#xf63a;" horiz-adv-x="598" 
d="M69 0v66q90 71 159 128.5t116 107t71 93t24 86.5q0 32 -12 55t-31.5 38t-44.5 22t-51 7q-60 0 -106 -23t-75 -61l-51 53q38 51 99.5 78t132.5 27q42 0 82 -12t71.5 -36t51 -61t19.5 -87q0 -51 -24.5 -100.5t-68 -99t-102.5 -101t-129 -106.5h327v-74h-458z" />
    <glyph glyph-name="three.tnum" unicode="&#xf63b;" horiz-adv-x="598" 
d="M298 -12q-85 0 -145.5 32.5t-91.5 77.5l49 52q29 -39 77.5 -63.5t108.5 -24.5q73 0 114.5 33.5t41.5 91.5q0 31 -12 53.5t-34 36.5t-52.5 21t-67.5 7h-41t-28 -1v76q8 -1 28.5 -1h40.5q31 0 59.5 6.5t49.5 20t33.5 34t12.5 49.5q0 28 -12 49t-32 35.5t-47.5 22t-57.5 7.5
q-55 0 -97 -20.5t-79 -60.5l-46 52q36 44 93 73.5t135 29.5q48 0 89.5 -12t71.5 -34.5t47.5 -56t17.5 -75.5q0 -36 -13.5 -63t-34.5 -46t-46.5 -30.5t-49.5 -15.5q23 -2 50 -13t50 -31t38.5 -50t15.5 -70q0 -42 -16 -77t-46.5 -60.5t-74.5 -40t-99 -14.5z" />
    <glyph glyph-name="four.tnum" unicode="&#xf63c;" horiz-adv-x="598" 
d="M368 0v169h-317v69l286 429h114v-425h94v-73h-94v-169h-83zM368 590l-234 -348h234v348z" />
    <glyph glyph-name="five.tnum" unicode="&#xf63d;" horiz-adv-x="598" 
d="M304 -12q-85 0 -141 28.5t-94 78.5l51 55q33 -42 77.5 -65t106.5 -23q34 0 62.5 11t48.5 30t31.5 45.5t11.5 56.5q0 33 -11.5 59.5t-31.5 45.5t-48 29t-62 10q-45 0 -82.5 -15t-71.5 -48l-61 21v360h408v-74h-325v-232q24 24 64.5 42t91.5 18q42 0 80 -14t67.5 -41
t47 -67t17.5 -91t-18 -92t-50 -69.5t-75.5 -43.5t-93.5 -15z" />
    <glyph glyph-name="six.tnum" unicode="&#xf63e;" horiz-adv-x="598" 
d="M315 -12q-70 0 -119 28.5t-79.5 76t-44.5 109.5t-14 130t16 130.5t49.5 110t84.5 76t121 28.5q65 0 109.5 -22.5t75.5 -57.5l-42 -62q-26 30 -58 49t-85 19q-48 0 -83.5 -22.5t-59 -59.5t-34.5 -84t-11 -96v-13t1 -13q11 17 29.5 35.5t43.5 33.5t54.5 25t61.5 10
q45 0 84.5 -13.5t69.5 -40t47 -66.5t17 -93q0 -44 -16 -83.5t-46 -69.5t-73.5 -47.5t-98.5 -17.5zM312 62q39 0 67.5 13t47.5 33.5t28.5 45.5t9.5 49q0 37 -12 64t-33 45t-49 26.5t-60 8.5q-50 0 -94.5 -27.5t-72.5 -72.5q3 -31 13.5 -64t30 -60t50 -44t74.5 -17z" />
    <glyph glyph-name="seven.tnum" unicode="&#xf63f;" horiz-adv-x="598" 
d="M162 0l269 593h-359v74h455v-57l-273 -610h-92z" />
    <glyph glyph-name="eight.tnum" unicode="&#xf640;" horiz-adv-x="598" 
d="M299 -12q-50 0 -93.5 12t-75.5 35.5t-51 57t-19 76.5q0 33 13 61t35 50.5t51 38.5t60 25q-29 8 -55.5 22t-47 33.5t-33 45.5t-12.5 59q0 45 20 77.5t52.5 54t73 31.5t82.5 10q41 0 82 -10t73.5 -31.5t53 -54t20.5 -77.5q0 -33 -12.5 -59t-33 -45.5t-47.5 -33.5t-56 -22
q31 -9 60 -25t51 -38.5t35 -50.5t13 -61q0 -42 -19 -76t-51.5 -57t-76 -35.5t-92.5 -12.5zM299 378q15 3 40 9.5t48 20t40 34.5t17 51q0 26 -11.5 46.5t-31 34.5t-46 21.5t-56.5 7.5t-56.5 -7.5t-46 -21.5t-31 -34.5t-11.5 -46.5q0 -30 17 -51t40.5 -34.5t48 -20t39.5 -9.5z
M299 62q31 0 59 8t49.5 23t34 36.5t12.5 48.5q0 33 -18.5 56.5t-43.5 39t-51.5 23.5t-41.5 10q-15 -2 -41.5 -10t-52 -23.5t-44 -39t-18.5 -56.5q0 -27 12.5 -48.5t34 -36.5t50 -23t59.5 -8z" />
    <glyph glyph-name="nine.tnum" unicode="&#xf641;" horiz-adv-x="598" 
d="M269 -11q-64 0 -108.5 22t-76.5 58l42 62q26 -30 58.5 -49t84.5 -19q51 0 86.5 23t58 60t33 84t10.5 94v13.5t-1 13.5q-11 -17 -29.5 -35.5t-43.5 -33.5t-54 -25t-61 -10q-45 0 -85 13.5t-69.5 40t-47 66.5t-17.5 93q0 43 16 82.5t46 69.5t73.5 48t97.5 18
q70 0 119 -28.5t80 -76t45 -110t14 -130.5t-16 -130t-49.5 -109.5t-84.5 -76t-121 -28.5zM287 319q50 0 95 27t71 72q-3 31 -13 64t-29.5 60t-50.5 44.5t-74 17.5q-38 0 -67 -13t-48 -33.5t-28.5 -45.5t-9.5 -49q0 -37 12 -64t33 -45t49 -26.5t60 -8.5z" />
    <glyph glyph-name="zero.tonum" unicode="&#xf643;" horiz-adv-x="598" 
d="M555 275q0 -54 -15 -105.5t-46 -92t-79 -65t-115 -24.5t-115 24.5t-79 65t-46 92t-15 105.5t15 105.5t46 92t79 65t115 24.5t115 -24.5t79 -65t46 -92t15 -105.5zM470 275q0 40 -9.5 78.5t-30.5 68.5t-53 48t-77 18t-77 -18t-53 -48t-30.5 -68.5t-9.5 -78.5
q0 -41 9.5 -79t30.5 -68t53 -48t77 -18t77 18t53 48t30.5 68t9.5 79z" />
    <glyph glyph-name="zero.tonumzero" horiz-adv-x="598" 
d="M554 275q0 -54 -15 -105.5t-46 -92t-79 -65t-115 -24.5q-47 0 -84 12t-66 33l-24 -33h-67l52 71q-34 41 -50 94t-16 110q0 54 15 105.5t46 92t79 65t115 24.5q44 0 79.5 -11t63.5 -30l22 29h66l-48 -65q37 -42 54.5 -96.5t17.5 -113.5zM469 275q0 38 -9 75t-28 67
l-236 -320q41 -35 103 -35q45 0 77 18t53 48t30.5 68t9.5 79zM129 275q0 -37 7.5 -71.5t24.5 -63.5l234 317q-19 14 -43 22.5t-53 8.5q-45 0 -77 -18t-53 -48t-30.5 -68.5t-9.5 -78.5z" />
    <glyph glyph-name="one.tonum" unicode="&#xf644;" horiz-adv-x="598" 
d="M312 0v440l-107 -113l-50 51l167 172h73v-550h-83z" />
    <glyph glyph-name="two.tonum" unicode="&#xf645;" horiz-adv-x="598" 
d="M78 0v67q186 76 272 154t86 150q0 26 -10.5 47.5t-29 37t-43.5 24t-53 8.5q-59 0 -107.5 -23t-78.5 -61l-51 53q19 25 45.5 44.5t58 33t66 20.5t69.5 7q46 0 86 -12.5t69.5 -36t46 -57t16.5 -74.5q0 -45 -22.5 -89t-61.5 -84t-91.5 -74.5t-113.5 -60.5h278v-74h-431z" />
    <glyph glyph-name="three.tonum" unicode="&#xf646;" horiz-adv-x="598" 
d="M298 -130q-85 0 -145.5 32.5t-91.5 77.5l49 52q29 -39 77.5 -63.5t108.5 -24.5q73 0 114.5 33.5t41.5 91.5q0 31 -12 53.5t-34 36.5t-52.5 21t-67.5 7h-41t-28 -1v76q8 -1 28.5 -1h40.5q31 0 59.5 6.5t49.5 20t33.5 34t12.5 49.5q0 28 -12 49t-32 35.5t-47.5 22
t-57.5 7.5q-55 0 -97 -20.5t-79 -60.5l-46 52q36 44 93 73.5t135 29.5q48 0 89.5 -12t71.5 -34.5t47.5 -56t17.5 -75.5q0 -36 -13.5 -63t-34.5 -46t-46.5 -30.5t-49.5 -15.5q23 -2 50 -13t50 -31t38.5 -50t15.5 -70q0 -42 -16 -77t-46.5 -60.5t-74.5 -40t-99 -14.5z" />
    <glyph glyph-name="four.tonum" unicode="&#xf647;" horiz-adv-x="598" 
d="M451 55v-172h-83v172h-317v69l286 426h114v-422h94v-73h-94zM368 473l-234 -345h234v345z" />
    <glyph glyph-name="five.tonum" unicode="&#xf648;" horiz-adv-x="598" 
d="M304 -128q-85 0 -141 28.5t-94 78.5l51 55q33 -42 77.5 -65t106.5 -23q34 0 62.5 11t48.5 30t31.5 45.5t11.5 56.5q0 33 -11.5 59.5t-31.5 45.5t-48 29t-62 10q-45 0 -82.5 -15t-71.5 -48l-61 21v360h408v-74h-325v-232q24 24 64.5 42t91.5 18q42 0 80 -14t67.5 -41
t47 -67t17.5 -91t-18 -92t-50 -69.5t-75.5 -43.5t-93.5 -15z" />
    <glyph glyph-name="six.tonum" unicode="&#xf649;" horiz-adv-x="598" 
d="M315 -12q-70 0 -119 28.5t-79.5 76t-44.5 109.5t-14 130t16 130.5t49.5 110t84.5 76t121 28.5q65 0 109.5 -22.5t75.5 -57.5l-42 -62q-26 30 -58 49t-85 19q-48 0 -83.5 -22.5t-59 -59.5t-34.5 -84t-11 -96v-13t1 -13q11 17 29.5 35.5t43.5 33.5t54.5 25t61.5 10
q45 0 84.5 -13.5t69.5 -40t47 -66.5t17 -93q0 -44 -16 -83.5t-46 -69.5t-73.5 -47.5t-98.5 -17.5zM312 62q39 0 67.5 13t47.5 33.5t28.5 45.5t9.5 49q0 37 -12 64t-33 45t-49 26.5t-60 8.5q-50 0 -94.5 -27.5t-72.5 -72.5q3 -31 13.5 -64t30 -60t50 -44t74.5 -17z" />
    <glyph glyph-name="seven.tonum" unicode="&#xf64a;" horiz-adv-x="598" 
d="M162 -116l269 593h-359v74h455v-57l-273 -610h-92z" />
    <glyph glyph-name="eight.tonum" unicode="&#xf64b;" horiz-adv-x="598" 
d="M299 -12q-50 0 -93.5 12t-75.5 35.5t-51 57t-19 76.5q0 33 13 61t35 50.5t51 38.5t60 25q-29 8 -55.5 22t-47 33.5t-33 45.5t-12.5 59q0 45 20 77.5t52.5 54t73 31.5t82.5 10q41 0 82 -10t73.5 -31.5t53 -54t20.5 -77.5q0 -33 -12.5 -59t-33 -45.5t-47.5 -33.5t-56 -22
q31 -9 60 -25t51 -38.5t35 -50.5t13 -61q0 -42 -19 -76t-51.5 -57t-76 -35.5t-92.5 -12.5zM299 378q15 3 40 9.5t48 20t40 34.5t17 51q0 26 -11.5 46.5t-31 34.5t-46 21.5t-56.5 7.5t-56.5 -7.5t-46 -21.5t-31 -34.5t-11.5 -46.5q0 -30 17 -51t40.5 -34.5t48 -20t39.5 -9.5z
M299 62q31 0 59 8t49.5 23t34 36.5t12.5 48.5q0 33 -18.5 56.5t-43.5 39t-51.5 23.5t-41.5 10q-15 -2 -41.5 -10t-52 -23.5t-44 -39t-18.5 -56.5q0 -27 12.5 -48.5t34 -36.5t50 -23t59.5 -8z" />
    <glyph glyph-name="nine.tonum" unicode="&#xf64c;" horiz-adv-x="598" 
d="M269 -126q-64 0 -108.5 22t-76.5 58l42 62q26 -30 58.5 -49t84.5 -19q51 0 86.5 23t58 60t33 84t10.5 94v13.5t-1 13.5q-11 -17 -29.5 -35.5t-43.5 -33.5t-54 -25t-61 -10q-45 0 -85 13.5t-69.5 40t-47 66.5t-17.5 93q0 43 16 82.5t46 69.5t73.5 48t97.5 18
q70 0 119 -28.5t80 -76t45 -110t14 -130.5t-16 -130t-49.5 -109.5t-84.5 -76t-121 -28.5zM287 204q50 0 95 27t71 72q-3 31 -13 64t-29.5 60t-50.5 44.5t-74 17.5q-38 0 -67 -13t-48 -33.5t-28.5 -45.5t-9.5 -49q0 -37 12 -64t33 -45t49 -26.5t60 -8.5z" />
    <glyph glyph-name="zero.onum" unicode="&#xf730;" horiz-adv-x="612" 
d="M561 275q0 -54 -15 -105.5t-46 -92t-79 -65t-115 -24.5t-115 24.5t-79 65t-46 92t-15 105.5t15 105.5t46 92t79 65t115 24.5t115 -24.5t79 -65t46 -92t15 -105.5zM476 275q0 40 -9.5 78.5t-30.5 68.5t-53 48t-77 18t-77 -18t-53 -48t-30.5 -68.5t-9.5 -78.5
q0 -41 9.5 -79t30.5 -68t53 -48t77 -18t77 18t53 48t30.5 68t9.5 79z" />
    <glyph glyph-name="zero.onumzero" horiz-adv-x="612" 
d="M561 275q0 -54 -15 -105.5t-46 -92t-79 -65t-115 -24.5q-47 0 -84 12t-66 33l-24 -33h-67l52 71q-34 41 -50 94t-16 110q0 54 15 105.5t46 92t79 65t115 24.5q44 0 79.5 -11t63.5 -30l22 29h66l-48 -65q37 -42 54.5 -96.5t17.5 -113.5zM476 275q0 38 -9 75t-28 67
l-236 -320q41 -35 103 -35q45 0 77 18t53 48t30.5 68t9.5 79zM136 275q0 -37 7.5 -71.5t24.5 -63.5l234 317q-19 14 -43 22.5t-53 8.5q-45 0 -77 -18t-53 -48t-30.5 -68.5t-9.5 -78.5z" />
    <glyph glyph-name="one.onum" unicode="&#xf731;" horiz-adv-x="339" 
d="M178 0v440l-107 -113l-50 51l167 172h73v-550h-83z" />
    <glyph glyph-name="two.onum" unicode="&#xf732;" horiz-adv-x="578" 
d="M60 0v67q186 76 272 154t86 150q0 26 -10.5 47.5t-29 37t-43.5 24t-53 8.5q-59 0 -107.5 -23t-78.5 -61l-51 53q19 25 45.5 44.5t58 33t66 20.5t69.5 7q46 0 86 -12.5t69.5 -36t46 -57t16.5 -74.5q0 -45 -22.5 -89t-61.5 -84t-91.5 -74.5t-113.5 -60.5h278v-74h-431z" />
    <glyph glyph-name="three.onum" unicode="&#xf733;" horiz-adv-x="553" 
d="M263 -127q-85 0 -145.5 32.5t-91.5 77.5l49 52q29 -39 77.5 -63.5t108.5 -24.5q73 0 114.5 33.5t41.5 91.5q0 31 -12 53.5t-34 36.5t-52.5 21t-67.5 7h-41t-28 -1v76q8 -1 28.5 -1h40.5q31 0 59.5 6.5t49.5 20t33.5 34t12.5 49.5q0 28 -12 49t-32 35.5t-47.5 22
t-57.5 7.5q-55 0 -97 -20.5t-79 -60.5l-46 52q36 44 93 73.5t135 29.5q48 0 89.5 -12t71.5 -34.5t47.5 -56t17.5 -75.5q0 -36 -13.5 -63t-34.5 -46t-46.5 -30.5t-49.5 -15.5q23 -2 50 -13t50 -31t38.5 -50t15.5 -70q0 -42 -16 -77t-46.5 -60.5t-74.5 -40t-99 -14.5z" />
    <glyph glyph-name="four.onum" unicode="&#xf734;" horiz-adv-x="558" 
d="M432 55v-172h-83v172h-317v69l286 426h114v-422h94v-73h-94zM349 473l-234 -345h234v345z" />
    <glyph glyph-name="five.onum" unicode="&#xf735;" horiz-adv-x="590" 
d="M301 -128q-85 0 -141 28.5t-94 78.5l51 55q33 -42 77.5 -65t106.5 -23q34 0 62.5 11t48.5 30t31.5 45.5t11.5 56.5q0 33 -11.5 59.5t-31.5 45.5t-48 29t-62 10q-45 0 -82.5 -15t-71.5 -48l-61 21v360h408v-74h-325v-232q24 24 64.5 42t91.5 18q42 0 80 -14t67.5 -41
t47 -67t17.5 -91t-18 -92t-50 -69.5t-75.5 -43.5t-93.5 -15z" />
    <glyph glyph-name="six.onum" unicode="&#xf736;" horiz-adv-x="591" 
d="M308 -12q-70 0 -119 28.5t-79.5 76t-44.5 109.5t-14 130t16 130.5t49.5 110t84.5 76t121 28.5q65 0 109.5 -22.5t75.5 -57.5l-42 -62q-26 30 -58 49t-85 19q-48 0 -83.5 -22.5t-59 -59.5t-34.5 -84t-11 -96v-13t1 -13q11 17 29.5 35.5t43.5 33.5t54.5 25t61.5 10
q45 0 84.5 -13.5t69.5 -40t47 -66.5t17 -93q0 -44 -16 -83.5t-46 -69.5t-73.5 -47.5t-98.5 -17.5zM305 62q39 0 67.5 13t47.5 33.5t28.5 45.5t9.5 49q0 37 -12 64t-33 45t-49 26.5t-60 8.5q-50 0 -94.5 -27.5t-72.5 -72.5q3 -31 13.5 -64t30 -60t50 -44t74.5 -17z" />
    <glyph glyph-name="seven.onum" unicode="&#xf737;" horiz-adv-x="515" 
d="M121 -116l269 593h-359v74h455v-57l-273 -610h-92z" />
    <glyph glyph-name="eight.onum" unicode="&#xf738;" horiz-adv-x="581" 
d="M291 -12q-50 0 -93.5 12t-75.5 35.5t-51 57t-19 76.5q0 33 13 61t35 50.5t51 38.5t60 25q-29 8 -55.5 22t-47 33.5t-33 45.5t-12.5 59q0 45 20 77.5t52.5 54t73 31.5t82.5 10q41 0 82 -10t73.5 -31.5t53 -54t20.5 -77.5q0 -33 -12.5 -59t-33 -45.5t-47.5 -33.5t-56 -22
q31 -9 60 -25t51 -38.5t35 -50.5t13 -61q0 -42 -19 -76t-51.5 -57t-76 -35.5t-92.5 -12.5zM291 378q15 3 40 9.5t48 20t40 34.5t17 51q0 26 -11.5 46.5t-31 34.5t-46 21.5t-56.5 7.5t-56.5 -7.5t-46 -21.5t-31 -34.5t-11.5 -46.5q0 -30 17 -51t40.5 -34.5t48 -20t39.5 -9.5z
M291 62q31 0 59 8t49.5 23t34 36.5t12.5 48.5q0 33 -18.5 56.5t-43.5 39t-51.5 23.5t-41.5 10q-15 -2 -41.5 -10t-52 -23.5t-44 -39t-18.5 -56.5q0 -27 12.5 -48.5t34 -36.5t50 -23t59.5 -8z" />
    <glyph glyph-name="nine.onum" unicode="&#xf739;" horiz-adv-x="591" 
d="M269 -126q-64 0 -108.5 22t-76.5 58l42 62q26 -30 58.5 -49t84.5 -19q51 0 86.5 23t58 60t33 84t10.5 94v13.5t-1 13.5q-11 -17 -29.5 -35.5t-43.5 -33.5t-54 -25t-61 -10q-45 0 -85 13.5t-69.5 40t-47 66.5t-17.5 93q0 43 16 82.5t46 69.5t73.5 48t97.5 18
q70 0 119 -28.5t80 -76t45 -110t14 -130.5t-16 -130t-49.5 -109.5t-84.5 -76t-121 -28.5zM287 204q50 0 95 27t71 72q-3 31 -13 64t-29.5 60t-50.5 44.5t-74 17.5q-38 0 -67 -13t-48 -33.5t-28.5 -45.5t-9.5 -49q0 -37 12 -64t33 -45t49 -26.5t60 -8.5z" />
    <glyph glyph-name="A" unicode="A" horiz-adv-x="658" 
d="M554 0l-59 148h-332l-59 -148h-95l268 667h103l269 -667h-95zM329 581l-142 -359h283z" />
    <glyph glyph-name="B" unicode="B" horiz-adv-x="629" 
d="M78 0v667h297q43 0 78 -12.5t59 -35t37 -54t13 -68.5q0 -32 -9.5 -58t-26 -45.5t-37.5 -32t-44 -17.5q27 -4 50.5 -19t41 -37t28 -50t10.5 -58q0 -40 -13 -73t-38 -57t-60.5 -37t-81.5 -13h-304zM361 378q57 0 86 30.5t29 76.5q0 45 -29 76.5t-86 31.5h-200v-215h200z
M365 74q59 0 91.5 30.5t32.5 84.5q0 23 -8 44t-23.5 36.5t-38.5 25t-54 9.5h-204v-230h204z" />
    <glyph glyph-name="C" unicode="C" horiz-adv-x="676" 
d="M394 -12q-72 0 -134.5 25t-109 70.5t-73 109t-26.5 140.5t26.5 140.5t73 109t109 70.5t134.5 25q44 0 81.5 -10t69 -28t57 -42t45.5 -52l-70 -39q-29 42 -77.5 69.5t-105.5 27.5q-55 0 -102 -20t-81.5 -56t-54 -85.5t-19.5 -109.5q0 -59 19.5 -109t54 -86t81.5 -56
t102 -20q57 0 105.5 27t77.5 70l71 -39q-42 -57 -103.5 -94.5t-150.5 -37.5z" />
    <glyph glyph-name="D" unicode="D" horiz-adv-x="700" 
d="M78 0v667h228q78 0 141 -25.5t107.5 -70.5t69 -106t24.5 -132t-24.5 -132t-69 -105.5t-107.5 -70t-141 -25.5h-228zM306 74q61 0 108.5 20.5t80.5 55.5t50 82t17 101t-17 101.5t-49.5 82.5t-80 55.5t-109.5 20.5h-145v-519h145z" />
    <glyph glyph-name="E" unicode="E" horiz-adv-x="569" 
d="M78 0v667h437v-74h-354v-215h347v-74h-347v-230h354v-74h-437z" />
    <glyph glyph-name="F" unicode="F" horiz-adv-x="550" 
d="M78 0v667h437v-74h-354v-215h347v-74h-347v-304h-83z" />
    <glyph glyph-name="G" unicode="G" horiz-adv-x="713" 
d="M394 -13q-71 0 -133.5 25t-109 70.5t-73.5 109t-27 141.5t27 141.5t73.5 108.5t109 70t133.5 25q89 0 151.5 -35t107.5 -90l-66 -41q-32 41 -82.5 66.5t-110.5 25.5q-55 0 -102 -20t-81.5 -56t-54 -85.5t-19.5 -109.5q0 -59 19.5 -109t54 -86t81.5 -56.5t102 -20.5
q30 0 57 6.5t50 17t41.5 23.5t30.5 25v136h-229v74h312v-241q-47 -52 -113.5 -83.5t-148.5 -31.5z" />
    <glyph glyph-name="G.alt1" horiz-adv-x="730" 
d="M388 -13q-69 0 -130.5 25t-107 70.5t-72.5 109t-27 141.5t27 141.5t73.5 108.5t109 70t133.5 25q89 0 151.5 -35t107.5 -90l-66 -41q-32 41 -82.5 66.5t-110.5 25.5q-55 0 -102 -20t-81.5 -56t-54 -85.5t-19.5 -109.5q0 -59 19.5 -109t54 -86t81.5 -56.5t102 -20.5
q51 0 90.5 17t67 45.5t44 66.5t22.5 79h-274v74h364q0 -78 -21 -143.5t-62 -113t-100.5 -73.5t-136.5 -26z" />
    <glyph glyph-name="H" unicode="H" horiz-adv-x="712" 
d="M551 0v306h-390v-306h-83v667h83v-287h390v287h83v-667h-83z" />
    <glyph glyph-name="I" unicode="I" horiz-adv-x="239" 
d="M78 0v667h83v-667h-83z" />
    <glyph glyph-name="J" unicode="J" horiz-adv-x="475" 
d="M185 -12q-54 0 -96.5 18t-77.5 59l43 63q22 -26 52 -46t74 -20q62 0 98 38.5t36 101.5v465h83v-466q0 -54 -16.5 -94.5t-45 -66.5t-67 -39t-83.5 -13z" />
    <glyph glyph-name="K" unicode="K" horiz-adv-x="601" 
d="M481 0l-253 300l-67 -76v-224h-83v667h83v-345l295 345h104l-278 -317l302 -350h-103z" />
    <glyph glyph-name="L" unicode="L" horiz-adv-x="510" 
d="M78 0v667h83v-593h310v-74h-393z" />
    <glyph glyph-name="M" unicode="M" horiz-adv-x="809" 
d="M648 0v549l-227 -549h-34l-226 549v-549h-83v667h119l207 -502l208 502h119v-667h-83z" />
    <glyph glyph-name="N" unicode="N" horiz-adv-x="708" 
d="M550 0l-389 532v-532h-83v667h85l384 -521v521h83v-667h-80z" />
    <glyph glyph-name="O" unicode="O" horiz-adv-x="765" 
d="M382 -12q-74 0 -135 26t-104.5 72.5t-67.5 109.5t-24 137t24 137t67.5 109.5t104.5 72.5t135 26t135 -26t104.5 -72.5t67.5 -109.5t24 -137t-24 -137t-67.5 -109.5t-104.5 -72.5t-135 -26zM382 62q56 0 101 20.5t77 57t49.5 86t17.5 107.5t-17.5 108t-49.5 86t-77 56.5
t-101 20.5t-101.5 -20.5t-77.5 -56.5t-49 -86t-17 -108t17 -107.5t49 -86t77.5 -57t101.5 -20.5z" />
    <glyph glyph-name="P" unicode="P" horiz-adv-x="587" 
d="M78 0v667h268q50 0 89 -16t65.5 -43.5t40.5 -64t14 -77.5t-14 -77.5t-41 -64t-66 -43.5t-88 -16h-185v-265h-83zM336 339q60 0 96.5 35t36.5 92t-36.5 92t-96.5 35h-175v-254h175z" />
    <glyph glyph-name="Q" unicode="Q" horiz-adv-x="765" 
d="M382 -12q-74 0 -135 26t-104.5 72.5t-67.5 109.5t-24 137t24 137t67.5 109.5t104.5 72.5t135 26t135 -26t104.5 -72.5t67.5 -109.5t24 -137q0 -75 -24 -137.5t-68 -108.5l64 -68l-58 -50l-65 69q-38 -24 -83 -37t-97 -13zM382 62q71 0 127 34l-95 103l58 49l94 -102
q29 36 45 83.5t16 103.5q0 58 -17.5 108t-49.5 86t-77 56.5t-101 20.5t-101.5 -20.5t-77.5 -56.5t-49 -86t-17 -108t17 -107.5t49 -86t77.5 -57t101.5 -20.5z" />
    <glyph glyph-name="R" unicode="R" horiz-adv-x="608" 
d="M464 0l-170 265h-133v-265h-83v667h268q46 0 84 -14t66 -40.5t43.5 -63.5t15.5 -83q0 -45 -14 -80t-38 -59t-55.5 -38t-65.5 -17l180 -272h-98zM336 338q60 0 96.5 35.5t36.5 92.5t-36.5 92t-96.5 35h-175v-255h175z" />
    <glyph glyph-name="S" unicode="S" horiz-adv-x="586" 
d="M294 -12q-88 0 -151 29.5t-105 76.5l49 63q16 -18 38 -35.5t48.5 -30.5t57.5 -21t66 -8q45 0 75 11t48 27.5t26 37t8 39.5q0 32 -17 53t-44.5 35.5t-63 24t-73 20t-73 23.5t-63 33.5t-44.5 50.5t-17 75q0 41 17.5 75t48 58.5t72.5 38t91 13.5q77 0 136 -24t101 -69
l-50 -61q-38 42 -88 61t-105 19q-60 0 -98.5 -29t-38.5 -77q0 -28 17 -46t44.5 -31t63 -22.5t73 -20t73 -24.5t63 -36t44.5 -54t17 -79q0 -36 -13 -71.5t-42.5 -63t-76.5 -44.5t-114 -17z" />
    <glyph glyph-name="T" unicode="T" horiz-adv-x="570" 
d="M243 0v593h-211v74h506v-74h-212v-593h-83z" />
    <glyph glyph-name="U" unicode="U" horiz-adv-x="700" 
d="M350 -12q-68 0 -119 19.5t-85 54.5t-51 85t-17 112v408h83v-406q0 -92 48 -145.5t141 -53.5t141 53.5t48 145.5v406h83v-407q0 -62 -17 -112.5t-51 -86t-85 -54.5t-119 -19z" />
    <glyph glyph-name="V" unicode="V" horiz-adv-x="658" 
d="M277 0l-268 667h95l225 -576l225 576h95l-269 -667h-103z" />
    <glyph glyph-name="W" unicode="W" horiz-adv-x="883" 
d="M588 0l-147 538l-147 -538h-90l-190 667h92l148 -556l153 556h69l153 -556l147 556h92l-190 -667h-90z" />
    <glyph glyph-name="X" unicode="X" horiz-adv-x="652" 
d="M539 0l-213 284l-213 -284h-101l260 342l-245 325h101l198 -267l197 267h101l-244 -324l259 -343h-100z" />
    <glyph glyph-name="Y" unicode="Y" horiz-adv-x="626" 
d="M272 0v282l-263 385h97l207 -310l207 310h97l-262 -385v-282h-83z" />
    <glyph glyph-name="Z" unicode="Z" horiz-adv-x="585" 
d="M48 0v69l375 524h-375v74h481v-69l-375 -524h382v-74h-488z" />
    <glyph glyph-name="a" unicode="a" horiz-adv-x="527" 
d="M377 0v55q-61 -67 -160 -67q-31 0 -61 10t-54 30.5t-39 50.5t-15 69q0 40 15 70t39 50t54 29.5t61 9.5q50 0 90.5 -16t69.5 -50v87q0 49 -34.5 75.5t-87.5 26.5q-85 0 -148 -67l-35 52q77 80 193 80q38 0 72 -9t59.5 -28.5t40.5 -50.5t15 -75v-332h-75zM244 42
q40 0 75.5 15t57.5 45v91q-22 30 -57.5 45t-75.5 15q-53 0 -86 -29.5t-33 -76.5q0 -46 33 -75.5t86 -29.5z" />
    <glyph glyph-name="a.alt1" horiz-adv-x="575" 
d="M425 0v72q-27 -37 -69.5 -60.5t-93.5 -23.5q-47 0 -86.5 17.5t-68 50t-44.5 79.5t-16 106q0 58 15.5 105t44 80t68 51t87.5 18q49 0 91 -22.5t71 -62.5v73h76v-483h-75zM280 55q45 0 85 22t60 54v219q-20 32 -60 55t-85 23q-36 0 -65 -14t-49 -39t-30.5 -59.5
t-10.5 -74.5t10.5 -74t30.5 -59t49 -39t65 -14z" />
    <glyph glyph-name="b" unicode="b" horiz-adv-x="575" 
d="M150 131q20 -32 59.5 -54t84.5 -22q37 0 66 14t49 39t30.5 59t10.5 74t-10.5 74.5t-30.5 59.5t-49 39t-66 14q-45 0 -84.5 -23t-59.5 -55v-219zM75 0v667h75v-257q29 40 71 62.5t92 22.5q47 0 86.5 -18t68 -51t44.5 -80t16 -105q0 -59 -16 -106t-44.5 -79.5t-68 -50
t-86.5 -17.5q-51 0 -93.5 23.5t-69.5 60.5v-72h-75z" />
    <glyph glyph-name="c" unicode="c" horiz-adv-x="495" 
d="M288 -12q-54 0 -98.5 19.5t-76 53.5t-49 80.5t-17.5 100.5t17.5 100t49 80t76 53.5t98.5 19.5q66 0 107.5 -24t69.5 -60l-50 -46q-24 33 -54.5 48t-68.5 15q-39 0 -69.5 -14t-52.5 -39t-33.5 -59t-11.5 -74t11.5 -74.5t33.5 -59.5t52.5 -39t69.5 -14q76 0 123 63l50 -46
q-28 -36 -69.5 -60t-107.5 -24z" />
    <glyph glyph-name="d" unicode="d" horiz-adv-x="575" 
d="M425 0v72q-27 -37 -69.5 -60.5t-93.5 -23.5q-47 0 -86.5 17.5t-68 50t-44.5 79.5t-16 106q0 58 15.5 105t44 80t68 51t87.5 18q49 0 91.5 -22.5t71.5 -62.5v257h75v-667h-75zM280 55q45 0 85 22t60 54v219q-20 32 -60 55t-85 23q-36 0 -65 -14t-49 -39t-30.5 -59.5
t-10.5 -74.5t10.5 -74t30.5 -59t49 -39t65 -14z" />
    <glyph glyph-name="e" unicode="e" horiz-adv-x="563" 
d="M293 -12q-54 0 -99 18.5t-77.5 52t-51 80t-18.5 103.5q0 52 18 98.5t49.5 80.5t75 54t95.5 20q55 0 98 -20t73 -55t45.5 -82.5t15.5 -101.5v-19h-391q2 -34 15 -64.5t35.5 -53t53.5 -36t70 -13.5q42 0 81 16t68 45l36 -49q-36 -36 -84 -55t-108 -19zM443 272
q0 27 -9.5 55.5t-29 52t-49.5 38.5t-71 15q-39 0 -68 -15t-48.5 -38t-30 -51.5t-11.5 -56.5h317z" />
    <glyph glyph-name="f" unicode="f" horiz-adv-x="283" 
d="M96 0v417h-80v66h80v37q0 75 37.5 116t102.5 41q29 0 54 -8t48 -29l-31 -49q-12 11 -26.5 17.5t-33.5 6.5q-37 0 -56.5 -24.5t-19.5 -70.5v-37h98v-66h-98v-417h-75z" />
    <glyph glyph-name="f.alt1" horiz-adv-x="283" 
d="M96 0v417h-80v66h80v37q0 75 38.5 116t101.5 41q21 0 40 -4t33 -13l-19 -57q-8 5 -18.5 8.5t-24.5 3.5q-37 0 -56.5 -24.5t-19.5 -70.5v-37h98v-66h-98v-417h-75z" />
    <glyph glyph-name="g" unicode="g" horiz-adv-x="574" 
d="M269 -196q-62 0 -107 15t-88 57l38 56q30 -36 67.5 -51t89.5 -15q30 0 58 7.5t49.5 25t34.5 45t13 67.5v69q-26 -37 -68.5 -61.5t-93.5 -24.5q-47 0 -86.5 17t-68 49.5t-44.5 78.5t-16 105q0 58 15.5 104.5t44 79t68 50t87.5 17.5q49 0 91 -22.5t71 -62.5v73h75v-469
q0 -60 -19.5 -100.5t-51.5 -64.5t-73.5 -34.5t-85.5 -10.5zM280 60q22 0 44 6.5t41 17.5t34 25t25 30v211q-10 16 -25 30t-34 24.5t-41 17t-44 6.5q-36 0 -65 -13.5t-49 -38t-30.5 -58.5t-10.5 -74t10.5 -73.5t30.5 -58t49 -38.5t65 -14z" />
    <glyph glyph-name="h" unicode="h" horiz-adv-x="552" 
d="M402 0v318q0 32 -8 53t-22 34t-34.5 18t-44.5 5q-22 0 -43 -6t-39.5 -16.5t-34 -24t-26.5 -28.5v-353h-75v667h75v-254q13 15 31 29.5t40.5 26.5t48.5 19t53 7q76 0 115 -37.5t39 -116.5v-341h-75z" />
    <glyph glyph-name="i" unicode="i" horiz-adv-x="225" 
d="M112 552q-20 0 -35 14.5t-15 35.5t15 36t35 15q21 0 36 -15t15 -36t-15 -35.5t-36 -14.5zM75 0v483h75v-483h-75z" />
    <glyph glyph-name="j" unicode="j" horiz-adv-x="225" 
d="M112 552q-20 0 -35 14.5t-15 35.5t15 36t35 15q21 0 36 -15t15 -36t-15 -35.5t-36 -14.5zM7 -196q-37 0 -60 9t-46 27l27 57q13 -13 29.5 -22t39.5 -9q34 0 56 20.5t22 66.5v530h75v-530q0 -72 -37 -110.5t-106 -38.5z" />
    <glyph glyph-name="k" unicode="k" horiz-adv-x="514" 
d="M404 0l-174 217l-80 -79v-138h-75v667h75v-441l254 257h95l-214 -219l215 -264h-96z" />
    <glyph glyph-name="l" unicode="l" horiz-adv-x="225" 
d="M75 0v667h75v-667h-75z" />
    <glyph glyph-name="l.alt1" horiz-adv-x="268" 
d="M182 -12q-54 0 -80.5 29.5t-26.5 83.5v566h75v-550q0 -27 12 -44.5t37 -17.5q16 0 29 6t21 14l22 -56q-14 -14 -35 -22.5t-54 -8.5z" />
    <glyph glyph-name="m" unicode="m" horiz-adv-x="808" 
d="M658 0v328q0 46 -21 73t-68 27q-38 0 -73.5 -22.5t-54.5 -51.5v-354h-75v328q0 46 -20.5 73t-68.5 27q-37 0 -72 -23t-55 -52v-353h-75v483h75v-70q7 12 22.5 26t36.5 26.5t45.5 21t51.5 8.5q56 0 87.5 -26t42.5 -64q10 16 27 32.5t38 29t46 20.5t51 8q66 0 100.5 -36.5
t34.5 -109.5v-349h-75z" />
    <glyph glyph-name="n" unicode="n" horiz-adv-x="551" 
d="M401 0v316q0 64 -29.5 88t-78.5 24q-22 0 -43 -6t-40 -16.5t-34.5 -24t-25.5 -28.5v-353h-75v483h75v-70q13 15 31 29.5t40.5 26.5t48 19t52.5 7q154 0 154 -156v-339h-75z" />
    <glyph glyph-name="o" unicode="o" 
d="M286 -12q-55 0 -99.5 20t-75.5 54.5t-47.5 80.5t-16.5 99q0 52 16.5 98.5t47.5 80.5t75.5 54t99.5 20t99.5 -20t75.5 -54t47.5 -80.5t16.5 -98.5q0 -53 -16.5 -99t-47.5 -80.5t-75.5 -54.5t-99.5 -20zM286 55q39 0 68.5 15.5t50 41t31 59.5t10.5 71t-10.5 70.5t-31 59
t-50 41t-68.5 15.5t-69 -15.5t-50.5 -41t-31 -59t-10.5 -70.5t10.5 -71t31 -59.5t50.5 -41t69 -15.5z" />
    <glyph glyph-name="p" unicode="p" 
d="M313 -12q-50 0 -92 22t-71 63v-257h-75v667h75v-72q26 37 69 60.5t94 23.5q48 0 87.5 -17.5t68 -50t44 -79.5t15.5 -106t-15.5 -106t-44 -80t-68 -50.5t-87.5 -17.5zM294 55q36 0 65 14t49 39t30.5 59.5t10.5 74.5t-10.5 74t-30.5 59t-49 39t-65 14q-45 0 -84.5 -22.5
t-59.5 -54.5v-218q20 -32 59.5 -55t84.5 -23z" />
    <glyph glyph-name="q" unicode="q" 
d="M277 55q22 0 44 6.5t41 17t34.5 24.5t24.5 30v218q-9 16 -24.5 30t-34.5 24.5t-41 16.5t-44 6q-36 0 -65 -14t-48.5 -39t-30 -59t-10.5 -74t10.5 -74.5t30 -59.5t48.5 -39t65 -14zM259 -12q-48 0 -87.5 17.5t-68 50.5t-44 80t-15.5 106t15.5 106t44 79.5t68 50t87.5 17.5
q51 0 93.5 -23.5t68.5 -60.5v72h75v-667h-75v257q-29 -41 -71 -63t-91 -22z" />
    <glyph glyph-name="r" unicode="r" horiz-adv-x="330" 
d="M75 0v483h75v-78q29 38 70 63t91 25v-77q-14 3 -30 3q-17 0 -36.5 -6.5t-38 -17.5t-33.5 -24.5t-23 -28.5v-342h-75z" />
    <glyph glyph-name="s" unicode="s" horiz-adv-x="465" 
d="M228 -12q-60 0 -109 18.5t-86 57.5l39 54q24 -28 66.5 -48.5t92.5 -20.5q56 0 85 23.5t29 59.5q0 29 -22 44.5t-55.5 25.5t-72 18.5t-72 24t-55.5 41t-22 70.5q0 28 12 53.5t35 44.5t56.5 30t76.5 11q62 0 106 -20.5t73 -49.5l-35 -52q-22 26 -59.5 43.5t-84.5 17.5
q-50 0 -78.5 -22t-28.5 -54q0 -26 22 -40t55.5 -23.5t72 -18t72 -24.5t55.5 -43.5t22 -74.5q0 -30 -12 -57t-36 -46.5t-59.5 -31t-82.5 -11.5z" />
    <glyph glyph-name="t" unicode="t" horiz-adv-x="294" 
d="M197 -12q-54 0 -80.5 29.5t-26.5 83.5v316h-80v66h80v132h75v-132h98v-66h-98v-300q0 -27 12 -44.5t37 -17.5q16 0 29.5 6t21.5 14l22 -56q-14 -14 -35.5 -22.5t-54.5 -8.5z" />
    <glyph glyph-name="u" unicode="u" horiz-adv-x="551" 
d="M401 0v68q-28 -32 -73 -56t-99 -24q-76 0 -115 37.5t-39 116.5v341h75v-318q0 -32 7.5 -53t22 -34t34.5 -18t44 -5q44 0 83 22t60 51v355h75v-483h-75z" />
    <glyph glyph-name="v" unicode="v" horiz-adv-x="490" 
d="M204 0l-201 483h81l161 -396l160 396h82l-201 -483h-82z" />
    <glyph glyph-name="w" unicode="w" horiz-adv-x="734" 
d="M493 0l-126 388l-126 -388h-75l-154 483h78l118 -385l127 385h64l127 -385l118 385h78l-154 -483h-75z" />
    <glyph glyph-name="x" unicode="x" horiz-adv-x="486" 
d="M388 0l-145 198l-145 -198h-86l185 248l-175 235h87l134 -184l134 184h87l-175 -235l186 -248h-87z" />
    <glyph glyph-name="y" unicode="y" horiz-adv-x="490" 
d="M60 -121q8 -4 20 -6t21 -2q25 0 42 10.5t30 40.5l32 73l-202 488h81l161 -396l160 396h82l-242 -581q-22 -53 -58 -75t-84 -23q-12 0 -28 2t-27 5z" />
    <glyph glyph-name="y.alt1" horiz-adv-x="551" 
d="M255 -196q-61 0 -104.5 18t-80.5 54l38 56q27 -35 65 -50.5t82 -15.5q69 0 107.5 38t38.5 109v65q-28 -32 -73 -56t-99 -24q-76 0 -115 37.5t-39 116.5v331h75v-308q0 -32 7.5 -53.5t22 -34.5t34.5 -18t44 -5q44 0 83 22t60 51v346h75v-470q0 -54 -18 -93.5t-48 -65
t-70 -38t-85 -12.5z" />
    <glyph glyph-name="z" unicode="z" horiz-adv-x="472" 
d="M52 0v58l266 359h-266v66h364v-57l-268 -361h272v-65h-368z" />
    <glyph glyph-name="A.smcp" unicode="&#xf761;" 
d="M333 550l232 -550h-87l-51 120h-282l-50 -120h-88l232 550h94zM286 468l-117 -279h234z" />
    <glyph glyph-name="B.smcp" unicode="&#xf762;" horiz-adv-x="554" 
d="M75 0v550h259q77 0 120 -39t43 -102q0 -50 -28 -82t-66 -43q22 -5 41.5 -18t34 -31t22.5 -40t8 -46q0 -67 -44 -108t-125 -41h-265zM329 69q47 0 73 23.5t26 64.5q0 18 -6.5 34t-19 28.5t-31 20t-42.5 7.5h-176v-178h176zM324 316q46 0 69.5 23.5t23.5 58.5
q0 38 -24 60.5t-69 22.5h-171v-165h171z" />
    <glyph glyph-name="C.smcp" unicode="&#xf763;" horiz-adv-x="582" 
d="M340 -12q-62 0 -115.5 21t-93 59t-62 91t-22.5 116q0 64 22.5 116.5t62 90.5t93 59t115.5 21q75 0 129.5 -31.5t89.5 -81.5l-63 -35q-25 36 -66 57.5t-90 21.5q-45 0 -84 -16t-67.5 -45t-45 -69t-16.5 -88q0 -47 16.5 -87t45 -69t67.5 -45.5t84 -16.5q49 0 91 22t65 57
l64 -35q-37 -51 -91 -82t-129 -31z" />
    <glyph glyph-name="D.smcp" unicode="&#xf764;" horiz-adv-x="615" 
d="M75 0v550h199q68 0 122.5 -21t92.5 -58.5t58.5 -88t20.5 -108.5q0 -59 -20.5 -109t-58.5 -86.5t-92.5 -57.5t-121.5 -21h-200zM274 69q52 0 91.5 16t66.5 43.5t41 65t14 80.5t-13.5 80.5t-40.5 65.5t-66.5 44.5t-91.5 16.5h-122v-412h121z" />
    <glyph glyph-name="E.smcp" unicode="&#xf765;" horiz-adv-x="509" 
d="M75 0v550h382v-69h-304v-165h299v-69h-299v-178h304v-69h-382z" />
    <glyph glyph-name="F.smcp" unicode="&#xf766;" horiz-adv-x="491" 
d="M75 0v550h382v-69h-304v-165h299v-69h-299v-247h-78z" />
    <glyph glyph-name="G.smcp" unicode="&#xf767;" horiz-adv-x="626" 
d="M341 -12q-62 0 -115.5 21t-93.5 58.5t-62.5 90.5t-22.5 117t22.5 117t62.5 90.5t93.5 58.5t115.5 21q73 0 128 -28t93 -73l-61 -41q-27 32 -68.5 52t-91.5 20q-45 0 -84 -16t-67.5 -45t-45 -68.5t-16.5 -87.5q0 -47 16.5 -87.5t45 -69.5t67.5 -45.5t84 -16.5
q51 0 88.5 19t58.5 39v107h-170v66h248v-203q-41 -44 -98.5 -70t-126.5 -26z" />
    <glyph glyph-name="G.smcp.alt1" horiz-adv-x="642" 
d="M338 -12q-61 0 -114 21t-92.5 58.5t-62 90.5t-22.5 117t22.5 117t62.5 90.5t93.5 58.5t115.5 21q73 0 128 -28t93 -73l-61 -41q-27 32 -68.5 52.5t-91.5 20.5q-45 0 -84 -16t-67.5 -45t-45 -69t-16.5 -88q0 -47 16.5 -87.5t45 -69.5t67.5 -45.5t84 -16.5q35 0 66 11
t55.5 32.5t41 52t21.5 69.5h-207v66h290q0 -68 -19.5 -123.5t-54.5 -94.5t-85 -60t-111 -21z" />
    <glyph glyph-name="H.smcp" unicode="&#xf768;" horiz-adv-x="635" 
d="M482 0v248h-329v-248h-78v550h78v-233h329v233h78v-550h-78z" />
    <glyph glyph-name="I.smcp" unicode="&#xf769;" horiz-adv-x="229" 
d="M75 0v550h78v-550h-78z" />
    <glyph glyph-name="J.smcp" unicode="&#xf76a;" horiz-adv-x="422" 
d="M157 -12q-45 0 -82.5 16.5t-66.5 51.5l38 57q18 -23 44.5 -39.5t62.5 -16.5q53 0 84 31t31 82v380h78v-386q0 -45 -14.5 -78t-39.5 -55t-60 -32.5t-75 -10.5z" />
    <glyph glyph-name="K.smcp" unicode="&#xf76b;" horiz-adv-x="534" 
d="M423 0l-216 243l-54 -58v-185h-78v550h78v-275l249 275h97l-242 -261l263 -289h-97z" />
    <glyph glyph-name="L.smcp" unicode="&#xf76c;" horiz-adv-x="458" 
d="M75 0v550h78v-481h267v-69h-345z" />
    <glyph glyph-name="M.smcp" unicode="&#xf76d;" horiz-adv-x="719" 
d="M565 0v432l-188 -432h-34l-190 432v-432h-78v550h107l177 -407l177 407h108v-550h-79z" />
    <glyph glyph-name="N.smcp" unicode="&#xf76e;" horiz-adv-x="632" 
d="M478 0l-325 428v-428h-78v550h82l321 -420v420h79v-550h-79z" />
    <glyph glyph-name="O.smcp" unicode="&#xf76f;" horiz-adv-x="662" 
d="M331 -12q-65 0 -117 22t-89.5 60.5t-57.5 91t-20 113.5t20 113.5t57.5 91t89.5 60.5t117 22q64 0 116 -22t89.5 -60.5t58 -91t20.5 -113.5t-20.5 -113.5t-58 -91t-89.5 -60.5t-116 -22zM331 57q46 0 83.5 16.5t64.5 46t41.5 69t14.5 86.5t-14.5 87t-41.5 69t-64.5 45.5
t-83.5 16.5q-47 0 -84.5 -16.5t-64 -45.5t-41 -69t-14.5 -87t14.5 -86.5t41 -69t64 -46t84.5 -16.5z" />
    <glyph glyph-name="P.smcp" unicode="&#xf770;" horiz-adv-x="522" 
d="M75 0v550h236q45 0 78.5 -13.5t56.5 -36.5t34.5 -53.5t11.5 -64.5t-11.5 -64.5t-34 -54t-56.5 -37t-79 -13.5h-158v-213h-78zM304 282q54 0 80.5 28t26.5 72q0 43 -27 71t-80 28h-151v-199h151z" />
    <glyph glyph-name="Q.smcp" unicode="&#xf771;" horiz-adv-x="662" 
d="M331 -12q-65 0 -117 22t-89.5 60.5t-57.5 91t-20 113.5t20 113.5t57.5 91t89.5 60.5t117 22q64 0 116 -22t89.5 -60.5t58 -91t20.5 -113.5q0 -62 -21 -115t-59 -91l51 -57l-49 -41l-53 58q-32 -20 -70.5 -30.5t-82.5 -10.5zM331 57q58 0 104 26l-76 84l49 42l76 -84
q24 29 37.5 67t13.5 83q0 47 -14.5 87t-41.5 69t-64.5 45.5t-83.5 16.5q-47 0 -84.5 -16.5t-64 -45.5t-41 -69t-14.5 -87t14.5 -86.5t41 -69t64 -46t84.5 -16.5z" />
    <glyph glyph-name="R.smcp" unicode="&#xf772;" horiz-adv-x="545" 
d="M408 0l-144 213h-111v-213h-78v550h236q43 0 77 -13t57 -35.5t35 -53.5t12 -66q0 -72 -41.5 -115t-106.5 -48l156 -219h-92zM304 282q54 0 81 28t27 72t-28 71.5t-80 27.5h-151v-199h151z" />
    <glyph glyph-name="S.smcp" unicode="&#xf773;" horiz-adv-x="504" 
d="M252 -12q-74 0 -130 24t-90 62l42 59q28 -30 74.5 -54t104.5 -24q36 0 62 8t42 21t23.5 30.5t7.5 35.5q0 35 -25 53.5t-62.5 30t-81.5 21.5t-81.5 26.5t-62.5 45t-25 78.5q0 34 15 63t42 50t63.5 32.5t78.5 11.5q67 0 118.5 -21t87.5 -58l-41 -55q-32 34 -76 50t-90 16
q-51 0 -84.5 -24.5t-33.5 -62.5q0 -30 25 -46t62.5 -26.5t81.5 -21t81.5 -28.5t62.5 -49t25 -83q0 -35 -13 -65t-40 -52.5t-67.5 -35t-95.5 -12.5z" />
    <glyph glyph-name="T.smcp" unicode="&#xf774;" horiz-adv-x="472" 
d="M196 0v481h-170v69h419v-69h-171v-481h-78z" />
    <glyph glyph-name="U.smcp" unicode="&#xf775;" horiz-adv-x="623" 
d="M311 -12q-59 0 -103 16t-73.5 45.5t-44.5 70.5t-15 92v338h79v-333q0 -74 40 -117t117 -43t117.5 43t40.5 117v333h79v-338q0 -102 -59.5 -163t-177.5 -61z" />
    <glyph glyph-name="V.smcp" unicode="&#xf776;" 
d="M239 0l-232 550h89l190 -463l192 463h87l-232 -550h-94z" />
    <glyph glyph-name="W.smcp" unicode="&#xf777;" horiz-adv-x="764" 
d="M506 0l-125 431l-124 -431h-82l-165 550h87l123 -443l129 443h66l128 -444l124 444h86l-165 -550h-82z" />
    <glyph glyph-name="X.smcp" unicode="&#xf778;" horiz-adv-x="567" 
d="M464 0l-181 229l-181 -229h-93l224 282l-212 268h94l168 -215l168 215h94l-212 -267l225 -283h-94z" />
    <glyph glyph-name="Y.smcp" unicode="&#xf779;" horiz-adv-x="547" 
d="M236 0v233l-229 317h91l177 -250l174 250h91l-226 -317v-233h-78z" />
    <glyph glyph-name="Z.smcp" unicode="&#xf77a;" horiz-adv-x="516" 
d="M39 0v59l326 422h-326v69h431v-59l-325 -422h332v-69h-438z" />
    <glyph glyph-name="Aacute" unicode="&#xc1;" horiz-adv-x="658" 
d="M554 0l-59 148h-332l-59 -148h-95l268 667h103l269 -667h-95zM329 581l-142 -359h283zM329 723h-57l148 144h78z" />
    <glyph glyph-name="Abreve" unicode="&#x102;" horiz-adv-x="658" 
d="M554 0l-59 148h-332l-59 -148h-95l268 667h103l269 -667h-95zM329 581l-142 -359h283zM504 793q-30 -41 -75.5 -64.5t-99.5 -23.5t-99.5 23.5t-76.5 64.5l37 32q24 -33 59 -52.5t80 -19.5q44 0 79.5 19t58.5 53l37 -32v0z" />
    <glyph glyph-name="Acircumflex" unicode="&#xc2;" horiz-adv-x="658" 
d="M412 723l-83 106l-80 -106h-51l95 144h72l98 -144h-51zM554 0l-59 148h-332l-59 -148h-95l268 667h103l269 -667h-95zM329 581l-142 -359h283z" />
    <glyph glyph-name="Adieresis" unicode="&#xc4;" horiz-adv-x="658" 
d="M480 771q0 -20 -14 -33.5t-33 -13.5t-33 13.5t-14 33.5q0 19 14 32.5t33 13.5t33 -13.5t14 -32.5zM273 771q0 -20 -13.5 -33.5t-32.5 -13.5q-20 0 -33.5 13.5t-13.5 33.5q0 19 13.5 32.5t33.5 13.5q19 0 32.5 -13.5t13.5 -32.5zM554 0l-59 148h-332l-59 -148h-95l268 667
h103l269 -667h-95zM329 581l-142 -359h283z" />
    <glyph glyph-name="Agrave" unicode="&#xc0;" horiz-adv-x="658" 
d="M554 0l-59 148h-332l-59 -148h-95l268 667h103l269 -667h-95zM329 581l-142 -359h283zM329 723l-169 144h78l148 -144h-57z" />
    <glyph glyph-name="Amacron" unicode="&#x100;" horiz-adv-x="658" 
d="M554 0l-59 148h-332l-59 -148h-95l268 667h103l269 -667h-95zM329 581l-142 -359h283zM147 739v48h363v-48h-363z" />
    <glyph glyph-name="Aogonek" unicode="&#x104;" horiz-adv-x="658" 
d="M706 -126q-11 -24 -32 -42t-57 -18q-35 0 -62 20.5t-27 66.5q0 29 14 54t39 45h-27l-59 148h-332l-59 -148h-95l268 667h103l269 -667q-36 -18 -56 -41.5t-20 -55.5q0 -26 12 -38t32 -12q21 0 33 11t19 31zM329 581l-142 -359h283z" />
    <glyph glyph-name="Aring" unicode="&#xc5;" horiz-adv-x="658" 
d="M554 0l-59 148h-332l-59 -148h-95l268 667h103l269 -667h-95zM329 581l-142 -359h283zM329 690q-41 0 -69.5 28.5t-28.5 69.5q0 20 7.5 38t21 31.5t31.5 21.5t38 8t38 -8t31.5 -21.5t21 -31.5t7.5 -38q0 -41 -28.5 -69.5t-69.5 -28.5zM329 729q25 0 41.5 17.5t16.5 41.5
q0 25 -16.5 42t-41.5 17q-24 0 -41 -17t-17 -42q0 -24 17 -41.5t41 -17.5z" />
    <glyph glyph-name="Atilde" unicode="&#xc3;" horiz-adv-x="658" 
d="M554 0l-59 148h-332l-59 -148h-95l268 667h103l269 -667h-95zM329 581l-142 -359h283zM389 721q-27 0 -43 14.5t-28 31.5t-23 31.5t-29 14.5q-20 0 -34 -20.5t-14 -65.5h-45q0 59 24.5 96.5t72.5 37.5q27 0 43 -14.5t27.5 -31.5t23 -31.5t29.5 -14.5q20 0 34 20.5
t14 65.5h45q0 -59 -24.5 -96.5t-72.5 -37.5z" />
    <glyph glyph-name="uni1EA0" unicode="&#x1ea0;" horiz-adv-x="658" 
d="M554 0l-59 148h-332l-59 -148h-95l268 667h103l269 -667h-95zM329 581l-142 -359h283zM329 -183q-19 0 -33 13.5t-14 33.5t14 33.5t33 13.5q20 0 33 -13.5t13 -33.5t-13 -33.5t-33 -13.5z" />
    <glyph glyph-name="uni1EA2" unicode="&#x1ea2;" horiz-adv-x="658" 
d="M554 0l-59 148h-332l-59 -148h-95l268 667h103l269 -667h-95zM329 581l-142 -359h283zM256 765q8 23 26 39t47 16t50.5 -16.5t21.5 -52.5q0 -17 -4.5 -28.5t-14.5 -25.5h-40q13 13 18 26t5 26q0 20 -9.5 29.5t-26.5 9.5q-29 0 -40 -32z" />
    <glyph glyph-name="uni1EA4" unicode="&#x1ea4;" horiz-adv-x="658" 
d="M412 682l-83 79.5l-80 -79.5h-51l95 108h72l98 -108h-51zM554 0l-59 148h-332l-59 -148h-95l268 667h103l269 -667h-95zM329 581l-142 -359h283zM488 736h-57l148 108h78z" />
    <glyph glyph-name="uni1EAC" unicode="&#x1eac;" horiz-adv-x="658" 
d="M554 0l-59 148h-332l-59 -148h-95l268 667h103l269 -667h-95zM329 581l-142 -359h283zM411 723l-83 106l-80 -106h-51l95 144h72l98 -144h-51zM329 -183q-19 0 -33 13.5t-14 33.5t14 33.5t33 13.5q20 0 33 -13.5t13 -33.5t-13 -33.5t-33 -13.5z" />
    <glyph glyph-name="uni1EA6" unicode="&#x1ea6;" horiz-adv-x="658" 
d="M412 682l-83 79.5l-80 -79.5h-51l95 108h72l98 -108h-51zM554 0l-59 148h-332l-59 -148h-95l268 667h103l269 -667h-95zM329 581l-142 -359h283zM172 736l-169 108h78l148 -108h-57z" />
    <glyph glyph-name="uni1EA8" unicode="&#x1ea8;" horiz-adv-x="658" 
d="M412 682l-83 79.5l-80 -79.5h-51l95 108h72l98 -108h-51zM554 0l-59 148h-332l-59 -148h-95l268 667h103l269 -667h-95zM329 581l-142 -359h283zM395 795.25q8 17.25 26 29.25t47 12t50.5 -12.375t21.5 -39.375q0 -12.75 -4.5 -21.375t-14.5 -19.125h-40q13 9.75 18 19.5
t5 19.5q0 15 -9.5 22.125t-26.5 7.125q-29 0 -40 -24z" />
    <glyph glyph-name="uni1EAE" unicode="&#x1eae;" horiz-adv-x="658" 
d="M554 0l-59 148h-332l-59 -148h-95l268 667h103l269 -667h-95zM329 581l-142 -359h283zM328 741.293h-57l148 97.1982h78zM504 760.085q-30 -34.8496 -75.5 -54.8232q-45.5 -19.9746 -99.5 -19.9746t-99.5 19.9746q-45.5 19.9736 -76.5 54.8232l37 27.1992
q24 -28.0498 59 -44.624t80 -16.5742q44 0 79.5 16.1494t58.5 45.0488l37 -27.1992v0z" />
    <glyph glyph-name="uni1EAA" unicode="&#x1eaa;" horiz-adv-x="658" 
d="M412 678l-83 53l-80 -53h-51l95 72h72l98 -72h-51zM554 0l-59 148h-332l-59 -148h-95l268 667h103l269 -667h-95zM329 581l-142 -359h283zM388 757q-27 0 -43 7.25t-28 15.75t-23 15.75t-29 7.25q-20 0 -34 -10.25t-14 -32.75h-45q0 29.5 24.5 48.25t72.5 18.75
q27 0 43 -7.25t27.5 -15.75t23 -15.75t29.5 -7.25q20 0 34 10.25t14 32.75h45q0 -29.5 -24.5 -48.25t-72.5 -18.75z" />
    <glyph glyph-name="uni1EB0" unicode="&#x1eb0;" horiz-adv-x="658" 
d="M554 0l-59 148h-332l-59 -148h-95l268 667h103l269 -667h-95zM329 581l-142 -359h283zM331 741.293l-169 97.1982h78l148 -97.1982h-57zM504 757.085q-30 -34.8496 -75.5 -54.8232q-45.5 -19.9746 -99.5 -19.9746t-99.5 19.9746q-45.5 19.9736 -76.5 54.8232l37 27.1992
q24 -28.0498 59 -44.624t80 -16.5742q44 0 79.5 16.1494t58.5 45.0488l37 -27.1992v0z" />
    <glyph glyph-name="uni1EB2" unicode="&#x1eb2;" horiz-adv-x="658" 
d="M554 0l-59 148h-332l-59 -148h-95l268 667h103l269 -667h-95zM329 581l-142 -359h283zM256 790.116q8 15.5244 26 26.3242t47 10.7998t50.5 -11.1367q21.5 -11.1377 21.5 -35.4375q0 -11.4746 -4.5 -19.2373q-4.5 -7.76172 -14.5 -17.2119h-40q13 8.77539 18 17.5498
t5 17.5498q0 13.5 -9.5 19.9121t-26.5 6.41211q-29 0 -40 -21.5996zM504 759.085q-30 -34.8496 -75.5 -54.8232q-45.5 -19.9746 -99.5 -19.9746t-99.5 19.9746q-45.5 19.9736 -76.5 54.8232l37 27.1992q24 -28.0498 59 -44.624t80 -16.5742q44 0 79.5 16.1494t58.5 45.0488
l37 -27.1992v0z" />
    <glyph glyph-name="uni1EB4" unicode="&#x1eb4;" horiz-adv-x="658" 
d="M554 0l-59 148h-332l-59 -148h-95l268 667h103l269 -667h-95zM329 581l-142 -359h283zM505 733.111q-30 -25.0918 -75.5 -39.4736t-99.5 -14.3818t-99.5 14.3818t-76.5 39.4736l37 19.584q24 -20.1953 59 -32.1299q35 -11.9336 80 -11.9336q44 0 79.5 11.6279
t58.5 32.4355l37 -19.584v0zM388 757q-27 0 -43 7.25t-28 15.75t-23 15.75t-29 7.25q-20 0 -34 -10.25t-14 -32.75h-45q0 29.5 24.5 48.25t72.5 18.75q27 0 43 -7.25t27.5 -15.75t23 -15.75t29.5 -7.25q20 0 34 10.25t14 32.75h45q0 -29.5 -24.5 -48.25t-72.5 -18.75z" />
    <glyph glyph-name="uni1EB6" unicode="&#x1eb6;" horiz-adv-x="658" 
d="M554 0l-59 148h-332l-59 -148h-95l268 667h103l269 -667h-95zM329 581l-142 -359h283zM329 -183q-19 0 -33 13.5t-14 33.5t14 33.5t33 13.5q20 0 33 -13.5t13 -33.5t-13 -33.5t-33 -13.5zM504 793q-30 -41 -75.5 -64.5t-99.5 -23.5t-99.5 23.5t-76.5 64.5l37 32
q24 -33 59 -52.5t80 -19.5q44 0 79.5 19t58.5 53l37 -32v0z" />
    <glyph glyph-name="AE" unicode="&#xc6;" horiz-adv-x="947" 
d="M456 0v148h-263l-91 -148h-95l416 667h470v-74h-354v-215h347v-74h-347v-230h354v-74h-437zM456 581l-222 -359h222v359z" />
    <glyph glyph-name="AEacute" unicode="&#x1fc;" horiz-adv-x="947" 
d="M499 723h-57l148 144h78zM456 0v148h-263l-91 -148h-95l416 667h470v-74h-354v-215h347v-74h-347v-230h354v-74h-437zM456 581l-222 -359h222v359z" />
    <glyph glyph-name="uni1E02" unicode="&#x1e02;" horiz-adv-x="629" 
d="M78 0v667h297q43 0 78 -12.5t59 -35t37 -54t13 -68.5q0 -32 -9.5 -58t-26 -45.5t-37.5 -32t-44 -17.5q27 -4 50.5 -19t41 -37t28 -50t10.5 -58q0 -40 -13 -73t-38 -57t-60.5 -37t-81.5 -13h-304zM361 378q57 0 86 30.5t29 76.5q0 45 -29 76.5t-86 31.5h-200v-215h200z
M365 74q59 0 91.5 30.5t32.5 84.5q0 23 -8 44t-23.5 36.5t-38.5 25t-54 9.5h-204v-230h204zM314 722q-19 0 -33 13.5t-14 33.5t14 33.5t33 13.5q20 0 33 -13.5t13 -33.5t-13 -33.5t-33 -13.5z" />
    <glyph glyph-name="Cacute" unicode="&#x106;" horiz-adv-x="676" 
d="M394 723h-57l148 144h78zM394 -12q-72 0 -134.5 25t-109 70.5t-73 109t-26.5 140.5t26.5 140.5t73 109t109 70.5t134.5 25q44 0 81.5 -10t69 -28t57 -42t45.5 -52l-70 -39q-29 42 -77.5 69.5t-105.5 27.5q-55 0 -102 -20t-81.5 -56t-54 -85.5t-19.5 -109.5
q0 -59 19.5 -109t54 -86t81.5 -56t102 -20q57 0 105.5 27t77.5 70l71 -39q-42 -57 -103.5 -94.5t-150.5 -37.5z" />
    <glyph glyph-name="Ccedilla" unicode="&#xc7;" horiz-adv-x="676" 
d="M388 -187q-32 0 -59 9t-42 21l19 38q18 -15 39 -22t41 -7q24 0 42.5 11t18.5 31q0 16 -9 25.5t-28 9.5q-23 0 -38 -17l-33 19l21 59q-66 6 -122.5 33t-98 72t-65 105.5t-23.5 132.5q0 77 26.5 140.5t73 109t109 70.5t134.5 25q44 0 81.5 -10t69 -28t57 -42t45.5 -52
l-70 -39q-29 42 -77.5 69.5t-105.5 27.5q-55 0 -102 -20t-81.5 -56t-54 -85.5t-19.5 -109.5q0 -59 19.5 -109t54 -86t81.5 -56t102 -20q57 0 105.5 27t77.5 70l71 -39q-21 -28 -45.5 -51.5t-54.5 -41t-66 -28t-78 -11.5l-15 -39q16 11 37 11q29 0 47.5 -18t18.5 -49
q0 -37 -30.5 -58.5t-73.5 -21.5z" />
    <glyph glyph-name="Ccircumflex" unicode="&#x108;" horiz-adv-x="676" 
d="M475 723l-83 106l-80 -106h-51l95 144h72l98 -144h-51zM394 -12q-72 0 -134.5 25t-109 70.5t-73 109t-26.5 140.5t26.5 140.5t73 109t109 70.5t134.5 25q44 0 81.5 -10t69 -28t57 -42t45.5 -52l-70 -39q-29 42 -77.5 69.5t-105.5 27.5q-55 0 -102 -20t-81.5 -56
t-54 -85.5t-19.5 -109.5q0 -59 19.5 -109t54 -86t81.5 -56t102 -20q57 0 105.5 27t77.5 70l71 -39q-42 -57 -103.5 -94.5t-150.5 -37.5z" />
    <glyph glyph-name="Cdotaccent" unicode="&#x10a;" horiz-adv-x="676" 
d="M394 -12q-72 0 -134.5 25t-109 70.5t-73 109t-26.5 140.5t26.5 140.5t73 109t109 70.5t134.5 25q44 0 81.5 -10t69 -28t57 -42t45.5 -52l-70 -39q-29 42 -77.5 69.5t-105.5 27.5q-55 0 -102 -20t-81.5 -56t-54 -85.5t-19.5 -109.5q0 -59 19.5 -109t54 -86t81.5 -56
t102 -20q57 0 105.5 27t77.5 70l71 -39q-42 -57 -103.5 -94.5t-150.5 -37.5zM396 722q-19 0 -33 13.5t-14 33.5t14 33.5t33 13.5q20 0 33 -13.5t13 -33.5t-13 -33.5t-33 -13.5z" />
    <glyph glyph-name="Ccaron" unicode="&#x10c;" horiz-adv-x="676" 
d="M359 723l-98 144h51l83 -106l80 106h51l-95 -144h-72zM394 -12q-72 0 -134.5 25t-109 70.5t-73 109t-26.5 140.5t26.5 140.5t73 109t109 70.5t134.5 25q44 0 81.5 -10t69 -28t57 -42t45.5 -52l-70 -39q-29 42 -77.5 69.5t-105.5 27.5q-55 0 -102 -20t-81.5 -56t-54 -85.5
t-19.5 -109.5q0 -59 19.5 -109t54 -86t81.5 -56t102 -20q57 0 105.5 27t77.5 70l71 -39q-42 -57 -103.5 -94.5t-150.5 -37.5z" />
    <glyph glyph-name="Dcaron" unicode="&#x10e;" horiz-adv-x="700" 
d="M317 723l-98 144h51l83 -106l80 106h51l-95 -144h-72zM78 0v667h228q78 0 141 -25.5t107.5 -70.5t69 -106t24.5 -132t-24.5 -132t-69 -105.5t-107.5 -70t-141 -25.5h-228zM306 74q61 0 108.5 20.5t80.5 55.5t50 82t17 101t-17 101.5t-49.5 82.5t-80 55.5t-109.5 20.5
h-145v-519h145z" />
    <glyph glyph-name="Dcroat" unicode="&#x110;" horiz-adv-x="728" 
d="M106 0v299h-96v61h96v307h228q78 0 141 -25.5t107.5 -70.5t69 -106t24.5 -132t-24.5 -132t-69 -105.5t-107.5 -70t-141 -25.5h-228zM334 74q61 0 108.5 20.5t80.5 55.5t50 82t17 101t-17 101.5t-49.5 82.5t-80 55.5t-109.5 20.5h-145v-233h169v-61h-169v-225h145z" />
    <glyph glyph-name="uni1E0A" unicode="&#x1e0a;" horiz-adv-x="700" 
d="M78 0v667h228q78 0 141 -25.5t107.5 -70.5t69 -106t24.5 -132t-24.5 -132t-69 -105.5t-107.5 -70t-141 -25.5h-228zM306 74q61 0 108.5 20.5t80.5 55.5t50 82t17 101t-17 101.5t-49.5 82.5t-80 55.5t-109.5 20.5h-145v-519h145zM350 722q-19 0 -33 13.5t-14 33.5t14 33.5
t33 13.5q20 0 33 -13.5t13 -33.5t-13 -33.5t-33 -13.5z" />
    <glyph glyph-name="Eacute" unicode="&#xc9;" horiz-adv-x="569" 
d="M296 723h-57l148 144h78zM78 0v667h437v-74h-354v-215h347v-74h-347v-230h354v-74h-437z" />
    <glyph glyph-name="Ebreve" unicode="&#x114;" horiz-adv-x="569" 
d="M78 0v667h437v-74h-354v-215h347v-74h-347v-230h354v-74h-437zM473 793q-30 -41 -75.5 -64.5t-99.5 -23.5t-99.5 23.5t-76.5 64.5l37 32q24 -33 59 -52.5t80 -19.5q44 0 79.5 19t58.5 53l37 -32v0z" />
    <glyph glyph-name="Ecircumflex" unicode="&#xca;" horiz-adv-x="569" 
d="M377 723l-83 106l-80 -106h-51l95 144h72l98 -144h-51zM78 0v667h437v-74h-354v-215h347v-74h-347v-230h354v-74h-437z" />
    <glyph glyph-name="Edieresis" unicode="&#xcb;" horiz-adv-x="569" 
d="M446 771q0 -20 -14 -33.5t-33 -13.5t-33 13.5t-14 33.5q0 19 14 32.5t33 13.5t33 -13.5t14 -32.5zM239 771q0 -20 -13.5 -33.5t-32.5 -13.5q-20 0 -33.5 13.5t-13.5 33.5q0 19 13.5 32.5t33.5 13.5q19 0 32.5 -13.5t13.5 -32.5zM78 0v667h437v-74h-354v-215h347v-74h-347
v-230h354v-74h-437z" />
    <glyph glyph-name="Edotaccent" unicode="&#x116;" horiz-adv-x="569" 
d="M78 0v667h437v-74h-354v-215h347v-74h-347v-230h354v-74h-437zM300 722q-19 0 -33 13.5t-14 33.5t14 33.5t33 13.5q20 0 33 -13.5t13 -33.5t-13 -33.5t-33 -13.5z" />
    <glyph glyph-name="Egrave" unicode="&#xc8;" horiz-adv-x="569" 
d="M78 0v667h437v-74h-354v-215h347v-74h-347v-230h354v-74h-437zM296 723l-169 144h78l148 -144h-57z" />
    <glyph glyph-name="Emacron" unicode="&#x112;" horiz-adv-x="569" 
d="M78 0v667h437v-74h-354v-215h347v-74h-347v-230h354v-74h-437zM114 739v48h363v-48h-363z" />
    <glyph glyph-name="Eogonek" unicode="&#x118;" horiz-adv-x="569" 
d="M515 0q-36 -18 -56 -41.5t-20 -55.5q0 -26 12 -38t32 -12q21 0 33 11t19 31l37 -21q-11 -24 -32 -42t-57 -18q-35 0 -62 20.5t-27 66.5q0 29 14 54t39 45h-369v667h437v-74h-354v-215h347v-74h-347v-230h354v-74v0z" />
    <glyph glyph-name="Ecaron" unicode="&#x11a;" horiz-adv-x="569" 
d="M263 723l-98 144h51l83 -106l80 106h51l-95 -144h-72zM78 0v667h437v-74h-354v-215h347v-74h-347v-230h354v-74h-437z" />
    <glyph glyph-name="uni1EB8" unicode="&#x1eb8;" horiz-adv-x="569" 
d="M78 0v667h437v-74h-354v-215h347v-74h-347v-230h354v-74h-437zM300 -183q-19 0 -33 13.5t-14 33.5t14 33.5t33 13.5q20 0 33 -13.5t13 -33.5t-13 -33.5t-33 -13.5z" />
    <glyph glyph-name="uni1EBA" unicode="&#x1eba;" horiz-adv-x="569" 
d="M78 0v667h437v-74h-354v-215h347v-74h-347v-230h354v-74h-437zM219 765q8 23 26 39t47 16t50.5 -16.5t21.5 -52.5q0 -17 -4.5 -28.5t-14.5 -25.5h-40q13 13 18 26t5 26q0 20 -9.5 29.5t-26.5 9.5q-29 0 -40 -32z" />
    <glyph glyph-name="uni1EBC" unicode="&#x1ebc;" horiz-adv-x="569" 
d="M78 0v667h437v-74h-354v-215h347v-74h-347v-230h354v-74h-437zM357 721q-27 0 -43 14.5t-28 31.5t-23 31.5t-29 14.5q-20 0 -34 -20.5t-14 -65.5h-45q0 59 24.5 96.5t72.5 37.5q27 0 43 -14.5t27.5 -31.5t23 -31.5t29.5 -14.5q20 0 34 20.5t14 65.5h45q0 -59 -24.5 -96.5
t-72.5 -37.5z" />
    <glyph glyph-name="uni1EBE" unicode="&#x1ebe;" horiz-adv-x="569" 
d="M383 682l-83 79.5l-80 -79.5h-51l95 108h72l98 -108h-51zM459 736h-57l148 108h78zM78 0v667h437v-74h-354v-215h347v-74h-347v-230h354v-74h-437z" />
    <glyph glyph-name="uni1EC0" unicode="&#x1ec0;" horiz-adv-x="569" 
d="M382 682l-83 79.5l-80 -79.5h-51l95 108h72l98 -108h-51zM78 0v667h437v-74h-354v-215h347v-74h-347v-230h354v-74h-437zM143 736l-169 108h78l148 -108h-57z" />
    <glyph glyph-name="uni1EC2" unicode="&#x1ec2;" horiz-adv-x="569" 
d="M383 682l-83 79.5l-80 -79.5h-51l95 108h72l98 -108h-51zM78 0v667h437v-74h-354v-215h347v-74h-347v-230h354v-74h-437zM366 795.25q8 17.25 26 29.25t47 12t50.5 -12.375t21.5 -39.375q0 -12.75 -4.5 -21.375t-14.5 -19.125h-40q13 9.75 18 19.5t5 19.5
q0 15 -9.5 22.125t-26.5 7.125q-29 0 -40 -24z" />
    <glyph glyph-name="uni1EC4" unicode="&#x1ec4;" horiz-adv-x="569" 
d="M383 678l-83 53l-80 -53h-51l95 72h72l98 -72h-51zM78 0v667h437v-74h-354v-215h347v-74h-347v-230h354v-74h-437zM359 757q-27 0 -43 7.25t-28 15.75t-23 15.75t-29 7.25q-20 0 -34 -10.25t-14 -32.75h-45q0 29.5 24.5 48.25t72.5 18.75q27 0 43 -7.25t27.5 -15.75
t23 -15.75t29.5 -7.25q20 0 34 10.25t14 32.75h45q0 -29.5 -24.5 -48.25t-72.5 -18.75z" />
    <glyph glyph-name="uni1EC6" unicode="&#x1ec6;" horiz-adv-x="569" 
d="M377 723l-83 106l-80 -106h-51l95 144h72l98 -144h-51zM78 0v667h437v-74h-354v-215h347v-74h-347v-230h354v-74h-437zM300 -183q-19 0 -33 13.5t-14 33.5t14 33.5t33 13.5q20 0 33 -13.5t13 -33.5t-13 -33.5t-33 -13.5z" />
    <glyph glyph-name="uni1E1E" unicode="&#x1e1e;" horiz-adv-x="550" 
d="M297 722q-19 0 -33 13.5t-14 33.5t14 33.5t33 13.5q20 0 33 -13.5t13 -33.5t-13 -33.5t-33 -13.5zM78 0v667h437v-74h-354v-215h347v-74h-347v-304h-83z" />
    <glyph glyph-name="Gcircumflex" unicode="&#x11c;" horiz-adv-x="713" 
d="M480 723l-83 106l-80 -106h-51l95 144h72l98 -144h-51zM394 -13q-71 0 -133.5 25t-109 70.5t-73.5 109t-27 141.5t27 141.5t73.5 108.5t109 70t133.5 25q89 0 151.5 -35t107.5 -90l-66 -41q-32 41 -82.5 66.5t-110.5 25.5q-55 0 -102 -20t-81.5 -56t-54 -85.5
t-19.5 -109.5q0 -59 19.5 -109t54 -86t81.5 -56.5t102 -20.5q30 0 57 6.5t50 17t41.5 23.5t30.5 25v136h-229v74h312v-241q-47 -52 -113.5 -83.5t-148.5 -31.5z" />
    <glyph glyph-name="Gbreve" unicode="&#x11e;" horiz-adv-x="713" 
d="M394 -13q-71 0 -133.5 25t-109 70.5t-73.5 109t-27 141.5t27 141.5t73.5 108.5t109 70t133.5 25q89 0 151.5 -35t107.5 -90l-66 -41q-32 41 -82.5 66.5t-110.5 25.5q-55 0 -102 -20t-81.5 -56t-54 -85.5t-19.5 -109.5q0 -59 19.5 -109t54 -86t81.5 -56.5t102 -20.5
q30 0 57 6.5t50 17t41.5 23.5t30.5 25v136h-229v74h312v-241q-47 -52 -113.5 -83.5t-148.5 -31.5zM572 793q-30 -41 -75.5 -64.5t-99.5 -23.5t-99.5 23.5t-76.5 64.5l37 32q24 -33 59 -52.5t80 -19.5q44 0 79.5 19t58.5 53l37 -32v0z" />
    <glyph glyph-name="Gdotaccent" unicode="&#x120;" horiz-adv-x="713" 
d="M394 -13q-71 0 -133.5 25t-109 70.5t-73.5 109t-27 141.5t27 141.5t73.5 108.5t109 70t133.5 25q89 0 151.5 -35t107.5 -90l-66 -41q-32 41 -82.5 66.5t-110.5 25.5q-55 0 -102 -20t-81.5 -56t-54 -85.5t-19.5 -109.5q0 -59 19.5 -109t54 -86t81.5 -56.5t102 -20.5
q30 0 57 6.5t50 17t41.5 23.5t30.5 25v136h-229v74h312v-241q-47 -52 -113.5 -83.5t-148.5 -31.5zM396 722q-19 0 -33 13.5t-14 33.5t14 33.5t33 13.5q20 0 33 -13.5t13 -33.5t-13 -33.5t-33 -13.5z" />
    <glyph glyph-name="Gcommaaccent" unicode="&#x122;" horiz-adv-x="713" 
d="M448 -138q0 -41 -21 -76.5t-50 -57.5l-33 26q23 15 39.5 39.5t18.5 46.5q-1 -1 -5 -1.5t-6 -0.5q-18 0 -30 12.5t-12 31.5q0 20 13 33.5t33 13.5q21 0 37 -17.5t16 -49.5zM394 -13q-71 0 -133.5 25t-109 70.5t-73.5 109t-27 141.5t27 141.5t73.5 108.5t109 70t133.5 25
q89 0 151.5 -35t107.5 -90l-66 -41q-32 41 -82.5 66.5t-110.5 25.5q-55 0 -102 -20t-81.5 -56t-54 -85.5t-19.5 -109.5q0 -59 19.5 -109t54 -86t81.5 -56.5t102 -20.5q30 0 57 6.5t50 17t41.5 23.5t30.5 25v136h-229v74h312v-241q-47 -52 -113.5 -83.5t-148.5 -31.5z" />
    <glyph glyph-name="Gbreve.alt1" horiz-adv-x="742" 
d="M572 793q-30 -41 -75.5 -64.5t-99.5 -23.5t-99.5 23.5t-76.5 64.5l37 32q24 -33 59 -52.5t80 -19.5q44 0 79.5 19t58.5 53l37 -32v0zM388 -13q-69 0 -130.5 25t-107 70.5t-72.5 109t-27 141.5t27 141.5t73.5 108.5t109 70t133.5 25q89 0 151.5 -35t107.5 -90l-66 -41
q-32 41 -82.5 66.5t-110.5 25.5q-55 0 -102 -20t-81.5 -56t-54 -85.5t-19.5 -109.5q0 -59 19.5 -109t54 -86t81.5 -56.5t102 -20.5q51 0 90.5 17t67 45.5t44 66.5t22.5 79h-274v74h364q0 -78 -21 -143.5t-62 -113t-100.5 -73.5t-136.5 -26z" />
    <glyph glyph-name="Gcommaaccent.alt1" horiz-adv-x="742" 
d="M448 -138q0 -41 -21 -76.5t-50 -57.5l-33 26q23 15 39.5 39.5t18.5 46.5q-1 -1 -5 -1.5t-6 -0.5q-18 0 -30 12.5t-12 31.5q0 20 13 33.5t33 13.5q21 0 37 -17.5t16 -49.5zM388 -13q-69 0 -130.5 25t-107 70.5t-72.5 109t-27 141.5t27 141.5t73.5 108.5t109 70t133.5 25
q89 0 151.5 -35t107.5 -90l-66 -41q-32 41 -82.5 66.5t-110.5 25.5q-55 0 -102 -20t-81.5 -56t-54 -85.5t-19.5 -109.5q0 -59 19.5 -109t54 -86t81.5 -56.5t102 -20.5q51 0 90.5 17t67 45.5t44 66.5t22.5 79h-274v74h364q0 -78 -21 -143.5t-62 -113t-100.5 -73.5t-136.5 -26
z" />
    <glyph glyph-name="Gcircumflex.alt1" horiz-adv-x="742" 
d="M475 723l-83 106l-80 -106h-51l95 144h72l98 -144h-51zM388 -13q-69 0 -130.5 25t-107 70.5t-72.5 109t-27 141.5t27 141.5t73.5 108.5t109 70t133.5 25q89 0 151.5 -35t107.5 -90l-66 -41q-32 41 -82.5 66.5t-110.5 25.5q-55 0 -102 -20t-81.5 -56t-54 -85.5
t-19.5 -109.5q0 -59 19.5 -109t54 -86t81.5 -56.5t102 -20.5q51 0 90.5 17t67 45.5t44 66.5t22.5 79h-274v74h364q0 -78 -21 -143.5t-62 -113t-100.5 -73.5t-136.5 -26z" />
    <glyph glyph-name="Gdotaccent.alt1" horiz-adv-x="742" 
d="M392 722q-19 0 -33 13.5t-14 33.5t14 33.5t33 13.5q20 0 33 -13.5t13 -33.5t-13 -33.5t-33 -13.5zM388 -13q-69 0 -130.5 25t-107 70.5t-72.5 109t-27 141.5t27 141.5t73.5 108.5t109 70t133.5 25q89 0 151.5 -35t107.5 -90l-66 -41q-32 41 -82.5 66.5t-110.5 25.5
q-55 0 -102 -20t-81.5 -56t-54 -85.5t-19.5 -109.5q0 -59 19.5 -109t54 -86t81.5 -56.5t102 -20.5q51 0 90.5 17t67 45.5t44 66.5t22.5 79h-274v74h364q0 -78 -21 -143.5t-62 -113t-100.5 -73.5t-136.5 -26z" />
    <glyph glyph-name="Hbar" unicode="&#x126;" horiz-adv-x="731" 
d="M561 0v306h-390v-306h-83v498h-78v48h78v121h83v-121h390v121h83v-121h77v-48h-77v-498h-83zM561 380v118h-390v-118h390z" />
    <glyph glyph-name="Hcircumflex" unicode="&#x124;" horiz-adv-x="712" 
d="M435 723l-83 106l-80 -106h-51l95 144h72l98 -144h-51zM551 0v306h-390v-306h-83v667h83v-287h390v287h83v-667h-83z" />
    <glyph glyph-name="uni1E22" unicode="&#x1e22;" horiz-adv-x="712" 
d="M551 0v306h-390v-306h-83v667h83v-287h390v287h83v-667h-83zM355 722q-19 0 -33 13.5t-14 33.5t14 33.5t33 13.5q20 0 33 -13.5t13 -33.5t-13 -33.5t-33 -13.5z" />
    <glyph glyph-name="Iacute" unicode="&#xcd;" horiz-adv-x="239" 
d="M78 0v667h83v-667h-83zM120 723h-57l148 144h78z" />
    <glyph glyph-name="Ibreve" unicode="&#x12c;" horiz-adv-x="239" 
d="M78 0v667h83v-667h-83zM297 793q-30 -41 -75.5 -64.5t-99.5 -23.5t-99.5 23.5t-76.5 64.5l37 32q24 -33 59 -52.5t80 -19.5q44 0 79.5 19t58.5 53l37 -32v0z" />
    <glyph glyph-name="Icircumflex" unicode="&#xce;" horiz-adv-x="239" 
d="M203 723l-83 106l-80 -106h-51l95 144h72l98 -144h-51zM78 0v667h83v-667h-83z" />
    <glyph glyph-name="Idieresis" unicode="&#xcf;" horiz-adv-x="239" 
d="M271 771q0 -20 -14 -33.5t-33 -13.5t-33 13.5t-14 33.5q0 19 14 32.5t33 13.5t33 -13.5t14 -32.5zM64 771q0 -20 -13.5 -33.5t-32.5 -13.5q-20 0 -33.5 13.5t-13.5 33.5q0 19 13.5 32.5t33.5 13.5q19 0 32.5 -13.5t13.5 -32.5zM78 0v667h83v-667h-83z" />
    <glyph glyph-name="Idotaccent" unicode="&#x130;" horiz-adv-x="239" 
d="M78 0v667h83v-667h-83zM120 722q-19 0 -33 13.5t-14 33.5t14 33.5t33 13.5q20 0 33 -13.5t13 -33.5t-13 -33.5t-33 -13.5z" />
    <glyph glyph-name="Igrave" unicode="&#xcc;" horiz-adv-x="239" 
d="M78 0v667h83v-667h-83zM120 723l-169 144h78l148 -144h-57z" />
    <glyph glyph-name="Imacron" unicode="&#x12a;" horiz-adv-x="239" 
d="M78 0v667h83v-667h-83zM-60 739v48h363v-48h-363z" />
    <glyph glyph-name="Iogonek" unicode="&#x12e;" horiz-adv-x="239" 
d="M218 -126q-11 -24 -32 -42t-57 -18q-35 0 -62 20.5t-27 66.5q0 29 14 54t39 45h-15v667h83v-667q-36 -18 -56 -41.5t-20 -55.5q0 -26 12 -38t32 -12q21 0 33 11t19 31z" />
    <glyph glyph-name="Itilde" unicode="&#x128;" horiz-adv-x="239" 
d="M78 0v667h83v-667h-83zM180 721q-27 0 -43 14.5t-28 31.5t-23 31.5t-29 14.5q-20 0 -34 -20.5t-14 -65.5h-45q0 59 24.5 96.5t72.5 37.5q27 0 43 -14.5t27.5 -31.5t23 -31.5t29.5 -14.5q20 0 34 20.5t14 65.5h45q0 -59 -24.5 -96.5t-72.5 -37.5z" />
    <glyph glyph-name="uni1EC8" unicode="&#x1ec8;" horiz-adv-x="239" 
d="M78 0v667h83v-667h-83zM47 765q8 23 26 39t47 16t50.5 -16.5t21.5 -52.5q0 -17 -4.5 -28.5t-14.5 -25.5h-40q13 13 18 26t5 26q0 20 -9.5 29.5t-26.5 9.5q-29 0 -40 -32z" />
    <glyph glyph-name="uni1ECA" unicode="&#x1eca;" horiz-adv-x="239" 
d="M78 0v667h83v-667h-83zM120 -183q-19 0 -33 13.5t-14 33.5t14 33.5t33 13.5q20 0 33 -13.5t13 -33.5t-13 -33.5t-33 -13.5z" />
    <glyph glyph-name="IJ" unicode="&#x132;" horiz-adv-x="713" 
d="M78 0v667h83v-667h-83zM424 -12q-54 0 -96.5 18t-77.5 59l43 63q22 -26 52 -46t74 -20q62 0 98 38.5t36 101.5v465h83v-466q0 -54 -16.5 -94.5t-45 -66.5t-67 -39t-83.5 -13z" />
    <glyph glyph-name="Jcircumflex" unicode="&#x134;" horiz-adv-x="475" 
d="M437 723l-83 106l-80 -106h-51l95 144h72l98 -144h-51zM185 -12q-54 0 -96.5 18t-77.5 59l43 63q22 -26 52 -46t74 -20q62 0 98 38.5t36 101.5v465h83v-466q0 -54 -16.5 -94.5t-45 -66.5t-67 -39t-83.5 -13z" />
    <glyph glyph-name="Kcommaaccent" unicode="&#x136;" horiz-adv-x="606" 
d="M360 -138q0 -41 -21 -76.5t-50 -57.5l-33 26q23 15 39.5 39.5t18.5 46.5q-1 -1 -5 -1.5t-6 -0.5q-18 0 -30 12.5t-12 31.5q0 20 13 33.5t33 13.5q21 0 37 -17.5t16 -49.5zM481 0l-253 300l-67 -76v-224h-83v667h83v-345l295 345h104l-278 -317l302 -350h-103z" />
    <glyph glyph-name="Lacute" unicode="&#x139;" horiz-adv-x="510" 
d="M274 723h-57l148 144h78zM78 0v667h83v-593h310v-74h-393z" />
    <glyph glyph-name="Lcaron" unicode="&#x13d;" horiz-adv-x="510" 
d="M354 613q0 -41 -21 -76.5t-50 -57.5l-33 26q23 15 39.5 39.5t18.5 46.5q-1 -1 -5 -1.5t-6 -0.5q-18 0 -30 12.5t-12 31.5q0 20 13 33.5t33 13.5q21 0 37 -17.5t16 -49.5zM78 0v667h83v-593h310v-74h-393z" />
    <glyph glyph-name="Lcommaaccent" unicode="&#x13b;" horiz-adv-x="510" 
d="M319 -138q0 -41 -21 -76.5t-50 -57.5l-33 26q23 15 39.5 39.5t18.5 46.5q-1 -1 -5 -1.5t-6 -0.5q-18 0 -30 12.5t-12 31.5q0 20 13 33.5t33 13.5q21 0 37 -17.5t16 -49.5zM78 0v667h83v-593h310v-74h-393z" />
    <glyph glyph-name="Ldot" unicode="&#x13f;" horiz-adv-x="510" 
d="M78 0v667h83v-593h310v-74h-393zM424 341q0 -22 -16 -38t-39 -16t-39 16t-16 38q0 23 16 39t39 16t39 -16t16 -39z" />
    <glyph glyph-name="Lslash" unicode="&#x141;" horiz-adv-x="529" 
d="M10 293l87 50v324h83v-276l97 56v-72l-97 -56v-245h310v-74h-393v271l-87 -50v72z" />
    <glyph glyph-name="Nacute" unicode="&#x143;" horiz-adv-x="708" 
d="M362 723h-57l148 144h78zM550 0l-389 532v-532h-83v667h85l384 -521v521h83v-667h-80z" />
    <glyph glyph-name="Ncaron" unicode="&#x147;" horiz-adv-x="708" 
d="M318 723l-98 144h51l83 -106l80 106h51l-95 -144h-72zM550 0l-389 532v-532h-83v667h85l384 -521v521h83v-667h-80z" />
    <glyph glyph-name="Ncommaaccent" unicode="&#x145;" horiz-adv-x="708" 
d="M411 -138q0 -41 -21 -76.5t-50 -57.5l-33 26q23 15 39.5 39.5t18.5 46.5q-1 -1 -5 -1.5t-6 -0.5q-18 0 -30 12.5t-12 31.5q0 20 13 33.5t33 13.5q21 0 37 -17.5t16 -49.5zM550 0l-389 532v-532h-83v667h85l384 -521v521h83v-667h-80z" />
    <glyph glyph-name="Ntilde" unicode="&#xd1;" horiz-adv-x="708" 
d="M412 721q-27 0 -43 14.5t-28 31.5t-23 31.5t-29 14.5q-20 0 -34 -20.5t-14 -65.5h-45q0 59 24.5 96.5t72.5 37.5q27 0 43 -14.5t27.5 -31.5t23 -31.5t29.5 -14.5q20 0 34 20.5t14 65.5h45q0 -59 -24.5 -96.5t-72.5 -37.5zM550 0l-389 532v-532h-83v667h85l384 -521v521
h83v-667h-80z" />
    <glyph glyph-name="Eng" unicode="&#x14a;" horiz-adv-x="708" 
d="M418 -196q-53 0 -96 18t-78 59l44 63q21 -26 51 -46t74 -20q59 0 94.5 34.5t38.5 91.5l-385 528v-532h-83v667h85l384 -521v521h83v-652q0 -54 -16.5 -94t-45 -66t-67 -38.5t-83.5 -12.5z" />
    <glyph glyph-name="Oacute" unicode="&#xd3;" horiz-adv-x="765" 
d="M383 723h-57l148 144h78zM382 -12q-74 0 -135 26t-104.5 72.5t-67.5 109.5t-24 137t24 137t67.5 109.5t104.5 72.5t135 26t135 -26t104.5 -72.5t67.5 -109.5t24 -137t-24 -137t-67.5 -109.5t-104.5 -72.5t-135 -26zM382 62q56 0 101 20.5t77 57t49.5 86t17.5 107.5
t-17.5 108t-49.5 86t-77 56.5t-101 20.5t-101.5 -20.5t-77.5 -56.5t-49 -86t-17 -108t17 -107.5t49 -86t77.5 -57t101.5 -20.5z" />
    <glyph glyph-name="Obreve" unicode="&#x14e;" horiz-adv-x="765" 
d="M382 -12q-74 0 -135 26t-104.5 72.5t-67.5 109.5t-24 137t24 137t67.5 109.5t104.5 72.5t135 26t135 -26t104.5 -72.5t67.5 -109.5t24 -137t-24 -137t-67.5 -109.5t-104.5 -72.5t-135 -26zM382 62q56 0 101 20.5t77 57t49.5 86t17.5 107.5t-17.5 108t-49.5 86t-77 56.5
t-101 20.5t-101.5 -20.5t-77.5 -56.5t-49 -86t-17 -108t17 -107.5t49 -86t77.5 -57t101.5 -20.5zM557 793q-30 -41 -75.5 -64.5t-99.5 -23.5t-99.5 23.5t-76.5 64.5l37 32q24 -33 59 -52.5t80 -19.5q44 0 79.5 19t58.5 53l37 -32v0z" />
    <glyph glyph-name="Ocircumflex" unicode="&#xd4;" horiz-adv-x="765" 
d="M466 723l-83 106l-80 -106h-51l95 144h72l98 -144h-51zM382 -12q-74 0 -135 26t-104.5 72.5t-67.5 109.5t-24 137t24 137t67.5 109.5t104.5 72.5t135 26t135 -26t104.5 -72.5t67.5 -109.5t24 -137t-24 -137t-67.5 -109.5t-104.5 -72.5t-135 -26zM382 62q56 0 101 20.5
t77 57t49.5 86t17.5 107.5t-17.5 108t-49.5 86t-77 56.5t-101 20.5t-101.5 -20.5t-77.5 -56.5t-49 -86t-17 -108t17 -107.5t49 -86t77.5 -57t101.5 -20.5z" />
    <glyph glyph-name="Odieresis" unicode="&#xd6;" horiz-adv-x="765" 
d="M532 771q0 -20 -14 -33.5t-33 -13.5t-33 13.5t-14 33.5q0 19 14 32.5t33 13.5t33 -13.5t14 -32.5zM325 771q0 -20 -13.5 -33.5t-32.5 -13.5q-20 0 -33.5 13.5t-13.5 33.5q0 19 13.5 32.5t33.5 13.5q19 0 32.5 -13.5t13.5 -32.5zM382 -12q-74 0 -135 26t-104.5 72.5
t-67.5 109.5t-24 137t24 137t67.5 109.5t104.5 72.5t135 26t135 -26t104.5 -72.5t67.5 -109.5t24 -137t-24 -137t-67.5 -109.5t-104.5 -72.5t-135 -26zM382 62q56 0 101 20.5t77 57t49.5 86t17.5 107.5t-17.5 108t-49.5 86t-77 56.5t-101 20.5t-101.5 -20.5t-77.5 -56.5
t-49 -86t-17 -108t17 -107.5t49 -86t77.5 -57t101.5 -20.5z" />
    <glyph glyph-name="Ograve" unicode="&#xd2;" horiz-adv-x="765" 
d="M383 723l-169 144h78l148 -144h-57zM382 -12q-74 0 -135 26t-104.5 72.5t-67.5 109.5t-24 137t24 137t67.5 109.5t104.5 72.5t135 26t135 -26t104.5 -72.5t67.5 -109.5t24 -137t-24 -137t-67.5 -109.5t-104.5 -72.5t-135 -26zM382 62q56 0 101 20.5t77 57t49.5 86
t17.5 107.5t-17.5 108t-49.5 86t-77 56.5t-101 20.5t-101.5 -20.5t-77.5 -56.5t-49 -86t-17 -108t17 -107.5t49 -86t77.5 -57t101.5 -20.5z" />
    <glyph glyph-name="Ohungarumlaut" unicode="&#x150;" horiz-adv-x="765" 
d="M320 723h-48l94 144h69zM462 723h-48l94 144h69zM382 -12q-74 0 -135 26t-104.5 72.5t-67.5 109.5t-24 137t24 137t67.5 109.5t104.5 72.5t135 26t135 -26t104.5 -72.5t67.5 -109.5t24 -137t-24 -137t-67.5 -109.5t-104.5 -72.5t-135 -26zM382 62q56 0 101 20.5t77 57
t49.5 86t17.5 107.5t-17.5 108t-49.5 86t-77 56.5t-101 20.5t-101.5 -20.5t-77.5 -56.5t-49 -86t-17 -108t17 -107.5t49 -86t77.5 -57t101.5 -20.5z" />
    <glyph glyph-name="Omacron" unicode="&#x14c;" horiz-adv-x="765" 
d="M200 739v48h363v-48h-363zM382 -12q-74 0 -135 26t-104.5 72.5t-67.5 109.5t-24 137t24 137t67.5 109.5t104.5 72.5t135 26t135 -26t104.5 -72.5t67.5 -109.5t24 -137t-24 -137t-67.5 -109.5t-104.5 -72.5t-135 -26zM382 62q56 0 101 20.5t77 57t49.5 86t17.5 107.5
t-17.5 108t-49.5 86t-77 56.5t-101 20.5t-101.5 -20.5t-77.5 -56.5t-49 -86t-17 -108t17 -107.5t49 -86t77.5 -57t101.5 -20.5z" />
    <glyph glyph-name="Oslash" unicode="&#xd8;" horiz-adv-x="765" 
d="M382 -12q-50 0 -93 11.5t-80 33.5l-22 -33h-66l44 65q-54 47 -84 115.5t-30 152.5q0 74 24 137t67.5 109.5t104.5 72.5t135 26q48 0 89.5 -11t77.5 -31l21 31h66l-42 -62q57 -47 88 -117t31 -155q0 -74 -24 -137t-67.5 -109.5t-104.5 -72.5t-135 -26zM382 62
q56 0 101 20.5t77 57t49.5 86t17.5 107.5q0 63 -20 116t-58 89l-297 -441q55 -35 130 -35zM137 333q0 -62 19 -113.5t54 -87.5l296 440q-26 15 -57.5 23.5t-66.5 8.5q-56 0 -101.5 -20.5t-77.5 -56.5t-49 -86t-17 -108z" />
    <glyph glyph-name="Oslashacute" unicode="&#x1fe;" horiz-adv-x="765" 
d="M383 723h-57l148 144h78zM382 -12q-50 0 -93 11.5t-80 33.5l-22 -33h-66l44 65q-54 47 -84 115.5t-30 152.5q0 74 24 137t67.5 109.5t104.5 72.5t135 26q48 0 89.5 -11t77.5 -31l21 31h66l-42 -62q57 -47 88 -117t31 -155q0 -74 -24 -137t-67.5 -109.5t-104.5 -72.5
t-135 -26zM382 62q56 0 101 20.5t77 57t49.5 86t17.5 107.5q0 63 -20 116t-58 89l-297 -441q55 -35 130 -35zM137 333q0 -62 19 -113.5t54 -87.5l296 440q-26 15 -57.5 23.5t-66.5 8.5q-56 0 -101.5 -20.5t-77.5 -56.5t-49 -86t-17 -108z" />
    <glyph glyph-name="Otilde" unicode="&#xd5;" horiz-adv-x="765" 
d="M382 -12q-74 0 -135 26t-104.5 72.5t-67.5 109.5t-24 137t24 137t67.5 109.5t104.5 72.5t135 26t135 -26t104.5 -72.5t67.5 -109.5t24 -137t-24 -137t-67.5 -109.5t-104.5 -72.5t-135 -26zM382 62q56 0 101 20.5t77 57t49.5 86t17.5 107.5t-17.5 108t-49.5 86t-77 56.5
t-101 20.5t-101.5 -20.5t-77.5 -56.5t-49 -86t-17 -108t17 -107.5t49 -86t77.5 -57t101.5 -20.5zM442 721q-27 0 -43 14.5t-28 31.5t-23 31.5t-29 14.5q-20 0 -34 -20.5t-14 -65.5h-45q0 59 24.5 96.5t72.5 37.5q27 0 43 -14.5t27.5 -31.5t23 -31.5t29.5 -14.5q20 0 34 20.5
t14 65.5h45q0 -59 -24.5 -96.5t-72.5 -37.5z" />
    <glyph glyph-name="uni1ECC" unicode="&#x1ecc;" horiz-adv-x="765" 
d="M382 -12q-74 0 -135 26t-104.5 72.5t-67.5 109.5t-24 137t24 137t67.5 109.5t104.5 72.5t135 26t135 -26t104.5 -72.5t67.5 -109.5t24 -137t-24 -137t-67.5 -109.5t-104.5 -72.5t-135 -26zM382 62q56 0 101 20.5t77 57t49.5 86t17.5 107.5t-17.5 108t-49.5 86t-77 56.5
t-101 20.5t-101.5 -20.5t-77.5 -56.5t-49 -86t-17 -108t17 -107.5t49 -86t77.5 -57t101.5 -20.5zM384 -183q-19 0 -33 13.5t-14 33.5t14 33.5t33 13.5q20 0 33 -13.5t13 -33.5t-13 -33.5t-33 -13.5z" />
    <glyph glyph-name="uni1ECE" unicode="&#x1ece;" horiz-adv-x="765" 
d="M382 -12q-74 0 -135 26t-104.5 72.5t-67.5 109.5t-24 137t24 137t67.5 109.5t104.5 72.5t135 26t135 -26t104.5 -72.5t67.5 -109.5t24 -137t-24 -137t-67.5 -109.5t-104.5 -72.5t-135 -26zM382 62q56 0 101 20.5t77 57t49.5 86t17.5 107.5t-17.5 108t-49.5 86t-77 56.5
t-101 20.5t-101.5 -20.5t-77.5 -56.5t-49 -86t-17 -108t17 -107.5t49 -86t77.5 -57t101.5 -20.5zM308 765q8 23 26 39t47 16t50.5 -16.5t21.5 -52.5q0 -17 -4.5 -28.5t-14.5 -25.5h-40q13 13 18 26t5 26q0 20 -9.5 29.5t-26.5 9.5q-29 0 -40 -32z" />
    <glyph glyph-name="uni1ED0" unicode="&#x1ed0;" horiz-adv-x="765" 
d="M462 682l-83 79.5l-80 -79.5h-51l95 108h72l98 -108h-51zM538 736h-57l148 108h78zM382 -12q-74 0 -135 26t-104.5 72.5t-67.5 109.5t-24 137t24 137t67.5 109.5t104.5 72.5t135 26t135 -26t104.5 -72.5t67.5 -109.5t24 -137t-24 -137t-67.5 -109.5t-104.5 -72.5
t-135 -26zM382 62q56 0 101 20.5t77 57t49.5 86t17.5 107.5t-17.5 108t-49.5 86t-77 56.5t-101 20.5t-101.5 -20.5t-77.5 -56.5t-49 -86t-17 -108t17 -107.5t49 -86t77.5 -57t101.5 -20.5z" />
    <glyph glyph-name="uni1ED2" unicode="&#x1ed2;" horiz-adv-x="765" 
d="M461 682l-83 79.5l-80 -79.5h-51l95 108h72l98 -108h-51zM382 -12q-74 0 -135 26t-104.5 72.5t-67.5 109.5t-24 137t24 137t67.5 109.5t104.5 72.5t135 26t135 -26t104.5 -72.5t67.5 -109.5t24 -137t-24 -137t-67.5 -109.5t-104.5 -72.5t-135 -26zM382 62q56 0 101 20.5
t77 57t49.5 86t17.5 107.5t-17.5 108t-49.5 86t-77 56.5t-101 20.5t-101.5 -20.5t-77.5 -56.5t-49 -86t-17 -108t17 -107.5t49 -86t77.5 -57t101.5 -20.5zM221 736l-169 108h78l148 -108h-57z" />
    <glyph glyph-name="uni1ED4" unicode="&#x1ed4;" horiz-adv-x="765" 
d="M461 682l-83 79.5l-80 -79.5h-51l95 108h72l98 -108h-51zM382 -12q-74 0 -135 26t-104.5 72.5t-67.5 109.5t-24 137t24 137t67.5 109.5t104.5 72.5t135 26t135 -26t104.5 -72.5t67.5 -109.5t24 -137t-24 -137t-67.5 -109.5t-104.5 -72.5t-135 -26zM382 62q56 0 101 20.5
t77 57t49.5 86t17.5 107.5t-17.5 108t-49.5 86t-77 56.5t-101 20.5t-101.5 -20.5t-77.5 -56.5t-49 -86t-17 -108t17 -107.5t49 -86t77.5 -57t101.5 -20.5zM444 795.25q8 17.25 26 29.25t47 12t50.5 -12.375t21.5 -39.375q0 -12.75 -4.5 -21.375t-14.5 -19.125h-40
q13 9.75 18 19.5t5 19.5q0 15 -9.5 22.125t-26.5 7.125q-29 0 -40 -24z" />
    <glyph glyph-name="uni1ED6" unicode="&#x1ed6;" horiz-adv-x="765" 
d="M463 678l-83 53l-80 -53h-51l95 72h72l98 -72h-51zM382 -12q-74 0 -135 26t-104.5 72.5t-67.5 109.5t-24 137t24 137t67.5 109.5t104.5 72.5t135 26t135 -26t104.5 -72.5t67.5 -109.5t24 -137t-24 -137t-67.5 -109.5t-104.5 -72.5t-135 -26zM382 62q56 0 101 20.5t77 57
t49.5 86t17.5 107.5t-17.5 108t-49.5 86t-77 56.5t-101 20.5t-101.5 -20.5t-77.5 -56.5t-49 -86t-17 -108t17 -107.5t49 -86t77.5 -57t101.5 -20.5zM439 757q-27 0 -43 7.25t-28 15.75t-23 15.75t-29 7.25q-20 0 -34 -10.25t-14 -32.75h-45q0 29.5 24.5 48.25t72.5 18.75
q27 0 43 -7.25t27.5 -15.75t23 -15.75t29.5 -7.25q20 0 34 10.25t14 32.75h45q0 -29.5 -24.5 -48.25t-72.5 -18.75z" />
    <glyph glyph-name="uni1ED8" unicode="&#x1ed8;" horiz-adv-x="765" 
d="M466 723l-83 106l-80 -106h-51l95 144h72l98 -144h-51zM382 -12q-74 0 -135 26t-104.5 72.5t-67.5 109.5t-24 137t24 137t67.5 109.5t104.5 72.5t135 26t135 -26t104.5 -72.5t67.5 -109.5t24 -137t-24 -137t-67.5 -109.5t-104.5 -72.5t-135 -26zM382 62q56 0 101 20.5
t77 57t49.5 86t17.5 107.5t-17.5 108t-49.5 86t-77 56.5t-101 20.5t-101.5 -20.5t-77.5 -56.5t-49 -86t-17 -108t17 -107.5t49 -86t77.5 -57t101.5 -20.5zM385 -183q-19 0 -33 13.5t-14 33.5t14 33.5t33 13.5q20 0 33 -13.5t13 -33.5t-13 -33.5t-33 -13.5z" />
    <glyph glyph-name="Ohorn" unicode="&#x1a0;" horiz-adv-x="765" 
d="M382 -12q-74 0 -135 26t-104.5 72.5t-67.5 109.5t-24 137t24 137t67.5 109.5t104.5 72.5t135 26q78 0 141 -29.5t108 -80.5q18 15 31 35.5t15 40.5q-1 -1 -4.5 -1.5t-6.5 -0.5q-17 0 -28 12t-11 29q0 18 12 31t30 13q20 0 35 -16.5t15 -46.5q0 -38 -19 -72t-46 -54
q28 -43 43.5 -94.5t15.5 -110.5q0 -74 -24 -137t-67.5 -109.5t-104.5 -72.5t-135 -26zM382 62q56 0 101 20.5t77 57t49.5 86t17.5 107.5t-17.5 108t-49.5 86t-77 56.5t-101 20.5t-101.5 -20.5t-77.5 -56.5t-49 -86t-17 -108t17 -107.5t49 -86t77.5 -57t101.5 -20.5z" />
    <glyph glyph-name="uni1EDA" unicode="&#x1eda;" horiz-adv-x="765" 
d="M383 723h-57l148 144h78zM382 -12q-74 0 -135 26t-104.5 72.5t-67.5 109.5t-24 137t24 137t67.5 109.5t104.5 72.5t135 26q78 0 141 -29.5t108 -80.5q18 15 31 35.5t15 40.5q-1 -1 -4.5 -1.5t-6.5 -0.5q-17 0 -28 12t-11 29q0 18 12 31t30 13q20 0 35 -16.5t15 -46.5
q0 -38 -19 -72t-46 -54q28 -43 43.5 -94.5t15.5 -110.5q0 -74 -24 -137t-67.5 -109.5t-104.5 -72.5t-135 -26zM382 62q56 0 101 20.5t77 57t49.5 86t17.5 107.5t-17.5 108t-49.5 86t-77 56.5t-101 20.5t-101.5 -20.5t-77.5 -56.5t-49 -86t-17 -108t17 -107.5t49 -86
t77.5 -57t101.5 -20.5z" />
    <glyph glyph-name="uni1EDC" unicode="&#x1edc;" horiz-adv-x="765" 
d="M382 -12q-74 0 -135 26t-104.5 72.5t-67.5 109.5t-24 137t24 137t67.5 109.5t104.5 72.5t135 26q78 0 141 -29.5t108 -80.5q18 15 31 35.5t15 40.5q-1 -1 -4.5 -1.5t-6.5 -0.5q-17 0 -28 12t-11 29q0 18 12 31t30 13q20 0 35 -16.5t15 -46.5q0 -38 -19 -72t-46 -54
q28 -43 43.5 -94.5t15.5 -110.5q0 -74 -24 -137t-67.5 -109.5t-104.5 -72.5t-135 -26zM382 62q56 0 101 20.5t77 57t49.5 86t17.5 107.5t-17.5 108t-49.5 86t-77 56.5t-101 20.5t-101.5 -20.5t-77.5 -56.5t-49 -86t-17 -108t17 -107.5t49 -86t77.5 -57t101.5 -20.5zM383 723
l-169 144h78l148 -144h-57z" />
    <glyph glyph-name="uni1EDE" unicode="&#x1ede;" horiz-adv-x="765" 
d="M382 -12q-74 0 -135 26t-104.5 72.5t-67.5 109.5t-24 137t24 137t67.5 109.5t104.5 72.5t135 26q78 0 141 -29.5t108 -80.5q18 15 31 35.5t15 40.5q-1 -1 -4.5 -1.5t-6.5 -0.5q-17 0 -28 12t-11 29q0 18 12 31t30 13q20 0 35 -16.5t15 -46.5q0 -38 -19 -72t-46 -54
q28 -43 43.5 -94.5t15.5 -110.5q0 -74 -24 -137t-67.5 -109.5t-104.5 -72.5t-135 -26zM382 62q56 0 101 20.5t77 57t49.5 86t17.5 107.5t-17.5 108t-49.5 86t-77 56.5t-101 20.5t-101.5 -20.5t-77.5 -56.5t-49 -86t-17 -108t17 -107.5t49 -86t77.5 -57t101.5 -20.5zM309 765
q8 23 26 39t47 16t50.5 -16.5t21.5 -52.5q0 -17 -4.5 -28.5t-14.5 -25.5h-40q13 13 18 26t5 26q0 20 -9.5 29.5t-26.5 9.5q-29 0 -40 -32z" />
    <glyph glyph-name="uni1EE0" unicode="&#x1ee0;" horiz-adv-x="765" 
d="M382 -12q-74 0 -135 26t-104.5 72.5t-67.5 109.5t-24 137t24 137t67.5 109.5t104.5 72.5t135 26q78 0 141 -29.5t108 -80.5q18 15 31 35.5t15 40.5q-1 -1 -4.5 -1.5t-6.5 -0.5q-17 0 -28 12t-11 29q0 18 12 31t30 13q20 0 35 -16.5t15 -46.5q0 -38 -19 -72t-46 -54
q28 -43 43.5 -94.5t15.5 -110.5q0 -74 -24 -137t-67.5 -109.5t-104.5 -72.5t-135 -26zM382 62q56 0 101 20.5t77 57t49.5 86t17.5 107.5t-17.5 108t-49.5 86t-77 56.5t-101 20.5t-101.5 -20.5t-77.5 -56.5t-49 -86t-17 -108t17 -107.5t49 -86t77.5 -57t101.5 -20.5zM442 721
q-27 0 -43 14.5t-28 31.5t-23 31.5t-29 14.5q-20 0 -34 -20.5t-14 -65.5h-45q0 59 24.5 96.5t72.5 37.5q27 0 43 -14.5t27.5 -31.5t23 -31.5t29.5 -14.5q20 0 34 20.5t14 65.5h45q0 -59 -24.5 -96.5t-72.5 -37.5z" />
    <glyph glyph-name="uni1EE2" unicode="&#x1ee2;" horiz-adv-x="765" 
d="M382 -12q-74 0 -135 26t-104.5 72.5t-67.5 109.5t-24 137t24 137t67.5 109.5t104.5 72.5t135 26q78 0 141 -29.5t108 -80.5q18 15 31 35.5t15 40.5q-1 -1 -4.5 -1.5t-6.5 -0.5q-17 0 -28 12t-11 29q0 18 12 31t30 13q20 0 35 -16.5t15 -46.5q0 -38 -19 -72t-46 -54
q28 -43 43.5 -94.5t15.5 -110.5q0 -74 -24 -137t-67.5 -109.5t-104.5 -72.5t-135 -26zM382 62q56 0 101 20.5t77 57t49.5 86t17.5 107.5t-17.5 108t-49.5 86t-77 56.5t-101 20.5t-101.5 -20.5t-77.5 -56.5t-49 -86t-17 -108t17 -107.5t49 -86t77.5 -57t101.5 -20.5z
M384 -183q-19 0 -33 13.5t-14 33.5t14 33.5t33 13.5q20 0 33 -13.5t13 -33.5t-13 -33.5t-33 -13.5z" />
    <glyph glyph-name="OE" unicode="&#x152;" horiz-adv-x="1105" 
d="M613 0v120q-18 -33 -44.5 -57.5t-57.5 -41t-66 -25t-70 -8.5q-73 0 -132.5 26t-102 72.5t-66 109.5t-23.5 137t23.5 137t66 109t102 72t132.5 26q35 0 70 -8t66 -24.5t57.5 -41t44.5 -57.5v121h438v-74h-355v-215h348v-74h-348v-230h355v-74h-438zM613 443
q-29 80 -90.5 120t-138.5 40q-57 0 -102.5 -20.5t-78 -56.5t-49.5 -85.5t-17 -107.5q0 -59 17 -108.5t49.5 -85.5t78 -56.5t102.5 -20.5q78 0 139 40.5t90 120.5v220z" />
    <glyph glyph-name="uni1E56" unicode="&#x1e56;" horiz-adv-x="587" 
d="M78 0v667h268q50 0 89 -16t65.5 -43.5t40.5 -64t14 -77.5t-14 -77.5t-41 -64t-66 -43.5t-88 -16h-185v-265h-83zM336 339q60 0 96.5 35t36.5 92t-36.5 92t-96.5 35h-175v-254h175zM293 722q-19 0 -33 13.5t-14 33.5t14 33.5t33 13.5q20 0 33 -13.5t13 -33.5t-13 -33.5
t-33 -13.5z" />
    <glyph glyph-name="Racute" unicode="&#x154;" horiz-adv-x="608" 
d="M311 723h-57l148 144h78zM464 0l-170 265h-133v-265h-83v667h268q46 0 84 -14t66 -40.5t43.5 -63.5t15.5 -83q0 -45 -14 -80t-38 -59t-55.5 -38t-65.5 -17l180 -272h-98zM336 338q60 0 96.5 35.5t36.5 92.5t-36.5 92t-96.5 35h-175v-255h175z" />
    <glyph glyph-name="Rcaron" unicode="&#x158;" horiz-adv-x="608" 
d="M271 723l-98 144h51l83 -106l80 106h51l-95 -144h-72zM464 0l-170 265h-133v-265h-83v667h268q46 0 84 -14t66 -40.5t43.5 -63.5t15.5 -83q0 -45 -14 -80t-38 -59t-55.5 -38t-65.5 -17l180 -272h-98zM336 338q60 0 96.5 35.5t36.5 92.5t-36.5 92t-96.5 35h-175v-255h175z
" />
    <glyph glyph-name="Rcommaaccent" unicode="&#x156;" horiz-adv-x="608" 
d="M362 -138q0 -41 -21 -76.5t-50 -57.5l-33 26q23 15 39.5 39.5t18.5 46.5q-1 -1 -5 -1.5t-6 -0.5q-18 0 -30 12.5t-12 31.5q0 20 13 33.5t33 13.5q21 0 37 -17.5t16 -49.5zM464 0l-170 265h-133v-265h-83v667h268q46 0 84 -14t66 -40.5t43.5 -63.5t15.5 -83q0 -45 -14 -80
t-38 -59t-55.5 -38t-65.5 -17l180 -272h-98zM336 338q60 0 96.5 35.5t36.5 92.5t-36.5 92t-96.5 35h-175v-255h175z" />
    <glyph glyph-name="Sacute" unicode="&#x15a;" horiz-adv-x="586" 
d="M291 723h-57l148 144h78zM294 -12q-88 0 -151 29.5t-105 76.5l49 63q16 -18 38 -35.5t48.5 -30.5t57.5 -21t66 -8q45 0 75 11t48 27.5t26 37t8 39.5q0 32 -17 53t-44.5 35.5t-63 24t-73 20t-73 23.5t-63 33.5t-44.5 50.5t-17 75q0 41 17.5 75t48 58.5t72.5 38t91 13.5
q77 0 136 -24t101 -69l-50 -61q-38 42 -88 61t-105 19q-60 0 -98.5 -29t-38.5 -77q0 -28 17 -46t44.5 -31t63 -22.5t73 -20t73 -24.5t63 -36t44.5 -54t17 -79q0 -36 -13 -71.5t-42.5 -63t-76.5 -44.5t-114 -17z" />
    <glyph glyph-name="Scaron" unicode="&#x160;" horiz-adv-x="586" 
d="M251 723l-98 144h51l83 -106l80 106h51l-95 -144h-72zM294 -12q-88 0 -151 29.5t-105 76.5l49 63q16 -18 38 -35.5t48.5 -30.5t57.5 -21t66 -8q45 0 75 11t48 27.5t26 37t8 39.5q0 32 -17 53t-44.5 35.5t-63 24t-73 20t-73 23.5t-63 33.5t-44.5 50.5t-17 75q0 41 17.5 75
t48 58.5t72.5 38t91 13.5q77 0 136 -24t101 -69l-50 -61q-38 42 -88 61t-105 19q-60 0 -98.5 -29t-38.5 -77q0 -28 17 -46t44.5 -31t63 -22.5t73 -20t73 -24.5t63 -36t44.5 -54t17 -79q0 -36 -13 -71.5t-42.5 -63t-76.5 -44.5t-114 -17z" />
    <glyph glyph-name="Scircumflex" unicode="&#x15c;" horiz-adv-x="586" 
d="M367 723l-83 106l-80 -106h-51l95 144h72l98 -144h-51zM294 -12q-88 0 -151 29.5t-105 76.5l49 63q16 -18 38 -35.5t48.5 -30.5t57.5 -21t66 -8q45 0 75 11t48 27.5t26 37t8 39.5q0 32 -17 53t-44.5 35.5t-63 24t-73 20t-73 23.5t-63 33.5t-44.5 50.5t-17 75
q0 41 17.5 75t48 58.5t72.5 38t91 13.5q77 0 136 -24t101 -69l-50 -61q-38 42 -88 61t-105 19q-60 0 -98.5 -29t-38.5 -77q0 -28 17 -46t44.5 -31t63 -22.5t73 -20t73 -24.5t63 -36t44.5 -54t17 -79q0 -36 -13 -71.5t-42.5 -63t-76.5 -44.5t-114 -17z" />
    <glyph glyph-name="Scedilla" unicode="&#x15e;" horiz-adv-x="586" 
d="M288 -191q-32 0 -59 9t-42 21l19 38q18 -15 39 -22t41 -7q24 0 42.5 11t18.5 31q0 16 -9 25.5t-28 9.5q-23 0 -38 -17l-33 19l23 62q-75 6 -130.5 34.5t-93.5 70.5l49 63q16 -18 38 -35.5t48.5 -30.5t57.5 -21t66 -8q45 0 75 11t48 27.5t26 37t8 39.5q0 32 -17 53
t-44.5 35.5t-63 24t-73 20t-73 23.5t-63 33.5t-44.5 50.5t-17 75q0 41 17.5 75t48 58.5t72.5 38t91 13.5q77 0 136 -24t101 -69l-50 -61q-38 42 -88 61t-105 19q-60 0 -98.5 -29t-38.5 -77q0 -28 17 -46t44.5 -31t63 -22.5t73 -20t73 -24.5t63 -36t44.5 -54t17 -79
q0 -36 -12.5 -70t-40.5 -61.5t-72.5 -45t-108.5 -19.5l-17 -43q16 11 37 11q29 0 47.5 -18t18.5 -49q0 -37 -30.5 -58.5t-73.5 -21.5z" />
    <glyph glyph-name="Scommaaccent" unicode="&#x218;" horiz-adv-x="586" 
d="M345 -138q0 -41 -21 -76.5t-50 -57.5l-33 26q23 15 39.5 39.5t18.5 46.5q-1 -1 -5 -1.5t-6 -0.5q-18 0 -30 12.5t-12 31.5q0 20 13 33.5t33 13.5q21 0 37 -17.5t16 -49.5zM294 -12q-88 0 -151 29.5t-105 76.5l49 63q16 -18 38 -35.5t48.5 -30.5t57.5 -21t66 -8
q45 0 75 11t48 27.5t26 37t8 39.5q0 32 -17 53t-44.5 35.5t-63 24t-73 20t-73 23.5t-63 33.5t-44.5 50.5t-17 75q0 41 17.5 75t48 58.5t72.5 38t91 13.5q77 0 136 -24t101 -69l-50 -61q-38 42 -88 61t-105 19q-60 0 -98.5 -29t-38.5 -77q0 -28 17 -46t44.5 -31t63 -22.5
t73 -20t73 -24.5t63 -36t44.5 -54t17 -79q0 -36 -13 -71.5t-42.5 -63t-76.5 -44.5t-114 -17z" />
    <glyph glyph-name="uni1E60" unicode="&#x1e60;" horiz-adv-x="586" 
d="M294 -12q-88 0 -151 29.5t-105 76.5l49 63q16 -18 38 -35.5t48.5 -30.5t57.5 -21t66 -8q45 0 75 11t48 27.5t26 37t8 39.5q0 32 -17 53t-44.5 35.5t-63 24t-73 20t-73 23.5t-63 33.5t-44.5 50.5t-17 75q0 41 17.5 75t48 58.5t72.5 38t91 13.5q77 0 136 -24t101 -69
l-50 -61q-38 42 -88 61t-105 19q-60 0 -98.5 -29t-38.5 -77q0 -28 17 -46t44.5 -31t63 -22.5t73 -20t73 -24.5t63 -36t44.5 -54t17 -79q0 -36 -13 -71.5t-42.5 -63t-76.5 -44.5t-114 -17zM293 722q-19 0 -33 13.5t-14 33.5t14 33.5t33 13.5q20 0 33 -13.5t13 -33.5
t-13 -33.5t-33 -13.5z" />
    <glyph glyph-name="Tbar" unicode="&#x166;" horiz-adv-x="570" 
d="M243 0v294h-150v48h150v251h-211v74h506v-74h-212v-251h152v-48h-152v-294h-83z" />
    <glyph glyph-name="Tcaron" unicode="&#x164;" horiz-adv-x="570" 
d="M250 723l-98 144h51l83 -106l80 106h51l-95 -144h-72zM243 0v593h-211v74h506v-74h-212v-593h-83z" />
    <glyph glyph-name="Tcommaaccent" unicode="&#x162;" horiz-adv-x="570" 
d="M341 -138q0 -41 -21 -76.5t-50 -57.5l-33 26q23 15 39.5 39.5t18.5 46.5q-1 -1 -5 -1.5t-6 -0.5q-18 0 -30 12.5t-12 31.5q0 20 13 33.5t33 13.5q21 0 37 -17.5t16 -49.5zM243 0v593h-211v74h506v-74h-212v-593h-83z" />
    <glyph glyph-name="uni021A" unicode="&#x21a;" horiz-adv-x="570" 
d="M341 -138q0 -41 -21 -76.5t-50 -57.5l-33 26q23 15 39.5 39.5t18.5 46.5q-1 -1 -5 -1.5t-6 -0.5q-18 0 -30 12.5t-12 31.5q0 20 13 33.5t33 13.5q21 0 37 -17.5t16 -49.5zM243 0v593h-211v74h506v-74h-212v-593h-83z" />
    <glyph glyph-name="uni1E6A" unicode="&#x1e6a;" horiz-adv-x="570" 
d="M243 0v593h-211v74h506v-74h-212v-593h-83zM284 722q-19 0 -33 13.5t-14 33.5t14 33.5t33 13.5q20 0 33 -13.5t13 -33.5t-13 -33.5t-33 -13.5z" />
    <glyph glyph-name="Uacute" unicode="&#xda;" horiz-adv-x="700" 
d="M350 723h-57l148 144h78zM350 -12q-68 0 -119 19.5t-85 54.5t-51 85t-17 112v408h83v-406q0 -92 48 -145.5t141 -53.5t141 53.5t48 145.5v406h83v-407q0 -62 -17 -112.5t-51 -86t-85 -54.5t-119 -19z" />
    <glyph glyph-name="Ubreve" unicode="&#x16c;" horiz-adv-x="700" 
d="M350 -12q-68 0 -119 19.5t-85 54.5t-51 85t-17 112v408h83v-406q0 -92 48 -145.5t141 -53.5t141 53.5t48 145.5v406h83v-407q0 -62 -17 -112.5t-51 -86t-85 -54.5t-119 -19zM528 793q-30 -41 -75.5 -64.5t-99.5 -23.5t-99.5 23.5t-76.5 64.5l37 32q24 -33 59 -52.5
t80 -19.5q44 0 79.5 19t58.5 53l37 -32v0z" />
    <glyph glyph-name="Ucircumflex" unicode="&#xdb;" horiz-adv-x="700" 
d="M434 723l-83 106l-80 -106h-51l95 144h72l98 -144h-51zM350 -12q-68 0 -119 19.5t-85 54.5t-51 85t-17 112v408h83v-406q0 -92 48 -145.5t141 -53.5t141 53.5t48 145.5v406h83v-407q0 -62 -17 -112.5t-51 -86t-85 -54.5t-119 -19z" />
    <glyph glyph-name="Udieresis" unicode="&#xdc;" horiz-adv-x="700" 
d="M501 771q0 -20 -14 -33.5t-33 -13.5t-33 13.5t-14 33.5q0 19 14 32.5t33 13.5t33 -13.5t14 -32.5zM294 771q0 -20 -13.5 -33.5t-32.5 -13.5q-20 0 -33.5 13.5t-13.5 33.5q0 19 13.5 32.5t33.5 13.5q19 0 32.5 -13.5t13.5 -32.5zM350 -12q-68 0 -119 19.5t-85 54.5t-51 85
t-17 112v408h83v-406q0 -92 48 -145.5t141 -53.5t141 53.5t48 145.5v406h83v-407q0 -62 -17 -112.5t-51 -86t-85 -54.5t-119 -19z" />
    <glyph glyph-name="Ugrave" unicode="&#xd9;" horiz-adv-x="700" 
d="M350 -12q-68 0 -119 19.5t-85 54.5t-51 85t-17 112v408h83v-406q0 -92 48 -145.5t141 -53.5t141 53.5t48 145.5v406h83v-407q0 -62 -17 -112.5t-51 -86t-85 -54.5t-119 -19zM350 723l-169 144h78l148 -144h-57z" />
    <glyph glyph-name="Uhungarumlaut" unicode="&#x170;" horiz-adv-x="700" 
d="M350 -12q-68 0 -119 19.5t-85 54.5t-51 85t-17 112v408h83v-406q0 -92 48 -145.5t141 -53.5t141 53.5t48 145.5v406h83v-407q0 -62 -17 -112.5t-51 -86t-85 -54.5t-119 -19zM289 723h-48l94 144h69zM431 723h-48l94 144h69z" />
    <glyph glyph-name="Umacron" unicode="&#x16a;" horiz-adv-x="700" 
d="M350 -12q-68 0 -119 19.5t-85 54.5t-51 85t-17 112v408h83v-406q0 -92 48 -145.5t141 -53.5t141 53.5t48 145.5v406h83v-407q0 -62 -17 -112.5t-51 -86t-85 -54.5t-119 -19zM169 739v48h363v-48h-363z" />
    <glyph glyph-name="Uogonek" unicode="&#x172;" horiz-adv-x="700" 
d="M350 -12q-68 0 -119 19.5t-85 54.5t-51 85t-17 112v408h83v-406q0 -92 48 -145.5t141 -53.5t141 53.5t48 145.5v406h83v-407q0 -100 -43.5 -168t-131.5 -92q-36 -18 -56 -41.5t-20 -55.5q0 -26 12 -38t32 -12q21 0 33 11t19 31l37 -21q-11 -24 -32 -42t-57 -18
q-35 0 -62 20.5t-27 66.5q0 25 10.5 47t28.5 40h-15v0z" />
    <glyph glyph-name="Uring" unicode="&#x16e;" horiz-adv-x="700" 
d="M351 710q-41 0 -69.5 28.5t-28.5 69.5q0 20 7.5 38t21 31.5t31.5 21.5t38 8t38 -8t31.5 -21.5t21 -31.5t7.5 -38q0 -41 -28.5 -69.5t-69.5 -28.5zM351 749q25 0 41.5 17.5t16.5 41.5q0 25 -16.5 42t-41.5 17q-24 0 -41 -17t-17 -42q0 -24 17 -41.5t41 -17.5zM350 -12
q-68 0 -119 19.5t-85 54.5t-51 85t-17 112v408h83v-406q0 -92 48 -145.5t141 -53.5t141 53.5t48 145.5v406h83v-407q0 -62 -17 -112.5t-51 -86t-85 -54.5t-119 -19z" />
    <glyph glyph-name="Utilde" unicode="&#x168;" horiz-adv-x="700" 
d="M350 -12q-68 0 -119 19.5t-85 54.5t-51 85t-17 112v408h83v-406q0 -92 48 -145.5t141 -53.5t141 53.5t48 145.5v406h83v-407q0 -62 -17 -112.5t-51 -86t-85 -54.5t-119 -19zM412 721q-27 0 -43 14.5t-28 31.5t-23 31.5t-29 14.5q-20 0 -34 -20.5t-14 -65.5h-45
q0 59 24.5 96.5t72.5 37.5q27 0 43 -14.5t27.5 -31.5t23 -31.5t29.5 -14.5q20 0 34 20.5t14 65.5h45q0 -59 -24.5 -96.5t-72.5 -37.5z" />
    <glyph glyph-name="uni1EE4" unicode="&#x1ee4;" horiz-adv-x="700" 
d="M350 -12q-68 0 -119 19.5t-85 54.5t-51 85t-17 112v408h83v-406q0 -92 48 -145.5t141 -53.5t141 53.5t48 145.5v406h83v-407q0 -62 -17 -112.5t-51 -86t-85 -54.5t-119 -19zM354 -183q-19 0 -33 13.5t-14 33.5t14 33.5t33 13.5q20 0 33 -13.5t13 -33.5t-13 -33.5
t-33 -13.5z" />
    <glyph glyph-name="Uhorn" unicode="&#x1af;" horiz-adv-x="700" 
d="M738 728q0 -48 -31 -90t-85 -64v-314q0 -62 -17 -112.5t-51 -86t-85 -54.5t-119 -19t-119 19.5t-85 54.5t-51 85t-17 112v408h83v-406q0 -92 48 -145.5t141 -53.5t141 53.5t48 145.5v406h83v-54q29 14 50 40.5t23 54.5q-1 0 -4.5 -0.5t-6.5 -0.5q-17 0 -28 11.5t-11 29.5
q0 17 12 30t31 13q20 0 35 -16.5t15 -46.5z" />
    <glyph glyph-name="uni1EE6" unicode="&#x1ee6;" horiz-adv-x="700" 
d="M350 -12q-68 0 -119 19.5t-85 54.5t-51 85t-17 112v408h83v-406q0 -92 48 -145.5t141 -53.5t141 53.5t48 145.5v406h83v-407q0 -62 -17 -112.5t-51 -86t-85 -54.5t-119 -19zM278 765q8 23 26 39t47 16t50.5 -16.5t21.5 -52.5q0 -17 -4.5 -28.5t-14.5 -25.5h-40
q13 13 18 26t5 26q0 20 -9.5 29.5t-26.5 9.5q-29 0 -40 -32z" />
    <glyph glyph-name="uni1EE8" unicode="&#x1ee8;" horiz-adv-x="700" 
d="M350 723h-57l148 144h78zM738 728q0 -48 -31 -90t-85 -64v-314q0 -62 -17 -112.5t-51 -86t-85 -54.5t-119 -19t-119 19.5t-85 54.5t-51 85t-17 112v408h83v-406q0 -92 48 -145.5t141 -53.5t141 53.5t48 145.5v406h83v-54q29 14 50 40.5t23 54.5q-1 0 -4.5 -0.5t-6.5 -0.5
q-17 0 -28 11.5t-11 29.5q0 17 12 30t31 13q20 0 35 -16.5t15 -46.5z" />
    <glyph glyph-name="uni1EEA" unicode="&#x1eea;" horiz-adv-x="700" 
d="M350 723l-169 144h78l148 -144h-57zM738 728q0 -48 -31 -90t-85 -64v-314q0 -62 -17 -112.5t-51 -86t-85 -54.5t-119 -19t-119 19.5t-85 54.5t-51 85t-17 112v408h83v-406q0 -92 48 -145.5t141 -53.5t141 53.5t48 145.5v406h83v-54q29 14 50 40.5t23 54.5q-1 0 -4.5 -0.5
t-6.5 -0.5q-17 0 -28 11.5t-11 29.5q0 17 12 30t31 13q20 0 35 -16.5t15 -46.5z" />
    <glyph glyph-name="uni1EEC" unicode="&#x1eec;" horiz-adv-x="700" 
d="M278 765q8 23 26 39t47 16t50.5 -16.5t21.5 -52.5q0 -17 -4.5 -28.5t-14.5 -25.5h-40q13 13 18 26t5 26q0 20 -9.5 29.5t-26.5 9.5q-29 0 -40 -32zM738 728q0 -48 -31 -90t-85 -64v-314q0 -62 -17 -112.5t-51 -86t-85 -54.5t-119 -19t-119 19.5t-85 54.5t-51 85t-17 112
v408h83v-406q0 -92 48 -145.5t141 -53.5t141 53.5t48 145.5v406h83v-54q29 14 50 40.5t23 54.5q-1 0 -4.5 -0.5t-6.5 -0.5q-17 0 -28 11.5t-11 29.5q0 17 12 30t31 13q20 0 35 -16.5t15 -46.5z" />
    <glyph glyph-name="uni1EEE" unicode="&#x1eee;" horiz-adv-x="700" 
d="M738 728q0 -48 -31 -90t-85 -64v-314q0 -62 -17 -112.5t-51 -86t-85 -54.5t-119 -19t-119 19.5t-85 54.5t-51 85t-17 112v408h83v-406q0 -92 48 -145.5t141 -53.5t141 53.5t48 145.5v406h83v-54q29 14 50 40.5t23 54.5q-1 0 -4.5 -0.5t-6.5 -0.5q-17 0 -28 11.5t-11 29.5
q0 17 12 30t31 13q20 0 35 -16.5t15 -46.5zM410 721q-27 0 -43 14.5t-28 31.5t-23 31.5t-29 14.5q-20 0 -34 -20.5t-14 -65.5h-45q0 59 24.5 96.5t72.5 37.5q27 0 43 -14.5t27.5 -31.5t23 -31.5t29.5 -14.5q20 0 34 20.5t14 65.5h45q0 -59 -24.5 -96.5t-72.5 -37.5z" />
    <glyph glyph-name="uni1EF0" unicode="&#x1ef0;" horiz-adv-x="700" 
d="M354 -183q-19 0 -33 13.5t-14 33.5t14 33.5t33 13.5q20 0 33 -13.5t13 -33.5t-13 -33.5t-33 -13.5zM738 728q0 -48 -31 -90t-85 -64v-314q0 -62 -17 -112.5t-51 -86t-85 -54.5t-119 -19t-119 19.5t-85 54.5t-51 85t-17 112v408h83v-406q0 -92 48 -145.5t141 -53.5
t141 53.5t48 145.5v406h83v-54q29 14 50 40.5t23 54.5q-1 0 -4.5 -0.5t-6.5 -0.5q-17 0 -28 11.5t-11 29.5q0 17 12 30t31 13q20 0 35 -16.5t15 -46.5z" />
    <glyph glyph-name="Wacute" unicode="&#x1e82;" horiz-adv-x="883" 
d="M441 723h-57l148 144h78zM588 0l-147 538l-147 -538h-90l-190 667h92l148 -556l153 556h69l153 -556l147 556h92l-190 -667h-90z" />
    <glyph glyph-name="Wcircumflex" unicode="&#x174;" horiz-adv-x="883" 
d="M523 723l-83 106l-80 -106h-51l95 144h72l98 -144h-51zM588 0l-147 538l-147 -538h-90l-190 667h92l148 -556l153 556h69l153 -556l147 556h92l-190 -667h-90z" />
    <glyph glyph-name="Wdieresis" unicode="&#x1e84;" horiz-adv-x="883" 
d="M591 771q0 -20 -14 -33.5t-33 -13.5t-33 13.5t-14 33.5q0 19 14 32.5t33 13.5t33 -13.5t14 -32.5zM384 771q0 -20 -13.5 -33.5t-32.5 -13.5q-20 0 -33.5 13.5t-13.5 33.5q0 19 13.5 32.5t33.5 13.5q19 0 32.5 -13.5t13.5 -32.5zM588 0l-147 538l-147 -538h-90l-190 667
h92l148 -556l153 556h69l153 -556l147 556h92l-190 -667h-90z" />
    <glyph glyph-name="Wgrave" unicode="&#x1e80;" horiz-adv-x="883" 
d="M588 0l-147 538l-147 -538h-90l-190 667h92l148 -556l153 556h69l153 -556l147 556h92l-190 -667h-90zM441 723l-169 144h78l148 -144h-57z" />
    <glyph glyph-name="Yacute" unicode="&#xdd;" horiz-adv-x="626" 
d="M272 0v282l-263 385h97l207 -310l207 310h97l-262 -385v-282h-83zM313 723h-57l148 144h78z" />
    <glyph glyph-name="Ycircumflex" unicode="&#x176;" horiz-adv-x="626" 
d="M396 723l-83 106l-80 -106h-51l95 144h72l98 -144h-51zM272 0v282l-263 385h97l207 -310l207 310h97l-262 -385v-282h-83z" />
    <glyph glyph-name="Ydieresis" unicode="&#x178;" horiz-adv-x="626" 
d="M465 771q0 -20 -14 -33.5t-33 -13.5t-33 13.5t-14 33.5q0 19 14 32.5t33 13.5t33 -13.5t14 -32.5zM258 771q0 -20 -13.5 -33.5t-32.5 -13.5q-20 0 -33.5 13.5t-13.5 33.5q0 19 13.5 32.5t33.5 13.5q19 0 32.5 -13.5t13.5 -32.5zM272 0v282l-263 385h97l207 -310l207 310
h97l-262 -385v-282h-83z" />
    <glyph glyph-name="Ygrave" unicode="&#x1ef2;" horiz-adv-x="626" 
d="M272 0v282l-263 385h97l207 -310l207 310h97l-262 -385v-282h-83zM313 723l-169 144h78l148 -144h-57z" />
    <glyph glyph-name="Zacute" unicode="&#x179;" horiz-adv-x="585" 
d="M292 723h-57l148 144h78zM48 0v69l375 524h-375v74h481v-69l-375 -524h382v-74h-488z" />
    <glyph glyph-name="Zcaron" unicode="&#x17d;" horiz-adv-x="585" 
d="M255 723l-98 144h51l83 -106l80 106h51l-95 -144h-72zM48 0v69l375 524h-375v74h481v-69l-375 -524h382v-74h-488z" />
    <glyph glyph-name="Zdotaccent" unicode="&#x17b;" horiz-adv-x="585" 
d="M48 0v69l375 524h-375v74h481v-69l-375 -524h382v-74h-488zM290 722q-19 0 -33 13.5t-14 33.5t14 33.5t33 13.5q20 0 33 -13.5t13 -33.5t-13 -33.5t-33 -13.5z" />
    <glyph glyph-name="Eth" unicode="&#xd0;" horiz-adv-x="728" 
d="M106 0v299h-96v61h96v307h228q78 0 141 -25.5t107.5 -70.5t69 -106t24.5 -132t-24.5 -132t-69 -105.5t-107.5 -70t-141 -25.5h-228zM334 74q61 0 108.5 20.5t80.5 55.5t50 82t17 101t-17 101.5t-49.5 82.5t-80 55.5t-109.5 20.5h-145v-233h169v-61h-169v-225h145z" />
    <glyph glyph-name="Thorn" unicode="&#xde;" horiz-adv-x="587" 
d="M78 0v667h83v-119h185q50 0 89 -16t65.5 -44t40.5 -64.5t14 -77.5t-14 -77.5t-41 -63.5t-66 -43t-88 -16h-185v-146h-83zM336 220q60 0 96.5 34.5t36.5 91.5t-36.5 92.5t-96.5 35.5h-175v-254h175z" />
    <glyph glyph-name="aacute" unicode="&#xe1;" horiz-adv-x="527" 
d="M377 0v55q-61 -67 -160 -67q-31 0 -61 10t-54 30.5t-39 50.5t-15 69q0 40 15 70t39 50t54 29.5t61 9.5q50 0 90.5 -16t69.5 -50v87q0 49 -34.5 75.5t-87.5 26.5q-85 0 -148 -67l-35 52q77 80 193 80q38 0 72 -9t59.5 -28.5t40.5 -50.5t15 -75v-332h-75zM244 42
q40 0 75.5 15t57.5 45v91q-22 30 -57.5 45t-75.5 15q-53 0 -86 -29.5t-33 -76.5q0 -46 33 -75.5t86 -29.5zM265 556h-57l148 144h78z" />
    <glyph glyph-name="abreve" unicode="&#x103;" horiz-adv-x="527" 
d="M377 0v55q-61 -67 -160 -67q-31 0 -61 10t-54 30.5t-39 50.5t-15 69q0 40 15 70t39 50t54 29.5t61 9.5q50 0 90.5 -16t69.5 -50v87q0 49 -34.5 75.5t-87.5 26.5q-85 0 -148 -67l-35 52q77 80 193 80q38 0 72 -9t59.5 -28.5t40.5 -50.5t15 -75v-332h-75zM244 42
q40 0 75.5 15t57.5 45v91q-22 30 -57.5 45t-75.5 15q-53 0 -86 -29.5t-33 -76.5q0 -46 33 -75.5t86 -29.5zM439 626q-30 -41 -75.5 -64.5t-99.5 -23.5t-99.5 23.5t-76.5 64.5l37 32q24 -33 59 -52.5t80 -19.5q44 0 79.5 19t58.5 53l37 -32v0z" />
    <glyph glyph-name="acircumflex" unicode="&#xe2;" horiz-adv-x="527" 
d="M377 0v55q-61 -67 -160 -67q-31 0 -61 10t-54 30.5t-39 50.5t-15 69q0 40 15 70t39 50t54 29.5t61 9.5q50 0 90.5 -16t69.5 -50v87q0 49 -34.5 75.5t-87.5 26.5q-85 0 -148 -67l-35 52q77 80 193 80q38 0 72 -9t59.5 -28.5t40.5 -50.5t15 -75v-332h-75zM244 42
q40 0 75.5 15t57.5 45v91q-22 30 -57.5 45t-75.5 15q-53 0 -86 -29.5t-33 -76.5q0 -46 33 -75.5t86 -29.5zM347 556l-83 106l-80 -106h-51l95 144h72l98 -144h-51z" />
    <glyph glyph-name="adieresis" unicode="&#xe4;" horiz-adv-x="527" 
d="M377 0v55q-61 -67 -160 -67q-31 0 -61 10t-54 30.5t-39 50.5t-15 69q0 40 15 70t39 50t54 29.5t61 9.5q50 0 90.5 -16t69.5 -50v87q0 49 -34.5 75.5t-87.5 26.5q-85 0 -148 -67l-35 52q77 80 193 80q38 0 72 -9t59.5 -28.5t40.5 -50.5t15 -75v-332h-75zM244 42
q40 0 75.5 15t57.5 45v91q-22 30 -57.5 45t-75.5 15q-53 0 -86 -29.5t-33 -76.5q0 -46 33 -75.5t86 -29.5zM415 604q0 -20 -14 -33.5t-33 -13.5t-33 13.5t-14 33.5q0 19 14 32.5t33 13.5t33 -13.5t14 -32.5zM208 604q0 -20 -13.5 -33.5t-32.5 -13.5q-20 0 -33.5 13.5
t-13.5 33.5q0 19 13.5 32.5t33.5 13.5q19 0 32.5 -13.5t13.5 -32.5z" />
    <glyph glyph-name="agrave" unicode="&#xe0;" horiz-adv-x="527" 
d="M377 0v55q-61 -67 -160 -67q-31 0 -61 10t-54 30.5t-39 50.5t-15 69q0 40 15 70t39 50t54 29.5t61 9.5q50 0 90.5 -16t69.5 -50v87q0 49 -34.5 75.5t-87.5 26.5q-85 0 -148 -67l-35 52q77 80 193 80q38 0 72 -9t59.5 -28.5t40.5 -50.5t15 -75v-332h-75zM244 42
q40 0 75.5 15t57.5 45v91q-22 30 -57.5 45t-75.5 15q-53 0 -86 -29.5t-33 -76.5q0 -46 33 -75.5t86 -29.5zM265 556l-169 144h78l148 -144h-57z" />
    <glyph glyph-name="amacron" unicode="&#x101;" horiz-adv-x="527" 
d="M377 0v55q-61 -67 -160 -67q-31 0 -61 10t-54 30.5t-39 50.5t-15 69q0 40 15 70t39 50t54 29.5t61 9.5q50 0 90.5 -16t69.5 -50v87q0 49 -34.5 75.5t-87.5 26.5q-85 0 -148 -67l-35 52q77 80 193 80q38 0 72 -9t59.5 -28.5t40.5 -50.5t15 -75v-332h-75zM244 42
q40 0 75.5 15t57.5 45v91q-22 30 -57.5 45t-75.5 15q-53 0 -86 -29.5t-33 -76.5q0 -46 33 -75.5t86 -29.5zM82 572v48h363v-48h-363z" />
    <glyph glyph-name="aogonek" unicode="&#x105;" horiz-adv-x="527" 
d="M509 -126q-11 -24 -32 -42t-57 -18q-35 0 -62 20.5t-27 66.5q0 29 14 54t39 45h-7v55q-61 -67 -160 -67q-31 0 -61 10t-54 30.5t-39 50.5t-15 69q0 40 15 70t39 50t54 29.5t61 9.5q50 0 90.5 -16t69.5 -50v87q0 49 -34.5 75.5t-87.5 26.5q-85 0 -148 -67l-35 52
q77 80 193 80q38 0 72 -9t59.5 -28.5t40.5 -50.5t15 -75v-332q-36 -18 -56 -41.5t-20 -55.5q0 -26 12 -38t32 -12q21 0 33 11t19 31zM244 42q40 0 75.5 15t57.5 45v91q-22 30 -57.5 45t-75.5 15q-53 0 -86 -29.5t-33 -76.5q0 -46 33 -75.5t86 -29.5z" />
    <glyph glyph-name="aring" unicode="&#xe5;" horiz-adv-x="527" 
d="M377 0v55q-61 -67 -160 -67q-31 0 -61 10t-54 30.5t-39 50.5t-15 69q0 40 15 70t39 50t54 29.5t61 9.5q50 0 90.5 -16t69.5 -50v87q0 49 -34.5 75.5t-87.5 26.5q-85 0 -148 -67l-35 52q77 80 193 80q38 0 72 -9t59.5 -28.5t40.5 -50.5t15 -75v-332h-75zM244 42
q40 0 75.5 15t57.5 45v91q-22 30 -57.5 45t-75.5 15q-53 0 -86 -29.5t-33 -76.5q0 -46 33 -75.5t86 -29.5zM265 543q-41 0 -69.5 28.5t-28.5 69.5q0 20 7.5 38t21 31.5t31.5 21.5t38 8t38 -8t31.5 -21.5t21 -31.5t7.5 -38q0 -41 -28.5 -69.5t-69.5 -28.5zM265 582
q25 0 41.5 17.5t16.5 41.5q0 25 -16.5 42t-41.5 17q-24 0 -41 -17t-17 -42q0 -24 17 -41.5t41 -17.5z" />
    <glyph glyph-name="atilde" unicode="&#xe3;" horiz-adv-x="527" 
d="M377 0v55q-61 -67 -160 -67q-31 0 -61 10t-54 30.5t-39 50.5t-15 69q0 40 15 70t39 50t54 29.5t61 9.5q50 0 90.5 -16t69.5 -50v87q0 49 -34.5 75.5t-87.5 26.5q-85 0 -148 -67l-35 52q77 80 193 80q38 0 72 -9t59.5 -28.5t40.5 -50.5t15 -75v-332h-75zM244 42
q40 0 75.5 15t57.5 45v91q-22 30 -57.5 45t-75.5 15q-53 0 -86 -29.5t-33 -76.5q0 -46 33 -75.5t86 -29.5zM325 554q-27 0 -43 14.5t-28 31.5t-23 31.5t-29 14.5q-20 0 -34 -20.5t-14 -65.5h-45q0 59 24.5 96.5t72.5 37.5q27 0 43 -14.5t27.5 -31.5t23 -31.5t29.5 -14.5
q20 0 34 20.5t14 65.5h45q0 -59 -24.5 -96.5t-72.5 -37.5z" />
    <glyph glyph-name="uni1EA1" unicode="&#x1ea1;" horiz-adv-x="527" 
d="M377 0v55q-61 -67 -160 -67q-31 0 -61 10t-54 30.5t-39 50.5t-15 69q0 40 15 70t39 50t54 29.5t61 9.5q50 0 90.5 -16t69.5 -50v87q0 49 -34.5 75.5t-87.5 26.5q-85 0 -148 -67l-35 52q77 80 193 80q38 0 72 -9t59.5 -28.5t40.5 -50.5t15 -75v-332h-75zM244 42
q40 0 75.5 15t57.5 45v91q-22 30 -57.5 45t-75.5 15q-53 0 -86 -29.5t-33 -76.5q0 -46 33 -75.5t86 -29.5zM264 -183q-19 0 -33 13.5t-14 33.5t14 33.5t33 13.5q20 0 33 -13.5t13 -33.5t-13 -33.5t-33 -13.5z" />
    <glyph glyph-name="uni1EA3" unicode="&#x1ea3;" horiz-adv-x="527" 
d="M377 0v55q-61 -67 -160 -67q-31 0 -61 10t-54 30.5t-39 50.5t-15 69q0 40 15 70t39 50t54 29.5t61 9.5q50 0 90.5 -16t69.5 -50v87q0 49 -34.5 75.5t-87.5 26.5q-85 0 -148 -67l-35 52q77 80 193 80q38 0 72 -9t59.5 -28.5t40.5 -50.5t15 -75v-332h-75zM244 42
q40 0 75.5 15t57.5 45v91q-22 30 -57.5 45t-75.5 15q-53 0 -86 -29.5t-33 -76.5q0 -46 33 -75.5t86 -29.5zM191 596q8 23 26 39t47 16t50.5 -16.5t21.5 -52.5q0 -17 -4.5 -28.5t-14.5 -25.5h-40q13 13 18 26t5 26q0 20 -9.5 29.5t-26.5 9.5q-29 0 -40 -32z" />
    <glyph glyph-name="uni1EA5" unicode="&#x1ea5;" horiz-adv-x="527" 
d="M377 0v55q-61 -67 -160 -67q-31 0 -61 10t-54 30.5t-39 50.5t-15 69q0 40 15 70t39 50t54 29.5t61 9.5q50 0 90.5 -16t69.5 -50v87q0 49 -34.5 75.5t-87.5 26.5q-85 0 -148 -67l-35 52q77 80 193 80q38 0 72 -9t59.5 -28.5t40.5 -50.5t15 -75v-332h-75zM244 42
q40 0 75.5 15t57.5 45v91q-22 30 -57.5 45t-75.5 15q-53 0 -86 -29.5t-33 -76.5q0 -46 33 -75.5t86 -29.5zM347 556l-83 106l-80 -106h-51l95 144h72l98 -144h-51zM418 626h-57l148 144h78z" />
    <glyph glyph-name="uni1EAD" unicode="&#x1ead;" horiz-adv-x="527" 
d="M377 0v55q-61 -67 -160 -67q-31 0 -61 10t-54 30.5t-39 50.5t-15 69q0 40 15 70t39 50t54 29.5t61 9.5q50 0 90.5 -16t69.5 -50v87q0 49 -34.5 75.5t-87.5 26.5q-85 0 -148 -67l-35 52q77 80 193 80q38 0 72 -9t59.5 -28.5t40.5 -50.5t15 -75v-332h-75zM244 42
q40 0 75.5 15t57.5 45v91q-22 30 -57.5 45t-75.5 15q-53 0 -86 -29.5t-33 -76.5q0 -46 33 -75.5t86 -29.5zM345 556l-83 106l-80 -106h-51l95 144h72l98 -144h-51zM264 -183q-19 0 -33 13.5t-14 33.5t14 33.5t33 13.5q20 0 33 -13.5t13 -33.5t-13 -33.5t-33 -13.5z" />
    <glyph glyph-name="uni1EA7" unicode="&#x1ea7;" horiz-adv-x="527" 
d="M377 0v55q-61 -67 -160 -67q-31 0 -61 10t-54 30.5t-39 50.5t-15 69q0 40 15 70t39 50t54 29.5t61 9.5q50 0 90.5 -16t69.5 -50v87q0 49 -34.5 75.5t-87.5 26.5q-85 0 -148 -67l-35 52q77 80 193 80q38 0 72 -9t59.5 -28.5t40.5 -50.5t15 -75v-332h-75zM244 42
q40 0 75.5 15t57.5 45v91q-22 30 -57.5 45t-75.5 15q-53 0 -86 -29.5t-33 -76.5q0 -46 33 -75.5t86 -29.5zM347 556l-83 106l-80 -106h-51l95 144h72l98 -144h-51zM113 626l-169 144h78l148 -144h-57z" />
    <glyph glyph-name="uni1EA9" unicode="&#x1ea9;" horiz-adv-x="527" 
d="M377 0v55q-61 -67 -160 -67q-31 0 -61 10t-54 30.5t-39 50.5t-15 69q0 40 15 70t39 50t54 29.5t61 9.5q50 0 90.5 -16t69.5 -50v87q0 49 -34.5 75.5t-87.5 26.5q-85 0 -148 -67l-35 52q77 80 193 80q38 0 72 -9t59.5 -28.5t40.5 -50.5t15 -75v-332h-75zM244 42
q40 0 75.5 15t57.5 45v91q-22 30 -57.5 45t-75.5 15q-53 0 -86 -29.5t-33 -76.5q0 -46 33 -75.5t86 -29.5zM347 556l-83 106l-80 -106h-51l95 144h72l98 -144h-51zM282 735q8 23 26 39t47 16t50.5 -16.5t21.5 -52.5q0 -17 -4.5 -28.5t-14.5 -25.5h-40q13 13 18 26t5 26
q0 20 -9.5 29.5t-26.5 9.5q-29 0 -40 -32z" />
    <glyph glyph-name="uni1EAF" unicode="&#x1eaf;" horiz-adv-x="527" 
d="M377 0v55q-61 -67 -160 -67q-31 0 -61 10t-54 30.5t-39 50.5t-15 69q0 40 15 70t39 50t54 29.5t61 9.5q50 0 90.5 -16t69.5 -50v87q0 49 -34.5 75.5t-87.5 26.5q-85 0 -148 -67l-35 52q77 80 193 80q38 0 72 -9t59.5 -28.5t40.5 -50.5t15 -75v-332h-75zM244 42
q40 0 75.5 15t57.5 45v91q-22 30 -57.5 45t-75.5 15q-53 0 -86 -29.5t-33 -76.5q0 -46 33 -75.5t86 -29.5zM266 622h-57l148 144h78zM440 610q-30 -41 -75.5 -64.5t-99.5 -23.5t-99.5 23.5t-76.5 64.5l37 32q24 -33 59 -52.5t80 -19.5q44 0 79.5 19t58.5 53l37 -32v0z" />
    <glyph glyph-name="uni1EAB" unicode="&#x1eab;" horiz-adv-x="527" 
d="M377 0v55q-61 -67 -160 -67q-31 0 -61 10t-54 30.5t-39 50.5t-15 69q0 40 15 70t39 50t54 29.5t61 9.5q50 0 90.5 -16t69.5 -50v87q0 49 -34.5 75.5t-87.5 26.5q-85 0 -148 -67l-35 52q77 80 193 80q38 0 72 -9t59.5 -28.5t40.5 -50.5t15 -75v-332h-75zM244 42
q40 0 75.5 15t57.5 45v91q-22 30 -57.5 45t-75.5 15q-53 0 -86 -29.5t-33 -76.5q0 -46 33 -75.5t86 -29.5zM347 524l-83 106l-80 -106h-51l95 144h72l98 -144h-51zM323 682q-27 0 -43 14.5t-28 31.5t-23 31.5t-29 14.5q-20 0 -34 -20.5t-14 -65.5h-45q0 59 24.5 96.5
t72.5 37.5q27 0 43 -14.5t27.5 -31.5t23 -31.5t29.5 -14.5q20 0 34 20.5t14 65.5h45q0 -59 -24.5 -96.5t-72.5 -37.5z" />
    <glyph glyph-name="uni1EB1" unicode="&#x1eb1;" horiz-adv-x="527" 
d="M377 0v55q-61 -67 -160 -67q-31 0 -61 10t-54 30.5t-39 50.5t-15 69q0 40 15 70t39 50t54 29.5t61 9.5q50 0 90.5 -16t69.5 -50v87q0 49 -34.5 75.5t-87.5 26.5q-85 0 -148 -67l-35 52q77 80 193 80q38 0 72 -9t59.5 -28.5t40.5 -50.5t15 -75v-332h-75zM244 42
q40 0 75.5 15t57.5 45v91q-22 30 -57.5 45t-75.5 15q-53 0 -86 -29.5t-33 -76.5q0 -46 33 -75.5t86 -29.5zM262 622l-169 144h78l148 -144h-57zM440 614q-30 -41 -75.5 -64.5t-99.5 -23.5t-99.5 23.5t-76.5 64.5l37 32q24 -33 59 -52.5t80 -19.5q44 0 79.5 19t58.5 53
l37 -32v0z" />
    <glyph glyph-name="uni1EB3" unicode="&#x1eb3;" horiz-adv-x="527" 
d="M377 0v55q-61 -67 -160 -67q-31 0 -61 10t-54 30.5t-39 50.5t-15 69q0 40 15 70t39 50t54 29.5t61 9.5q50 0 90.5 -16t69.5 -50v87q0 49 -34.5 75.5t-87.5 26.5q-85 0 -148 -67l-35 52q77 80 193 80q38 0 72 -9t59.5 -28.5t40.5 -50.5t15 -75v-332h-75zM244 42
q40 0 75.5 15t57.5 45v91q-22 30 -57.5 45t-75.5 15q-53 0 -86 -29.5t-33 -76.5q0 -46 33 -75.5t86 -29.5zM191 691q8 23 26 39t47 16t50.5 -16.5t21.5 -52.5q0 -17 -4.5 -28.5t-14.5 -25.5h-40q13 13 18 26t5 26q0 20 -9.5 29.5t-26.5 9.5q-29 0 -40 -32zM440 614
q-30 -41 -75.5 -64.5t-99.5 -23.5t-99.5 23.5t-76.5 64.5l37 32q24 -33 59 -52.5t80 -19.5q44 0 79.5 19t58.5 53l37 -32v0z" />
    <glyph glyph-name="uni1EB5" unicode="&#x1eb5;" horiz-adv-x="527" 
d="M377 0v55q-61 -67 -160 -67q-31 0 -61 10t-54 30.5t-39 50.5t-15 69q0 40 15 70t39 50t54 29.5t61 9.5q50 0 90.5 -16t69.5 -50v87q0 49 -34.5 75.5t-87.5 26.5q-85 0 -148 -67l-35 52q77 80 193 80q38 0 72 -9t59.5 -28.5t40.5 -50.5t15 -75v-332h-75zM244 42
q40 0 75.5 15t57.5 45v91q-22 30 -57.5 45t-75.5 15q-53 0 -86 -29.5t-33 -76.5q0 -46 33 -75.5t86 -29.5zM440 614q-30 -41 -75.5 -64.5t-99.5 -23.5t-99.5 23.5t-76.5 64.5l37 32q24 -33 59 -52.5t80 -19.5q44 0 79.5 19t58.5 53l37 -32v0zM323 657q-27 0 -43 14.5
t-28 31.5t-23 31.5t-29 14.5q-20 0 -34 -20.5t-14 -65.5h-45q0 59 24.5 96.5t72.5 37.5q27 0 43 -14.5t27.5 -31.5t23 -31.5t29.5 -14.5q20 0 34 20.5t14 65.5h45q0 -59 -24.5 -96.5t-72.5 -37.5z" />
    <glyph glyph-name="uni1EB7" unicode="&#x1eb7;" horiz-adv-x="527" 
d="M377 0v55q-61 -67 -160 -67q-31 0 -61 10t-54 30.5t-39 50.5t-15 69q0 40 15 70t39 50t54 29.5t61 9.5q50 0 90.5 -16t69.5 -50v87q0 49 -34.5 75.5t-87.5 26.5q-85 0 -148 -67l-35 52q77 80 193 80q38 0 72 -9t59.5 -28.5t40.5 -50.5t15 -75v-332h-75zM244 42
q40 0 75.5 15t57.5 45v91q-22 30 -57.5 45t-75.5 15q-53 0 -86 -29.5t-33 -76.5q0 -46 33 -75.5t86 -29.5zM264 -183q-19 0 -33 13.5t-14 33.5t14 33.5t33 13.5q20 0 33 -13.5t13 -33.5t-13 -33.5t-33 -13.5zM437 626q-30 -41 -75.5 -64.5t-99.5 -23.5t-99.5 23.5
t-76.5 64.5l37 32q24 -33 59 -52.5t80 -19.5q44 0 79.5 19t58.5 53l37 -32v0z" />
    <glyph glyph-name="ae" unicode="&#xe6;" horiz-adv-x="889" 
d="M476 217q3 -34 15 -64t32.5 -52.5t49 -35.5t64.5 -13q39 0 75.5 15.5t63.5 45.5l36 -51q-35 -36 -81 -55t-97 -19q-64 0 -114 28t-79 88q-26 -52 -79 -84t-120 -32q-39 0 -74 10t-62 30.5t-42.5 50.5t-15.5 69t14.5 68.5t39 50t57 30.5t67.5 10q54 0 98.5 -15.5
t76.5 -48.5v86q0 48 -36.5 74.5t-96.5 26.5q-48 0 -87 -16t-74 -51l-35 52q79 80 205 80q30 0 57.5 -6t50.5 -19t39.5 -32.5t23.5 -47.5q25 44 69 74.5t110 30.5q52 0 92 -20t67.5 -55t42 -82.5t14.5 -101.5v-19h-367zM769 272q0 27 -8.5 55.5t-26.5 52t-45.5 38.5t-66.5 15
q-36 0 -62.5 -15t-45 -38t-28 -51.5t-10.5 -56.5h293zM401 192q-25 29 -63.5 45t-81.5 16q-59 0 -95 -27.5t-36 -73.5t36 -73t95 -27q32 0 58.5 11t46 29t30 41t10.5 47v12z" />
    <glyph glyph-name="aeacute" unicode="&#x1fd;" horiz-adv-x="889" 
d="M417 556h-57l148 144h78zM476 217q3 -34 15 -64t32.5 -52.5t49 -35.5t64.5 -13q39 0 75.5 15.5t63.5 45.5l36 -51q-35 -36 -81 -55t-97 -19q-64 0 -114 28t-79 88q-26 -52 -79 -84t-120 -32q-39 0 -74 10t-62 30.5t-42.5 50.5t-15.5 69t14.5 68.5t39 50t57 30.5t67.5 10
q54 0 98.5 -15.5t76.5 -48.5v86q0 48 -36.5 74.5t-96.5 26.5q-48 0 -87 -16t-74 -51l-35 52q79 80 205 80q30 0 57.5 -6t50.5 -19t39.5 -32.5t23.5 -47.5q25 44 69 74.5t110 30.5q52 0 92 -20t67.5 -55t42 -82.5t14.5 -101.5v-19h-367zM769 272q0 27 -8.5 55.5t-26.5 52
t-45.5 38.5t-66.5 15q-36 0 -62.5 -15t-45 -38t-28 -51.5t-10.5 -56.5h293zM401 192q-25 29 -63.5 45t-81.5 16q-59 0 -95 -27.5t-36 -73.5t36 -73t95 -27q32 0 58.5 11t46 29t30 41t10.5 47v12z" />
    <glyph glyph-name="aacute.alt1" horiz-adv-x="575" 
d="M281 556h-57l148 144h78zM425 0v72q-27 -37 -69.5 -60.5t-93.5 -23.5q-47 0 -86.5 17.5t-68 50t-44.5 79.5t-16 106q0 58 15.5 105t44 80t68 51t87.5 18q49 0 91 -22.5t71 -62.5v73h76v-483h-75zM280 55q45 0 85 22t60 54v219q-20 32 -60 55t-85 23q-36 0 -65 -14
t-49 -39t-30.5 -59.5t-10.5 -74.5t10.5 -74t30.5 -59t49 -39t65 -14z" />
    <glyph glyph-name="abreve.alt1" horiz-adv-x="575" 
d="M425 0v72q-27 -37 -69.5 -60.5t-93.5 -23.5q-47 0 -86.5 17.5t-68 50t-44.5 79.5t-16 106q0 58 15.5 105t44 80t68 51t87.5 18q49 0 91 -22.5t71 -62.5v73h76v-483h-75zM280 55q45 0 85 22t60 54v219q-20 32 -60 55t-85 23q-36 0 -65 -14t-49 -39t-30.5 -59.5
t-10.5 -74.5t10.5 -74t30.5 -59t49 -39t65 -14zM469 626q-30 -41 -75.5 -64.5t-99.5 -23.5t-99.5 23.5t-76.5 64.5l37 32q24 -33 59 -52.5t80 -19.5q44 0 79.5 19t58.5 53l37 -32v0z" />
    <glyph glyph-name="acircumflex.alt1" horiz-adv-x="575" 
d="M376 556l-83 106l-80 -106h-51l95 144h72l98 -144h-51zM425 0v72q-27 -37 -69.5 -60.5t-93.5 -23.5q-47 0 -86.5 17.5t-68 50t-44.5 79.5t-16 106q0 58 15.5 105t44 80t68 51t87.5 18q49 0 91 -22.5t71 -62.5v73h76v-483h-75zM280 55q45 0 85 22t60 54v219q-20 32 -60 55
t-85 23q-36 0 -65 -14t-49 -39t-30.5 -59.5t-10.5 -74.5t10.5 -74t30.5 -59t49 -39t65 -14z" />
    <glyph glyph-name="adieresis.alt1" horiz-adv-x="575" 
d="M444 604q0 -20 -14 -33.5t-33 -13.5t-33 13.5t-14 33.5q0 19 14 32.5t33 13.5t33 -13.5t14 -32.5zM237 604q0 -20 -13.5 -33.5t-32.5 -13.5q-20 0 -33.5 13.5t-13.5 33.5q0 19 13.5 32.5t33.5 13.5q19 0 32.5 -13.5t13.5 -32.5zM425 0v72q-27 -37 -69.5 -60.5
t-93.5 -23.5q-47 0 -86.5 17.5t-68 50t-44.5 79.5t-16 106q0 58 15.5 105t44 80t68 51t87.5 18q49 0 91 -22.5t71 -62.5v73h76v-483h-75zM280 55q45 0 85 22t60 54v219q-20 32 -60 55t-85 23q-36 0 -65 -14t-49 -39t-30.5 -59.5t-10.5 -74.5t10.5 -74t30.5 -59t49 -39
t65 -14z" />
    <glyph glyph-name="agrave.alt1" horiz-adv-x="575" 
d="M425 0v72q-27 -37 -69.5 -60.5t-93.5 -23.5q-47 0 -86.5 17.5t-68 50t-44.5 79.5t-16 106q0 58 15.5 105t44 80t68 51t87.5 18q49 0 91 -22.5t71 -62.5v73h76v-483h-75zM280 55q45 0 85 22t60 54v219q-20 32 -60 55t-85 23q-36 0 -65 -14t-49 -39t-30.5 -59.5
t-10.5 -74.5t10.5 -74t30.5 -59t49 -39t65 -14zM281 556l-169 144h78l148 -144h-57z" />
    <glyph glyph-name="amacron.alt1" horiz-adv-x="575" 
d="M113 572v48h363v-48h-363zM425 0v72q-27 -37 -69.5 -60.5t-93.5 -23.5q-47 0 -86.5 17.5t-68 50t-44.5 79.5t-16 106q0 58 15.5 105t44 80t68 51t87.5 18q49 0 91 -22.5t71 -62.5v73h76v-483h-75zM280 55q45 0 85 22t60 54v219q-20 32 -60 55t-85 23q-36 0 -65 -14
t-49 -39t-30.5 -59.5t-10.5 -74.5t10.5 -74t30.5 -59t49 -39t65 -14z" />
    <glyph glyph-name="aogonek.alt1" horiz-adv-x="575" 
d="M500 0q-36 -18 -56 -41.5t-20 -55.5q0 -26 12 -38t32 -12q21 0 33 11t19 31l37 -21q-11 -24 -32 -42t-57 -18q-35 0 -62 20.5t-27 66.5q0 29 14 54t39 45h-7v72q-27 -37 -69.5 -60.5t-93.5 -23.5q-47 0 -86.5 17.5t-68 50t-44.5 79.5t-16 106q0 58 15.5 105t44 80t68 51
t87.5 18q49 0 91 -22.5t71 -62.5v73h76v-483zM280 55q45 0 85 22t60 54v219q-20 32 -60 55t-85 23q-36 0 -65 -14t-49 -39t-30.5 -59.5t-10.5 -74.5t10.5 -74t30.5 -59t49 -39t65 -14z" />
    <glyph glyph-name="aring.alt1" horiz-adv-x="575" 
d="M292 543q-41 0 -69.5 28.5t-28.5 69.5q0 20 7.5 38t21 31.5t31.5 21.5t38 8t38 -8t31.5 -21.5t21 -31.5t7.5 -38q0 -41 -28.5 -69.5t-69.5 -28.5zM292 582q25 0 41.5 17.5t16.5 41.5q0 25 -16.5 42t-41.5 17q-24 0 -41 -17t-17 -42q0 -24 17 -41.5t41 -17.5zM425 0v72
q-27 -37 -69.5 -60.5t-93.5 -23.5q-47 0 -86.5 17.5t-68 50t-44.5 79.5t-16 106q0 58 15.5 105t44 80t68 51t87.5 18q49 0 91 -22.5t71 -62.5v73h76v-483h-75zM280 55q45 0 85 22t60 54v219q-20 32 -60 55t-85 23q-36 0 -65 -14t-49 -39t-30.5 -59.5t-10.5 -74.5t10.5 -74
t30.5 -59t49 -39t65 -14z" />
    <glyph glyph-name="atilde.alt1" horiz-adv-x="575" 
d="M425 0v72q-27 -37 -69.5 -60.5t-93.5 -23.5q-47 0 -86.5 17.5t-68 50t-44.5 79.5t-16 106q0 58 15.5 105t44 80t68 51t87.5 18q49 0 91 -22.5t71 -62.5v73h76v-483h-75zM280 55q45 0 85 22t60 54v219q-20 32 -60 55t-85 23q-36 0 -65 -14t-49 -39t-30.5 -59.5
t-10.5 -74.5t10.5 -74t30.5 -59t49 -39t65 -14zM353 554q-27 0 -43 14.5t-28 31.5t-23 31.5t-29 14.5q-20 0 -34 -20.5t-14 -65.5h-45q0 59 24.5 96.5t72.5 37.5q27 0 43 -14.5t27.5 -31.5t23 -31.5t29.5 -14.5q20 0 34 20.5t14 65.5h45q0 -59 -24.5 -96.5t-72.5 -37.5z" />
    <glyph glyph-name="uni1EA1.alt1" horiz-adv-x="575" 
d="M425 0v72q-27 -37 -69.5 -60.5t-93.5 -23.5q-47 0 -86.5 17.5t-68 50t-44.5 79.5t-16 106q0 58 15.5 105t44 80t68 51t87.5 18q49 0 91 -22.5t71 -62.5v73h76v-483h-75zM280 55q45 0 85 22t60 54v219q-20 32 -60 55t-85 23q-36 0 -65 -14t-49 -39t-30.5 -59.5
t-10.5 -74.5t10.5 -74t30.5 -59t49 -39t65 -14zM292 -183q-19 0 -33 13.5t-14 33.5t14 33.5t33 13.5q20 0 33 -13.5t13 -33.5t-13 -33.5t-33 -13.5z" />
    <glyph glyph-name="uni1EA3.alt1" horiz-adv-x="575" 
d="M425 0v72q-27 -37 -69.5 -60.5t-93.5 -23.5q-47 0 -86.5 17.5t-68 50t-44.5 79.5t-16 106q0 58 15.5 105t44 80t68 51t87.5 18q49 0 91 -22.5t71 -62.5v73h76v-483h-75zM280 55q45 0 85 22t60 54v219q-20 32 -60 55t-85 23q-36 0 -65 -14t-49 -39t-30.5 -59.5
t-10.5 -74.5t10.5 -74t30.5 -59t49 -39t65 -14zM222 596q8 23 26 39t47 16t50.5 -16.5t21.5 -52.5q0 -17 -4.5 -28.5t-14.5 -25.5h-40q13 13 18 26t5 26q0 20 -9.5 29.5t-26.5 9.5q-29 0 -40 -32z" />
    <glyph glyph-name="uni1EA5.alt1" horiz-adv-x="575" 
d="M376 556l-83 106l-80 -106h-51l95 144h72l98 -144h-51zM444 626h-57l148 144h78zM425 0v72q-27 -37 -69.5 -60.5t-93.5 -23.5q-47 0 -86.5 17.5t-68 50t-44.5 79.5t-16 106q0 58 15.5 105t44 80t68 51t87.5 18q49 0 91 -22.5t71 -62.5v73h76v-483h-75zM280 55q45 0 85 22
t60 54v219q-20 32 -60 55t-85 23q-36 0 -65 -14t-49 -39t-30.5 -59.5t-10.5 -74.5t10.5 -74t30.5 -59t49 -39t65 -14z" />
    <glyph glyph-name="uni1EAD.alt1" horiz-adv-x="575" 
d="M377 556l-83 106l-80 -106h-51l95 144h72l98 -144h-51zM425 0v72q-27 -37 -69.5 -60.5t-93.5 -23.5q-47 0 -86.5 17.5t-68 50t-44.5 79.5t-16 106q0 58 15.5 105t44 80t68 51t87.5 18q49 0 91 -22.5t71 -62.5v73h76v-483h-75zM280 55q45 0 85 22t60 54v219q-20 32 -60 55
t-85 23q-36 0 -65 -14t-49 -39t-30.5 -59.5t-10.5 -74.5t10.5 -74t30.5 -59t49 -39t65 -14zM295 -183q-19 0 -33 13.5t-14 33.5t14 33.5t33 13.5q20 0 33 -13.5t13 -33.5t-13 -33.5t-33 -13.5z" />
    <glyph glyph-name="uni1EA7.alt1" horiz-adv-x="575" 
d="M376 556l-83 106l-80 -106h-51l95 144h72l98 -144h-51zM425 0v72q-27 -37 -69.5 -60.5t-93.5 -23.5q-47 0 -86.5 17.5t-68 50t-44.5 79.5t-16 106q0 58 15.5 105t44 80t68 51t87.5 18q49 0 91 -22.5t71 -62.5v73h76v-483h-75zM280 55q45 0 85 22t60 54v219q-20 32 -60 55
t-85 23q-36 0 -65 -14t-49 -39t-30.5 -59.5t-10.5 -74.5t10.5 -74t30.5 -59t49 -39t65 -14zM142 626l-169 144h78l148 -144h-57z" />
    <glyph glyph-name="uni1EA9.alt1" horiz-adv-x="575" 
d="M376 556l-83 106l-80 -106h-51l95 144h72l98 -144h-51zM425 0v72q-27 -37 -69.5 -60.5t-93.5 -23.5q-47 0 -86.5 17.5t-68 50t-44.5 79.5t-16 106q0 58 15.5 105t44 80t68 51t87.5 18q49 0 91 -22.5t71 -62.5v73h76v-483h-75zM280 55q45 0 85 22t60 54v219q-20 32 -60 55
t-85 23q-36 0 -65 -14t-49 -39t-30.5 -59.5t-10.5 -74.5t10.5 -74t30.5 -59t49 -39t65 -14zM310 735q8 23 26 39t47 16t50.5 -16.5t21.5 -52.5q0 -17 -4.5 -28.5t-14.5 -25.5h-40q13 13 18 26t5 26q0 20 -9.5 29.5t-26.5 9.5q-29 0 -40 -32z" />
    <glyph glyph-name="uni1EAF.alt1" horiz-adv-x="575" 
d="M291 622h-57l148 144h78zM425 0v72q-27 -37 -69.5 -60.5t-93.5 -23.5q-47 0 -86.5 17.5t-68 50t-44.5 79.5t-16 106q0 58 15.5 105t44 80t68 51t87.5 18q49 0 91 -22.5t71 -62.5v73h76v-483h-75zM280 55q45 0 85 22t60 54v219q-20 32 -60 55t-85 23q-36 0 -65 -14
t-49 -39t-30.5 -59.5t-10.5 -74.5t10.5 -74t30.5 -59t49 -39t65 -14zM467 610q-30 -41 -75.5 -64.5t-99.5 -23.5t-99.5 23.5t-76.5 64.5l37 32q24 -33 59 -52.5t80 -19.5q44 0 79.5 19t58.5 53l37 -32v0z" />
    <glyph glyph-name="uni1EAB.alt1" horiz-adv-x="575" 
d="M376 524l-83 106l-80 -106h-51l95 144h72l98 -144h-51zM425 0v72q-27 -37 -69.5 -60.5t-93.5 -23.5q-47 0 -86.5 17.5t-68 50t-44.5 79.5t-16 106q0 58 15.5 105t44 80t68 51t87.5 18q49 0 91 -22.5t71 -62.5v73h76v-483h-75zM280 55q45 0 85 22t60 54v219q-20 32 -60 55
t-85 23q-36 0 -65 -14t-49 -39t-30.5 -59.5t-10.5 -74.5t10.5 -74t30.5 -59t49 -39t65 -14zM349 682q-27 0 -43 14.5t-28 31.5t-23 31.5t-29 14.5q-20 0 -34 -20.5t-14 -65.5h-45q0 59 24.5 96.5t72.5 37.5q27 0 43 -14.5t27.5 -31.5t23 -31.5t29.5 -14.5q20 0 34 20.5
t14 65.5h45q0 -59 -24.5 -96.5t-72.5 -37.5z" />
    <glyph glyph-name="uni1EB1.alt1" horiz-adv-x="575" 
d="M425 0v72q-27 -37 -69.5 -60.5t-93.5 -23.5q-47 0 -86.5 17.5t-68 50t-44.5 79.5t-16 106q0 58 15.5 105t44 80t68 51t87.5 18q49 0 91 -22.5t71 -62.5v73h76v-483h-75zM280 55q45 0 85 22t60 54v219q-20 32 -60 55t-85 23q-36 0 -65 -14t-49 -39t-30.5 -59.5
t-10.5 -74.5t10.5 -74t30.5 -59t49 -39t65 -14zM287 622l-169 144h78l148 -144h-57zM467 614q-30 -41 -75.5 -64.5t-99.5 -23.5t-99.5 23.5t-76.5 64.5l37 32q24 -33 59 -52.5t80 -19.5q44 0 79.5 19t58.5 53l37 -32v0z" />
    <glyph glyph-name="uni1EB3.alt1" horiz-adv-x="575" 
d="M425 0v72q-27 -37 -69.5 -60.5t-93.5 -23.5q-47 0 -86.5 17.5t-68 50t-44.5 79.5t-16 106q0 58 15.5 105t44 80t68 51t87.5 18q49 0 91 -22.5t71 -62.5v73h76v-483h-75zM280 55q45 0 85 22t60 54v219q-20 32 -60 55t-85 23q-36 0 -65 -14t-49 -39t-30.5 -59.5
t-10.5 -74.5t10.5 -74t30.5 -59t49 -39t65 -14zM218 691q8 23 26 39t47 16t50.5 -16.5t21.5 -52.5q0 -17 -4.5 -28.5t-14.5 -25.5h-40q13 13 18 26t5 26q0 20 -9.5 29.5t-26.5 9.5q-29 0 -40 -32zM467 614q-30 -41 -75.5 -64.5t-99.5 -23.5t-99.5 23.5t-76.5 64.5l37 32
q24 -33 59 -52.5t80 -19.5q44 0 79.5 19t58.5 53l37 -32v0z" />
    <glyph glyph-name="uni1EB5.alt1" horiz-adv-x="575" 
d="M467 614q-30 -41 -75.5 -64.5t-99.5 -23.5t-99.5 23.5t-76.5 64.5l37 32q24 -33 59 -52.5t80 -19.5q44 0 79.5 19t58.5 53l37 -32v0zM425 0v72q-27 -37 -69.5 -60.5t-93.5 -23.5q-47 0 -86.5 17.5t-68 50t-44.5 79.5t-16 106q0 58 15.5 105t44 80t68 51t87.5 18
q49 0 91 -22.5t71 -62.5v73h76v-483h-75zM280 55q45 0 85 22t60 54v219q-20 32 -60 55t-85 23q-36 0 -65 -14t-49 -39t-30.5 -59.5t-10.5 -74.5t10.5 -74t30.5 -59t49 -39t65 -14zM349 658q-27 0 -43 14.5t-28 31.5t-23 31.5t-29 14.5q-20 0 -34 -20.5t-14 -65.5h-45
q0 59 24.5 96.5t72.5 37.5q27 0 43 -14.5t27.5 -31.5t23 -31.5t29.5 -14.5q20 0 34 20.5t14 65.5h45q0 -59 -24.5 -96.5t-72.5 -37.5z" />
    <glyph glyph-name="uni1EB7.alt1" horiz-adv-x="575" 
d="M425 0v72q-27 -37 -69.5 -60.5t-93.5 -23.5q-47 0 -86.5 17.5t-68 50t-44.5 79.5t-16 106q0 58 15.5 105t44 80t68 51t87.5 18q49 0 91 -22.5t71 -62.5v73h76v-483h-75zM280 55q45 0 85 22t60 54v219q-20 32 -60 55t-85 23q-36 0 -65 -14t-49 -39t-30.5 -59.5
t-10.5 -74.5t10.5 -74t30.5 -59t49 -39t65 -14zM295 -183q-19 0 -33 13.5t-14 33.5t14 33.5t33 13.5q20 0 33 -13.5t13 -33.5t-13 -33.5t-33 -13.5zM467 626q-30 -41 -75.5 -64.5t-99.5 -23.5t-99.5 23.5t-76.5 64.5l37 32q24 -33 59 -52.5t80 -19.5q44 0 79.5 19t58.5 53
l37 -32v0z" />
    <glyph glyph-name="ae.alt1" horiz-adv-x="936" 
d="M280 55q45 0 85 22t60 54v219q-20 32 -60 55t-85 23q-36 0 -65 -14t-49 -39t-30.5 -59.5t-10.5 -74.5t10.5 -74t30.5 -59t49 -39t65 -14zM500 0h-75v72q-27 -37 -69.5 -60.5t-93.5 -23.5q-47 0 -86.5 17.5t-68 50t-44.5 79.5t-16 106q0 58 15.5 105t44 80t68 51t87.5 18
q49 0 91 -22.5t71 -62.5v73h76v-98q25 48 68.5 79t106.5 31q51 0 91 -20t67.5 -55t42 -82.5t14.5 -101.5v-19h-390q2 -34 15 -64t35 -52.5t53 -35.5t70 -13q42 0 81.5 15.5t68.5 45.5l35 -51q-32 -33 -75.5 -53.5t-98.5 -20.5q-71 0 -116 32t-68 77v-97zM817 272
q-1 27 -10.5 55.5t-29 52t-49 38.5t-70.5 15q-39 0 -68 -15t-48.5 -38t-30 -51.5t-11.5 -56.5h317z" />
    <glyph glyph-name="aeacute.alt1" horiz-adv-x="936" 
d="M280 55q45 0 85 22t60 54v219q-20 32 -60 55t-85 23q-36 0 -65 -14t-49 -39t-30.5 -59.5t-10.5 -74.5t10.5 -74t30.5 -59t49 -39t65 -14zM500 0h-75v72q-27 -37 -69.5 -60.5t-93.5 -23.5q-47 0 -86.5 17.5t-68 50t-44.5 79.5t-16 106q0 58 15.5 105t44 80t68 51t87.5 18
q49 0 91 -22.5t71 -62.5v73h76v-98q25 48 68.5 79t106.5 31q51 0 91 -20t67.5 -55t42 -82.5t14.5 -101.5v-19h-390q2 -34 15 -64t35 -52.5t53 -35.5t70 -13q42 0 81.5 15.5t68.5 45.5l35 -51q-32 -33 -75.5 -53.5t-98.5 -20.5q-71 0 -116 32t-68 77v-97zM817 272
q-1 27 -10.5 55.5t-29 52t-49 38.5t-70.5 15q-39 0 -68 -15t-48.5 -38t-30 -51.5t-11.5 -56.5h317zM464 556h-57l148 144h78z" />
    <glyph glyph-name="uni1E03" unicode="&#x1e03;" horiz-adv-x="575" 
d="M150 131q20 -32 59.5 -54t84.5 -22q37 0 66 14t49 39t30.5 59t10.5 74t-10.5 74.5t-30.5 59.5t-49 39t-66 14q-45 0 -84.5 -23t-59.5 -55v-219zM75 0v667h75v-257q29 40 71 62.5t92 22.5q47 0 86.5 -18t68 -51t44.5 -80t16 -105q0 -59 -16 -106t-44.5 -79.5t-68 -50
t-86.5 -17.5q-51 0 -93.5 23.5t-69.5 60.5v-72h-75zM294 722q-19 0 -33 13.5t-14 33.5t14 33.5t33 13.5q20 0 33 -13.5t13 -33.5t-13 -33.5t-33 -13.5z" />
    <glyph glyph-name="cacute" unicode="&#x107;" horiz-adv-x="495" 
d="M287 556h-57l148 144h78zM288 -12q-54 0 -98.5 19.5t-76 53.5t-49 80.5t-17.5 100.5t17.5 100t49 80t76 53.5t98.5 19.5q66 0 107.5 -24t69.5 -60l-50 -46q-24 33 -54.5 48t-68.5 15q-39 0 -69.5 -14t-52.5 -39t-33.5 -59t-11.5 -74t11.5 -74.5t33.5 -59.5t52.5 -39
t69.5 -14q76 0 123 63l50 -46q-28 -36 -69.5 -60t-107.5 -24z" />
    <glyph glyph-name="ccedilla" unicode="&#xe7;" horiz-adv-x="495" 
d="M289 -189q-32 0 -59 9t-42 21l19 38q18 -15 39 -22t41 -7q24 0 42.5 11t18.5 31q0 16 -9 25.5t-28 9.5q-23 0 -38 -17l-33 19l22 61q-48 4 -88 25t-68 54.5t-43.5 77.5t-15.5 95q0 54 17.5 100t49 80t76 53.5t98.5 19.5q66 0 107.5 -24t69.5 -60l-50 -46q-24 33 -54.5 48
t-68.5 15q-39 0 -69.5 -14t-52.5 -39t-33.5 -59t-11.5 -74t11.5 -74.5t33.5 -59.5t52.5 -39t69.5 -14q76 0 123 63l50 -46q-26 -34 -63.5 -56.5t-95.5 -26.5l-16 -42q16 11 37 11q29 0 47.5 -18t18.5 -49q0 -37 -30.5 -58.5t-73.5 -21.5z" />
    <glyph glyph-name="ccircumflex" unicode="&#x109;" horiz-adv-x="495" 
d="M370 556l-83 106l-80 -106h-51l95 144h72l98 -144h-51zM288 -12q-54 0 -98.5 19.5t-76 53.5t-49 80.5t-17.5 100.5t17.5 100t49 80t76 53.5t98.5 19.5q66 0 107.5 -24t69.5 -60l-50 -46q-24 33 -54.5 48t-68.5 15q-39 0 -69.5 -14t-52.5 -39t-33.5 -59t-11.5 -74
t11.5 -74.5t33.5 -59.5t52.5 -39t69.5 -14q76 0 123 63l50 -46q-28 -36 -69.5 -60t-107.5 -24z" />
    <glyph glyph-name="cdotaccent" unicode="&#x10b;" horiz-adv-x="495" 
d="M288 -12q-54 0 -98.5 19.5t-76 53.5t-49 80.5t-17.5 100.5t17.5 100t49 80t76 53.5t98.5 19.5q66 0 107.5 -24t69.5 -60l-50 -46q-24 33 -54.5 48t-68.5 15q-39 0 -69.5 -14t-52.5 -39t-33.5 -59t-11.5 -74t11.5 -74.5t33.5 -59.5t52.5 -39t69.5 -14q76 0 123 63l50 -46
q-28 -36 -69.5 -60t-107.5 -24zM290 555q-19 0 -33 13.5t-14 33.5t14 33.5t33 13.5q20 0 33 -13.5t13 -33.5t-13 -33.5t-33 -13.5z" />
    <glyph glyph-name="ccaron" unicode="&#x10d;" horiz-adv-x="495" 
d="M254 556l-98 144h51l83 -106l80 106h51l-95 -144h-72zM288 -12q-54 0 -98.5 19.5t-76 53.5t-49 80.5t-17.5 100.5t17.5 100t49 80t76 53.5t98.5 19.5q66 0 107.5 -24t69.5 -60l-50 -46q-24 33 -54.5 48t-68.5 15q-39 0 -69.5 -14t-52.5 -39t-33.5 -59t-11.5 -74
t11.5 -74.5t33.5 -59.5t52.5 -39t69.5 -14q76 0 123 63l50 -46q-28 -36 -69.5 -60t-107.5 -24z" />
    <glyph glyph-name="dcaron" unicode="&#x10f;" horiz-adv-x="644" 
d="M648 613q0 -41 -21 -76.5t-50 -57.5l-33 26q23 15 39.5 39.5t18.5 46.5q-1 -1 -5 -1.5t-6 -0.5q-18 0 -30 12.5t-12 31.5q0 20 13 33.5t33 13.5q21 0 37 -17.5t16 -49.5zM425 0v72q-27 -37 -69.5 -60.5t-93.5 -23.5q-47 0 -86.5 17.5t-68 50t-44.5 79.5t-16 106
q0 58 15.5 105t44 80t68 51t87.5 18q49 0 91.5 -22.5t71.5 -62.5v257h75v-667h-75zM280 55q45 0 85 22t60 54v219q-20 32 -60 55t-85 23q-36 0 -65 -14t-49 -39t-30.5 -59.5t-10.5 -74.5t10.5 -74t30.5 -59t49 -39t65 -14z" />
    <glyph glyph-name="dcroat" unicode="&#x111;" horiz-adv-x="577" 
d="M425 0v72q-27 -37 -69.5 -60.5t-93.5 -23.5q-47 0 -86.5 17.5t-68 50t-44.5 79.5t-16 106q0 58 15.5 105t44 80t68 51t87.5 18q49 0 91.5 -22.5t71.5 -62.5v125h-157v48h157v84h75v-84h68v-48h-68v-535h-75zM280 55q45 0 85 22t60 54v219q-20 32 -60 55t-85 23
q-36 0 -65 -14t-49 -39t-30.5 -59.5t-10.5 -74.5t10.5 -74t30.5 -59t49 -39t65 -14z" />
    <glyph glyph-name="uni1E0B" unicode="&#x1e0b;" horiz-adv-x="575" 
d="M425 0v72q-27 -37 -69.5 -60.5t-93.5 -23.5q-47 0 -86.5 17.5t-68 50t-44.5 79.5t-16 106q0 58 15.5 105t44 80t68 51t87.5 18q49 0 91.5 -22.5t71.5 -62.5v257h75v-667h-75zM280 55q45 0 85 22t60 54v219q-20 32 -60 55t-85 23q-36 0 -65 -14t-49 -39t-30.5 -59.5
t-10.5 -74.5t10.5 -74t30.5 -59t49 -39t65 -14zM282 722q-19 0 -33 13.5t-14 33.5t14 33.5t33 13.5q20 0 33 -13.5t13 -33.5t-13 -33.5t-33 -13.5z" />
    <glyph glyph-name="eacute" unicode="&#xe9;" horiz-adv-x="563" 
d="M285 556h-57l148 144h78zM293 -12q-54 0 -99 18.5t-77.5 52t-51 80t-18.5 103.5q0 52 18 98.5t49.5 80.5t75 54t95.5 20q55 0 98 -20t73 -55t45.5 -82.5t15.5 -101.5v-19h-391q2 -34 15 -64.5t35.5 -53t53.5 -36t70 -13.5q42 0 81 16t68 45l36 -49q-36 -36 -84 -55
t-108 -19zM443 272q0 27 -9.5 55.5t-29 52t-49.5 38.5t-71 15q-39 0 -68 -15t-48.5 -38t-30 -51.5t-11.5 -56.5h317z" />
    <glyph glyph-name="ebreve" unicode="&#x115;" horiz-adv-x="563" 
d="M293 -12q-54 0 -99 18.5t-77.5 52t-51 80t-18.5 103.5q0 52 18 98.5t49.5 80.5t75 54t95.5 20q55 0 98 -20t73 -55t45.5 -82.5t15.5 -101.5v-19h-391q2 -34 15 -64.5t35.5 -53t53.5 -36t70 -13.5q42 0 81 16t68 45l36 -49q-36 -36 -84 -55t-108 -19zM443 272
q0 27 -9.5 55.5t-29 52t-49.5 38.5t-71 15q-39 0 -68 -15t-48.5 -38t-30 -51.5t-11.5 -56.5h317zM462 626q-30 -41 -75.5 -64.5t-99.5 -23.5t-99.5 23.5t-76.5 64.5l37 32q24 -33 59 -52.5t80 -19.5q44 0 79.5 19t58.5 53l37 -32v0z" />
    <glyph glyph-name="ecircumflex" unicode="&#xea;" horiz-adv-x="563" 
d="M368 556l-83 106l-80 -106h-51l95 144h72l98 -144h-51zM293 -12q-54 0 -99 18.5t-77.5 52t-51 80t-18.5 103.5q0 52 18 98.5t49.5 80.5t75 54t95.5 20q55 0 98 -20t73 -55t45.5 -82.5t15.5 -101.5v-19h-391q2 -34 15 -64.5t35.5 -53t53.5 -36t70 -13.5q42 0 81 16t68 45
l36 -49q-36 -36 -84 -55t-108 -19zM443 272q0 27 -9.5 55.5t-29 52t-49.5 38.5t-71 15q-39 0 -68 -15t-48.5 -38t-30 -51.5t-11.5 -56.5h317z" />
    <glyph glyph-name="edieresis" unicode="&#xeb;" horiz-adv-x="563" 
d="M436 604q0 -20 -14 -33.5t-33 -13.5t-33 13.5t-14 33.5q0 19 14 32.5t33 13.5t33 -13.5t14 -32.5zM229 604q0 -20 -13.5 -33.5t-32.5 -13.5q-20 0 -33.5 13.5t-13.5 33.5q0 19 13.5 32.5t33.5 13.5q19 0 32.5 -13.5t13.5 -32.5zM293 -12q-54 0 -99 18.5t-77.5 52t-51 80
t-18.5 103.5q0 52 18 98.5t49.5 80.5t75 54t95.5 20q55 0 98 -20t73 -55t45.5 -82.5t15.5 -101.5v-19h-391q2 -34 15 -64.5t35.5 -53t53.5 -36t70 -13.5q42 0 81 16t68 45l36 -49q-36 -36 -84 -55t-108 -19zM443 272q0 27 -9.5 55.5t-29 52t-49.5 38.5t-71 15q-39 0 -68 -15
t-48.5 -38t-30 -51.5t-11.5 -56.5h317z" />
    <glyph glyph-name="edotaccent" unicode="&#x117;" horiz-adv-x="563" 
d="M293 -12q-54 0 -99 18.5t-77.5 52t-51 80t-18.5 103.5q0 52 18 98.5t49.5 80.5t75 54t95.5 20q55 0 98 -20t73 -55t45.5 -82.5t15.5 -101.5v-19h-391q2 -34 15 -64.5t35.5 -53t53.5 -36t70 -13.5q42 0 81 16t68 45l36 -49q-36 -36 -84 -55t-108 -19zM443 272
q0 27 -9.5 55.5t-29 52t-49.5 38.5t-71 15q-39 0 -68 -15t-48.5 -38t-30 -51.5t-11.5 -56.5h317zM286 555q-19 0 -33 13.5t-14 33.5t14 33.5t33 13.5q20 0 33 -13.5t13 -33.5t-13 -33.5t-33 -13.5z" />
    <glyph glyph-name="egrave" unicode="&#xe8;" horiz-adv-x="563" 
d="M293 -12q-54 0 -99 18.5t-77.5 52t-51 80t-18.5 103.5q0 52 18 98.5t49.5 80.5t75 54t95.5 20q55 0 98 -20t73 -55t45.5 -82.5t15.5 -101.5v-19h-391q2 -34 15 -64.5t35.5 -53t53.5 -36t70 -13.5q42 0 81 16t68 45l36 -49q-36 -36 -84 -55t-108 -19zM443 272
q0 27 -9.5 55.5t-29 52t-49.5 38.5t-71 15q-39 0 -68 -15t-48.5 -38t-30 -51.5t-11.5 -56.5h317zM285 556l-169 144h78l148 -144h-57z" />
    <glyph glyph-name="emacron" unicode="&#x113;" horiz-adv-x="563" 
d="M293 -12q-54 0 -99 18.5t-77.5 52t-51 80t-18.5 103.5q0 52 18 98.5t49.5 80.5t75 54t95.5 20q55 0 98 -20t73 -55t45.5 -82.5t15.5 -101.5v-19h-391q2 -34 15 -64.5t35.5 -53t53.5 -36t70 -13.5q42 0 81 16t68 45l36 -49q-36 -36 -84 -55t-108 -19zM443 272
q0 27 -9.5 55.5t-29 52t-49.5 38.5t-71 15q-39 0 -68 -15t-48.5 -38t-30 -51.5t-11.5 -56.5h317zM103 572v48h363v-48h-363z" />
    <glyph glyph-name="eogonek" unicode="&#x119;" horiz-adv-x="563" 
d="M293 -12q-54 0 -99 18.5t-77.5 52t-51 80t-18.5 103.5q0 52 18 98.5t49.5 80.5t75 54t95.5 20q55 0 98 -20t73 -55t45.5 -82.5t15.5 -101.5v-19h-391q2 -34 15 -64.5t35.5 -53t53.5 -36t70 -13.5q42 0 81 16t68 45l36 -49q-46 -46 -106 -62q-36 -18 -55.5 -41.5
t-19.5 -55.5q0 -26 12 -38t32 -12q21 0 33 11t19 31l37 -21q-11 -24 -32 -42t-57 -18q-35 0 -62 20.5t-27 66.5q0 25 10.5 47t28.5 40h-5zM443 272q0 27 -9.5 55.5t-29 52t-49.5 38.5t-71 15q-39 0 -68 -15t-48.5 -38t-30 -51.5t-11.5 -56.5h317z" />
    <glyph glyph-name="ecaron" unicode="&#x11b;" horiz-adv-x="563" 
d="M251 556l-98 144h51l83 -106l80 106h51l-95 -144h-72zM293 -12q-54 0 -99 18.5t-77.5 52t-51 80t-18.5 103.5q0 52 18 98.5t49.5 80.5t75 54t95.5 20q55 0 98 -20t73 -55t45.5 -82.5t15.5 -101.5v-19h-391q2 -34 15 -64.5t35.5 -53t53.5 -36t70 -13.5q42 0 81 16t68 45
l36 -49q-36 -36 -84 -55t-108 -19zM443 272q0 27 -9.5 55.5t-29 52t-49.5 38.5t-71 15q-39 0 -68 -15t-48.5 -38t-30 -51.5t-11.5 -56.5h317z" />
    <glyph glyph-name="uni1EB9" unicode="&#x1eb9;" horiz-adv-x="563" 
d="M293 -12q-54 0 -99 18.5t-77.5 52t-51 80t-18.5 103.5q0 52 18 98.5t49.5 80.5t75 54t95.5 20q55 0 98 -20t73 -55t45.5 -82.5t15.5 -101.5v-19h-391q2 -34 15 -64.5t35.5 -53t53.5 -36t70 -13.5q42 0 81 16t68 45l36 -49q-36 -36 -84 -55t-108 -19zM443 272
q0 27 -9.5 55.5t-29 52t-49.5 38.5t-71 15q-39 0 -68 -15t-48.5 -38t-30 -51.5t-11.5 -56.5h317zM286 -183q-19 0 -33 13.5t-14 33.5t14 33.5t33 13.5q20 0 33 -13.5t13 -33.5t-13 -33.5t-33 -13.5z" />
    <glyph glyph-name="uni1EBB" unicode="&#x1ebb;" horiz-adv-x="563" 
d="M293 -12q-54 0 -99 18.5t-77.5 52t-51 80t-18.5 103.5q0 52 18 98.5t49.5 80.5t75 54t95.5 20q55 0 98 -20t73 -55t45.5 -82.5t15.5 -101.5v-19h-391q2 -34 15 -64.5t35.5 -53t53.5 -36t70 -13.5q42 0 81 16t68 45l36 -49q-36 -36 -84 -55t-108 -19zM443 272
q0 27 -9.5 55.5t-29 52t-49.5 38.5t-71 15q-39 0 -68 -15t-48.5 -38t-30 -51.5t-11.5 -56.5h317zM211 596q8 23 26 39t47 16t50.5 -16.5t21.5 -52.5q0 -17 -4.5 -28.5t-14.5 -25.5h-40q13 13 18 26t5 26q0 20 -9.5 29.5t-26.5 9.5q-29 0 -40 -32z" />
    <glyph glyph-name="uni1EBD" unicode="&#x1ebd;" horiz-adv-x="563" 
d="M293 -12q-54 0 -99 18.5t-77.5 52t-51 80t-18.5 103.5q0 52 18 98.5t49.5 80.5t75 54t95.5 20q55 0 98 -20t73 -55t45.5 -82.5t15.5 -101.5v-19h-391q2 -34 15 -64.5t35.5 -53t53.5 -36t70 -13.5q42 0 81 16t68 45l36 -49q-36 -36 -84 -55t-108 -19zM443 272
q0 27 -9.5 55.5t-29 52t-49.5 38.5t-71 15q-39 0 -68 -15t-48.5 -38t-30 -51.5t-11.5 -56.5h317zM344 554q-27 0 -43 14.5t-28 31.5t-23 31.5t-29 14.5q-20 0 -34 -20.5t-14 -65.5h-45q0 59 24.5 96.5t72.5 37.5q27 0 43 -14.5t27.5 -31.5t23 -31.5t29.5 -14.5q20 0 34 20.5
t14 65.5h45q0 -59 -24.5 -96.5t-72.5 -37.5z" />
    <glyph glyph-name="uni1EBF" unicode="&#x1ebf;" horiz-adv-x="563" 
d="M367 556l-83 106l-80 -106h-51l95 144h72l98 -144h-51zM435 626h-57l148 144h78zM293 -12q-54 0 -99 18.5t-77.5 52t-51 80t-18.5 103.5q0 52 18 98.5t49.5 80.5t75 54t95.5 20q55 0 98 -20t73 -55t45.5 -82.5t15.5 -101.5v-19h-391q2 -34 15 -64.5t35.5 -53t53.5 -36
t70 -13.5q42 0 81 16t68 45l36 -49q-36 -36 -84 -55t-108 -19zM443 272q0 27 -9.5 55.5t-29 52t-49.5 38.5t-71 15q-39 0 -68 -15t-48.5 -38t-30 -51.5t-11.5 -56.5h317z" />
    <glyph glyph-name="uni1EC1" unicode="&#x1ec1;" horiz-adv-x="563" 
d="M366 556l-83 106l-80 -106h-51l95 144h72l98 -144h-51zM293 -12q-54 0 -99 18.5t-77.5 52t-51 80t-18.5 103.5q0 52 18 98.5t49.5 80.5t75 54t95.5 20q55 0 98 -20t73 -55t45.5 -82.5t15.5 -101.5v-19h-391q2 -34 15 -64.5t35.5 -53t53.5 -36t70 -13.5q42 0 81 16t68 45
l36 -49q-36 -36 -84 -55t-108 -19zM443 272q0 27 -9.5 55.5t-29 52t-49.5 38.5t-71 15q-39 0 -68 -15t-48.5 -38t-30 -51.5t-11.5 -56.5h317zM132 626l-169 144h78l148 -144h-57z" />
    <glyph glyph-name="uni1EC3" unicode="&#x1ec3;" horiz-adv-x="563" 
d="M365 556l-83 106l-80 -106h-51l95 144h72l98 -144h-51zM293 -12q-54 0 -99 18.5t-77.5 52t-51 80t-18.5 103.5q0 52 18 98.5t49.5 80.5t75 54t95.5 20q55 0 98 -20t73 -55t45.5 -82.5t15.5 -101.5v-19h-391q2 -34 15 -64.5t35.5 -53t53.5 -36t70 -13.5q42 0 81 16t68 45
l36 -49q-36 -36 -84 -55t-108 -19zM443 272q0 27 -9.5 55.5t-29 52t-49.5 38.5t-71 15q-39 0 -68 -15t-48.5 -38t-30 -51.5t-11.5 -56.5h317zM300 735q8 23 26 39t47 16t50.5 -16.5t21.5 -52.5q0 -17 -4.5 -28.5t-14.5 -25.5h-40q13 13 18 26t5 26q0 20 -9.5 29.5t-26.5 9.5
q-29 0 -40 -32z" />
    <glyph glyph-name="uni1EC5" unicode="&#x1ec5;" horiz-adv-x="563" 
d="M365 524l-83 106l-80 -106h-51l95 144h72l98 -144h-51zM293 -12q-54 0 -99 18.5t-77.5 52t-51 80t-18.5 103.5q0 52 18 98.5t49.5 80.5t75 54t95.5 20q55 0 98 -20t73 -55t45.5 -82.5t15.5 -101.5v-19h-391q2 -34 15 -64.5t35.5 -53t53.5 -36t70 -13.5q42 0 81 16t68 45
l36 -49q-36 -36 -84 -55t-108 -19zM443 272q0 27 -9.5 55.5t-29 52t-49.5 38.5t-71 15q-39 0 -68 -15t-48.5 -38t-30 -51.5t-11.5 -56.5h317zM340 682q-27 0 -43 14.5t-28 31.5t-23 31.5t-29 14.5q-20 0 -34 -20.5t-14 -65.5h-45q0 59 24.5 96.5t72.5 37.5q27 0 43 -14.5
t27.5 -31.5t23 -31.5t29.5 -14.5q20 0 34 20.5t14 65.5h45q0 -59 -24.5 -96.5t-72.5 -37.5z" />
    <glyph glyph-name="uni1EC7" unicode="&#x1ec7;" horiz-adv-x="563" 
d="M368 556l-83 106l-80 -106h-51l95 144h72l98 -144h-51zM293 -12q-54 0 -99 18.5t-77.5 52t-51 80t-18.5 103.5q0 52 18 98.5t49.5 80.5t75 54t95.5 20q55 0 98 -20t73 -55t45.5 -82.5t15.5 -101.5v-19h-391q2 -34 15 -64.5t35.5 -53t53.5 -36t70 -13.5q42 0 81 16t68 45
l36 -49q-36 -36 -84 -55t-108 -19zM443 272q0 27 -9.5 55.5t-29 52t-49.5 38.5t-71 15q-39 0 -68 -15t-48.5 -38t-30 -51.5t-11.5 -56.5h317zM286 -183q-19 0 -33 13.5t-14 33.5t14 33.5t33 13.5q20 0 33 -13.5t13 -33.5t-13 -33.5t-33 -13.5z" />
    <glyph glyph-name="fl.alt1" horiz-adv-x="552" 
d="M96 0v417h-80v66h80v37q0 75 38.5 116t101.5 41q21 0 40 -4t33 -13l-19 -57q-8 5 -18.5 8.5t-24.5 3.5q-37 0 -56.5 -24.5t-19.5 -70.5v-37h98v-66h-98v-417h-75zM465 -12q-54 0 -80.5 29.5t-26.5 83.5v566h75v-550q0 -27 12 -44.5t37 -17.5q16 0 29 6t21 14l22 -56
q-14 -14 -35 -22.5t-54 -8.5z" />
    <glyph glyph-name="f_f_l.alt1" horiz-adv-x="835" 
d="M379 0v417h-80v66h80v37q0 75 38.5 116t101.5 41q21 0 40 -4t33 -13l-19 -57q-8 5 -18.5 8.5t-24.5 3.5q-37 0 -56.5 -24.5t-19.5 -70.5v-37h98v-66h-98v-417h-75zM749 -12q-54 0 -80.5 29.5t-26.5 83.5v566h75v-550q0 -27 12 -44.5t37 -17.5q16 0 29 6t21 14l22 -56
q-14 -14 -35 -22.5t-54 -8.5zM96 0v417h-80v66h80v37q0 75 37.5 116t102.5 41q29 0 54 -8t48 -29l-31 -49q-12 11 -26.5 17.5t-33.5 6.5q-37 0 -56.5 -24.5t-19.5 -70.5v-37h98v-66h-98v-417h-75z" />
    <glyph glyph-name="uni1E1F" unicode="&#x1e1f;" horiz-adv-x="283" 
d="M237 722q-19 0 -33 13.5t-14 33.5t14 33.5t33 13.5q20 0 33 -13.5t13 -33.5t-13 -33.5t-33 -13.5zM96 0v417h-80v66h80v37q0 75 37.5 116t102.5 41q29 0 54 -8t48 -29l-31 -49q-12 11 -26.5 17.5t-33.5 6.5q-37 0 -56.5 -24.5t-19.5 -70.5v-37h98v-66h-98v-417h-75z" />
    <glyph glyph-name="gcircumflex" unicode="&#x11d;" horiz-adv-x="574" 
d="M372 556l-83 106l-80 -106h-51l95 144h72l98 -144h-51zM269 -196q-62 0 -107 15t-88 57l38 56q30 -36 67.5 -51t89.5 -15q30 0 58 7.5t49.5 25t34.5 45t13 67.5v69q-26 -37 -68.5 -61.5t-93.5 -24.5q-47 0 -86.5 17t-68 49.5t-44.5 78.5t-16 105q0 58 15.5 104.5t44 79
t68 50t87.5 17.5q49 0 91 -22.5t71 -62.5v73h75v-469q0 -60 -19.5 -100.5t-51.5 -64.5t-73.5 -34.5t-85.5 -10.5zM280 60q22 0 44 6.5t41 17.5t34 25t25 30v211q-10 16 -25 30t-34 24.5t-41 17t-44 6.5q-36 0 -65 -13.5t-49 -38t-30.5 -58.5t-10.5 -74t10.5 -73.5t30.5 -58
t49 -38.5t65 -14z" />
    <glyph glyph-name="gbreve" unicode="&#x11f;" horiz-adv-x="574" 
d="M269 -196q-62 0 -107 15t-88 57l38 56q30 -36 67.5 -51t89.5 -15q30 0 58 7.5t49.5 25t34.5 45t13 67.5v69q-26 -37 -68.5 -61.5t-93.5 -24.5q-47 0 -86.5 17t-68 49.5t-44.5 78.5t-16 105q0 58 15.5 104.5t44 79t68 50t87.5 17.5q49 0 91 -22.5t71 -62.5v73h75v-469
q0 -60 -19.5 -100.5t-51.5 -64.5t-73.5 -34.5t-85.5 -10.5zM280 60q22 0 44 6.5t41 17.5t34 25t25 30v211q-10 16 -25 30t-34 24.5t-41 17t-44 6.5q-36 0 -65 -13.5t-49 -38t-30.5 -58.5t-10.5 -74t10.5 -73.5t30.5 -58t49 -38.5t65 -14zM465 626q-30 -41 -75.5 -64.5
t-99.5 -23.5t-99.5 23.5t-76.5 64.5l37 32q24 -33 59 -52.5t80 -19.5q44 0 79.5 19t58.5 53l37 -32v0z" />
    <glyph glyph-name="gdotaccent" unicode="&#x121;" horiz-adv-x="574" 
d="M269 -196q-62 0 -107 15t-88 57l38 56q30 -36 67.5 -51t89.5 -15q30 0 58 7.5t49.5 25t34.5 45t13 67.5v69q-26 -37 -68.5 -61.5t-93.5 -24.5q-47 0 -86.5 17t-68 49.5t-44.5 78.5t-16 105q0 58 15.5 104.5t44 79t68 50t87.5 17.5q49 0 91 -22.5t71 -62.5v73h75v-469
q0 -60 -19.5 -100.5t-51.5 -64.5t-73.5 -34.5t-85.5 -10.5zM280 60q22 0 44 6.5t41 17.5t34 25t25 30v211q-10 16 -25 30t-34 24.5t-41 17t-44 6.5q-36 0 -65 -13.5t-49 -38t-30.5 -58.5t-10.5 -74t10.5 -73.5t30.5 -58t49 -38.5t65 -14zM289 555q-19 0 -33 13.5t-14 33.5
t14 33.5t33 13.5q20 0 33 -13.5t13 -33.5t-13 -33.5t-33 -13.5z" />
    <glyph glyph-name="gcommaaccent" unicode="&#x123;" horiz-adv-x="574" 
d="M238 611q0 45 20 83t49 58l33 -27q-21 -14 -38 -37.5t-19 -46.5h1q1 0 1.5 0.5t2.5 0.5q17 0 31.5 -13t14.5 -32q0 -18 -14 -32t-34 -14q-17 0 -32.5 14.5t-15.5 45.5zM269 -196q-62 0 -107 15t-88 57l38 56q30 -36 67.5 -51t89.5 -15q30 0 58 7.5t49.5 25t34.5 45
t13 67.5v69q-26 -37 -68.5 -61.5t-93.5 -24.5q-47 0 -86.5 17t-68 49.5t-44.5 78.5t-16 105q0 58 15.5 104.5t44 79t68 50t87.5 17.5q49 0 91 -22.5t71 -62.5v73h75v-469q0 -60 -19.5 -100.5t-51.5 -64.5t-73.5 -34.5t-85.5 -10.5zM280 60q22 0 44 6.5t41 17.5t34 25t25 30
v211q-10 16 -25 30t-34 24.5t-41 17t-44 6.5q-36 0 -65 -13.5t-49 -38t-30.5 -58.5t-10.5 -74t10.5 -73.5t30.5 -58t49 -38.5t65 -14z" />
    <glyph glyph-name="hbar" unicode="&#x127;" horiz-adv-x="554" 
d="M152 535v-122q13 15 31 29.5t40.5 26.5t48.5 19t53 7q76 0 115 -37.5t39 -116.5v-341h-75v318q0 32 -8 53t-22 34t-34.5 18t-44.5 5q-22 0 -43 -6t-39.5 -16.5t-34 -24t-26.5 -28.5v-353h-75v535h-68v48h68v84h75v-84h156v-48h-156z" />
    <glyph glyph-name="hcircumflex" unicode="&#x125;" horiz-adv-x="552" 
d="M359 723l-83 106l-80 -106h-51l95 144h72l98 -144h-51zM402 0v318q0 32 -8 53t-22 34t-34.5 18t-44.5 5q-22 0 -43 -6t-39.5 -16.5t-34 -24t-26.5 -28.5v-353h-75v667h75v-254q13 15 31 29.5t40.5 26.5t48.5 19t53 7q76 0 115 -37.5t39 -116.5v-341h-75z" />
    <glyph glyph-name="uni1E23" unicode="&#x1e23;" horiz-adv-x="552" 
d="M402 0v318q0 32 -8 53t-22 34t-34.5 18t-44.5 5q-22 0 -43 -6t-39.5 -16.5t-34 -24t-26.5 -28.5v-353h-75v667h75v-254q13 15 31 29.5t40.5 26.5t48.5 19t53 7q76 0 115 -37.5t39 -116.5v-341h-75zM276 722q-19 0 -33 13.5t-14 33.5t14 33.5t33 13.5q20 0 33 -13.5
t13 -33.5t-13 -33.5t-33 -13.5z" />
    <glyph glyph-name="dotlessi" unicode="&#x131;" horiz-adv-x="225" 
d="M75 0v483h75v-483h-75z" />
    <glyph glyph-name="iacute" unicode="&#xed;" horiz-adv-x="225" 
d="M113 556h-57l148 144h78zM75 0v483h75v-483h-75z" />
    <glyph glyph-name="ibreve" unicode="&#x12d;" horiz-adv-x="225" 
d="M75 0v483h75v-483h-75zM289 626q-30 -41 -75.5 -64.5t-99.5 -23.5t-99.5 23.5t-76.5 64.5l37 32q24 -33 59 -52.5t80 -19.5q44 0 79.5 19t58.5 53l37 -32v0z" />
    <glyph glyph-name="icircumflex" unicode="&#xee;" horiz-adv-x="225" 
d="M195 556l-83 106l-80 -106h-51l95 144h72l98 -144h-51zM75 0v483h75v-483h-75z" />
    <glyph glyph-name="idieresis" unicode="&#xef;" horiz-adv-x="225" 
d="M264 604q0 -20 -14 -33.5t-33 -13.5t-33 13.5t-14 33.5q0 19 14 32.5t33 13.5t33 -13.5t14 -32.5zM57 604q0 -20 -13.5 -33.5t-32.5 -13.5q-20 0 -33.5 13.5t-13.5 33.5q0 19 13.5 32.5t33.5 13.5q19 0 32.5 -13.5t13.5 -32.5zM75 0v483h75v-483h-75z" />
    <glyph glyph-name="igrave" unicode="&#xec;" horiz-adv-x="225" 
d="M75 0v483h75v-483h-75zM113 556l-169 144h78l148 -144h-57z" />
    <glyph glyph-name="imacron" unicode="&#x12b;" horiz-adv-x="225" 
d="M75 0v483h75v-483h-75zM-68 572v48h363v-48h-363z" />
    <glyph glyph-name="iogonek" unicode="&#x12f;" horiz-adv-x="225" 
d="M207 -126q-11 -24 -32 -42t-57 -18q-35 0 -62 20.5t-27 66.5q0 29 14 54t39 45h-7v483h75v-483q-36 -18 -56 -41.5t-20 -55.5q0 -26 12 -38t32 -12q21 0 33 11t19 31zM112 552q-20 0 -35 14.5t-15 35.5t15 36t35 15q21 0 36 -15t15 -36t-15 -35.5t-36 -14.5z" />
    <glyph glyph-name="itilde" unicode="&#x129;" horiz-adv-x="225" 
d="M75 0v483h75v-483h-75zM173 554q-27 0 -43 14.5t-28 31.5t-23 31.5t-29 14.5q-20 0 -34 -20.5t-14 -65.5h-45q0 59 24.5 96.5t72.5 37.5q27 0 43 -14.5t27.5 -31.5t23 -31.5t29.5 -14.5q20 0 34 20.5t14 65.5h45q0 -59 -24.5 -96.5t-72.5 -37.5z" />
    <glyph glyph-name="uni1EC9" unicode="&#x1ec9;" horiz-adv-x="225" 
d="M75 0v483h75v-483h-75zM40 596q8 23 26 39t47 16t50.5 -16.5t21.5 -52.5q0 -17 -4.5 -28.5t-14.5 -25.5h-40q13 13 18 26t5 26q0 20 -9.5 29.5t-26.5 9.5q-29 0 -40 -32z" />
    <glyph glyph-name="uni1ECB" unicode="&#x1ecb;" horiz-adv-x="225" 
d="M112 552q-20 0 -35 14.5t-15 35.5t15 36t35 15q21 0 36 -15t15 -36t-15 -35.5t-36 -14.5zM75 0v483h75v-483h-75zM113 -183q-19 0 -33 13.5t-14 33.5t14 33.5t33 13.5q20 0 33 -13.5t13 -33.5t-13 -33.5t-33 -13.5z" />
    <glyph glyph-name="ij" unicode="&#x133;" horiz-adv-x="451" 
d="M112 552q-20 0 -35 14.5t-15 35.5t15 36t35 15q21 0 36 -15t15 -36t-15 -35.5t-36 -14.5zM75 0v483h75v-483h-75zM337 552q-20 0 -35 14.5t-15 35.5t15 36t35 15q21 0 36 -15t15 -36t-15 -35.5t-36 -14.5zM232 -196q-37 0 -60 9t-46 27l27 57q13 -13 29.5 -22t39.5 -9
q34 0 56 20.5t22 66.5v530h75v-530q0 -72 -37 -110.5t-106 -38.5z" />
    <glyph glyph-name="uni0237" unicode="&#x237;" horiz-adv-x="225" 
d="M7 -196q-37 0 -60 9t-46 27l27 57q13 -13 29.5 -22t39.5 -9q34 0 56 20.5t22 66.5v530h75v-530q0 -72 -37 -110.5t-106 -38.5z" />
    <glyph glyph-name="jcircumflex" unicode="&#x135;" horiz-adv-x="225" 
d="M197 556l-83 106l-80 -106h-51l95 144h72l98 -144h-51zM7 -196q-37 0 -60 9t-46 27l27 57q13 -13 29.5 -22t39.5 -9q34 0 56 20.5t22 66.5v530h75v-530q0 -72 -37 -110.5t-106 -38.5z" />
    <glyph glyph-name="kcommaaccent" unicode="&#x137;" horiz-adv-x="514" 
d="M314 -138q0 -41 -21 -76.5t-50 -57.5l-33 26q23 15 39.5 39.5t18.5 46.5q-1 -1 -5 -1.5t-6 -0.5q-18 0 -30 12.5t-12 31.5q0 20 13 33.5t33 13.5q21 0 37 -17.5t16 -49.5zM404 0l-174 217l-80 -79v-138h-75v667h75v-441l254 257h95l-214 -219l215 -264h-96z" />
    <glyph glyph-name="kgreenlandic" unicode="&#x138;" horiz-adv-x="514" 
d="M404 0l-174 217l-80 -79v-138h-75v483h75v-257l254 257h95l-214 -219l215 -264h-96z" />
    <glyph glyph-name="lacute" unicode="&#x13a;" horiz-adv-x="225" 
d="M113 723h-57l148 144h78zM75 0v667h75v-667h-75z" />
    <glyph glyph-name="lcommaaccent" unicode="&#x13c;" horiz-adv-x="225" 
d="M170 -138q0 -41 -21 -76.5t-50 -57.5l-33 26q23 15 39.5 39.5t18.5 46.5q-1 -1 -5 -1.5t-6 -0.5q-18 0 -30 12.5t-12 31.5q0 20 13 33.5t33 13.5q21 0 37 -17.5t16 -49.5zM75 0v667h75v-667h-75z" />
    <glyph glyph-name="lcaron" unicode="&#x13e;" horiz-adv-x="291" 
d="M311 613q0 -41 -21 -76.5t-50 -57.5l-33 26q23 15 39.5 39.5t18.5 46.5q-1 -1 -5 -1.5t-6 -0.5q-18 0 -30 12.5t-12 31.5q0 20 13 33.5t33 13.5q21 0 37 -17.5t16 -49.5zM75 0v667h75v-667h-75z" />
    <glyph glyph-name="ldot" unicode="&#x140;" horiz-adv-x="307" 
d="M75 0v667h75v-667h-75zM321 244q0 -22 -16 -38t-39 -16t-39 16t-16 38q0 23 16 39t39 16t39 -16t16 -39z" />
    <glyph glyph-name="lslash" unicode="&#x142;" horiz-adv-x="287" 
d="M10 288l96 55v324h75v-281l95 54v-60l-95 -54v-326h-75v283l-96 -55v60z" />
    <glyph glyph-name="lacute.alt1" horiz-adv-x="268" 
d="M113 723h-57l148 144h78zM182 -12q-54 0 -80.5 29.5t-26.5 83.5v566h75v-550q0 -27 12 -44.5t37 -17.5q16 0 29 6t21 14l22 -56q-14 -14 -35 -22.5t-54 -8.5z" />
    <glyph glyph-name="lcommaaccent.alt1" horiz-adv-x="268" 
d="M184 -138q0 -41 -21 -76.5t-50 -57.5l-33 26q23 15 39.5 39.5t18.5 46.5q-1 -1 -5 -1.5t-6 -0.5q-18 0 -30 12.5t-12 31.5q0 20 13 33.5t33 13.5q21 0 37 -17.5t16 -49.5zM182 -12q-54 0 -80.5 29.5t-26.5 83.5v566h75v-550q0 -27 12 -44.5t37 -17.5q16 0 29 6t21 14
l22 -56q-14 -14 -35 -22.5t-54 -8.5z" />
    <glyph glyph-name="lcaron.alt1" horiz-adv-x="293" 
d="M311 613q0 -41 -21 -76.5t-50 -57.5l-33 26q23 15 39.5 39.5t18.5 46.5q-1 -1 -5 -1.5t-6 -0.5q-18 0 -30 12.5t-12 31.5q0 20 13 33.5t33 13.5q21 0 37 -17.5t16 -49.5zM182 -12q-54 0 -80.5 29.5t-26.5 83.5v566h75v-550q0 -27 12 -44.5t37 -17.5q16 0 29 6t21 14
l22 -56q-14 -14 -35 -22.5t-54 -8.5z" />
    <glyph glyph-name="ldot.alt1" horiz-adv-x="307" 
d="M182 -12q-54 0 -80.5 29.5t-26.5 83.5v566h75v-550q0 -27 12 -44.5t37 -17.5q16 0 29 6t21 14l22 -56q-14 -14 -35 -22.5t-54 -8.5zM321 244q0 -22 -16 -38t-39 -16t-39 16t-16 38q0 23 16 39t39 16t39 -16t16 -39z" />
    <glyph glyph-name="lslash.alt1" horiz-adv-x="299" 
d="M10 288l95 54v325h75v-282l96 55v-60l-96 -55v-208q0 -27 12 -44.5t37 -17.5q16 0 29 6t21 14l22 -56q-14 -14 -35 -22.5t-54 -8.5q-54 0 -80.5 29.5t-26.5 83.5v181l-95 -54v60z" />
    <glyph glyph-name="nacute" unicode="&#x144;" horiz-adv-x="551" 
d="M275 556h-57l148 144h78zM401 0v316q0 64 -29.5 88t-78.5 24q-22 0 -43 -6t-40 -16.5t-34.5 -24t-25.5 -28.5v-353h-75v483h75v-70q13 15 31 29.5t40.5 26.5t48 19t52.5 7q154 0 154 -156v-339h-75z" />
    <glyph glyph-name="napostrophe" unicode="&#x149;" horiz-adv-x="551" 
d="M162 676q0 -41 -21 -76.5t-50 -57.5l-33 26q23 15 39.5 39.5t18.5 46.5q-1 -1 -5 -1.5t-6 -0.5q-18 0 -30 12.5t-12 31.5q0 20 13 33.5t33 13.5q21 0 37 -17.5t16 -49.5zM401 0v316q0 64 -29.5 88t-78.5 24q-22 0 -43 -6t-40 -16.5t-34.5 -24t-25.5 -28.5v-353h-75v483
h75v-70q13 15 31 29.5t40.5 26.5t48 19t52.5 7q154 0 154 -156v-339h-75z" />
    <glyph glyph-name="ncaron" unicode="&#x148;" horiz-adv-x="551" 
d="M242 556l-98 144h51l83 -106l80 106h51l-95 -144h-72zM401 0v316q0 64 -29.5 88t-78.5 24q-22 0 -43 -6t-40 -16.5t-34.5 -24t-25.5 -28.5v-353h-75v483h75v-70q13 15 31 29.5t40.5 26.5t48 19t52.5 7q154 0 154 -156v-339h-75z" />
    <glyph glyph-name="ncommaaccent" unicode="&#x146;" horiz-adv-x="551" 
d="M330 -138q0 -41 -21 -76.5t-50 -57.5l-33 26q23 15 39.5 39.5t18.5 46.5q-1 -1 -5 -1.5t-6 -0.5q-18 0 -30 12.5t-12 31.5q0 20 13 33.5t33 13.5q21 0 37 -17.5t16 -49.5zM401 0v316q0 64 -29.5 88t-78.5 24q-22 0 -43 -6t-40 -16.5t-34.5 -24t-25.5 -28.5v-353h-75v483
h75v-70q13 15 31 29.5t40.5 26.5t48 19t52.5 7q154 0 154 -156v-339h-75z" />
    <glyph glyph-name="ntilde" unicode="&#xf1;" horiz-adv-x="551" 
d="M401 0v316q0 64 -29.5 88t-78.5 24q-22 0 -43 -6t-40 -16.5t-34.5 -24t-25.5 -28.5v-353h-75v483h75v-70q13 15 31 29.5t40.5 26.5t48 19t52.5 7q154 0 154 -156v-339h-75zM336 554q-27 0 -43 14.5t-28 31.5t-23 31.5t-29 14.5q-20 0 -34 -20.5t-14 -65.5h-45
q0 59 24.5 96.5t72.5 37.5q27 0 43 -14.5t27.5 -31.5t23 -31.5t29.5 -14.5q20 0 34 20.5t14 65.5h45q0 -59 -24.5 -96.5t-72.5 -37.5z" />
    <glyph glyph-name="eng" unicode="&#x14b;" horiz-adv-x="551" 
d="M476 -47q0 -72 -36.5 -110.5t-106.5 -38.5q-37 0 -59.5 9t-45.5 27l26 61q13 -13 29.5 -21.5t39.5 -8.5q34 0 56 19.5t22 62.5v363q0 64 -29.5 88t-78.5 24q-22 0 -43 -6t-40 -16.5t-34.5 -24t-25.5 -28.5v-353h-75v483h75v-70q13 15 31 29.5t40.5 26.5t48 19t52.5 7
q154 0 154 -156v-386z" />
    <glyph glyph-name="oacute" unicode="&#xf3;" 
d="M286 556h-57l148 144h78zM286 -12q-55 0 -99.5 20t-75.5 54.5t-47.5 80.5t-16.5 99q0 52 16.5 98.5t47.5 80.5t75.5 54t99.5 20t99.5 -20t75.5 -54t47.5 -80.5t16.5 -98.5q0 -53 -16.5 -99t-47.5 -80.5t-75.5 -54.5t-99.5 -20zM286 55q39 0 68.5 15.5t50 41t31 59.5
t10.5 71t-10.5 70.5t-31 59t-50 41t-68.5 15.5t-69 -15.5t-50.5 -41t-31 -59t-10.5 -70.5t10.5 -71t31 -59.5t50.5 -41t69 -15.5z" />
    <glyph glyph-name="obreve" unicode="&#x14f;" 
d="M286 -12q-55 0 -99.5 20t-75.5 54.5t-47.5 80.5t-16.5 99q0 52 16.5 98.5t47.5 80.5t75.5 54t99.5 20t99.5 -20t75.5 -54t47.5 -80.5t16.5 -98.5q0 -53 -16.5 -99t-47.5 -80.5t-75.5 -54.5t-99.5 -20zM286 55q39 0 68.5 15.5t50 41t31 59.5t10.5 71t-10.5 70.5t-31 59
t-50 41t-68.5 15.5t-69 -15.5t-50.5 -41t-31 -59t-10.5 -70.5t10.5 -71t31 -59.5t50.5 -41t69 -15.5zM462 626q-30 -41 -75.5 -64.5t-99.5 -23.5t-99.5 23.5t-76.5 64.5l37 32q24 -33 59 -52.5t80 -19.5q44 0 79.5 19t58.5 53l37 -32v0z" />
    <glyph glyph-name="ocircumflex" unicode="&#xf4;" 
d="M368 556l-83 106l-80 -106h-51l95 144h72l98 -144h-51zM286 -12q-55 0 -99.5 20t-75.5 54.5t-47.5 80.5t-16.5 99q0 52 16.5 98.5t47.5 80.5t75.5 54t99.5 20t99.5 -20t75.5 -54t47.5 -80.5t16.5 -98.5q0 -53 -16.5 -99t-47.5 -80.5t-75.5 -54.5t-99.5 -20zM286 55
q39 0 68.5 15.5t50 41t31 59.5t10.5 71t-10.5 70.5t-31 59t-50 41t-68.5 15.5t-69 -15.5t-50.5 -41t-31 -59t-10.5 -70.5t10.5 -71t31 -59.5t50.5 -41t69 -15.5z" />
    <glyph glyph-name="odieresis" unicode="&#xf6;" 
d="M436 604q0 -20 -14 -33.5t-33 -13.5t-33 13.5t-14 33.5q0 19 14 32.5t33 13.5t33 -13.5t14 -32.5zM229 604q0 -20 -13.5 -33.5t-32.5 -13.5q-20 0 -33.5 13.5t-13.5 33.5q0 19 13.5 32.5t33.5 13.5q19 0 32.5 -13.5t13.5 -32.5zM286 -12q-55 0 -99.5 20t-75.5 54.5
t-47.5 80.5t-16.5 99q0 52 16.5 98.5t47.5 80.5t75.5 54t99.5 20t99.5 -20t75.5 -54t47.5 -80.5t16.5 -98.5q0 -53 -16.5 -99t-47.5 -80.5t-75.5 -54.5t-99.5 -20zM286 55q39 0 68.5 15.5t50 41t31 59.5t10.5 71t-10.5 70.5t-31 59t-50 41t-68.5 15.5t-69 -15.5t-50.5 -41
t-31 -59t-10.5 -70.5t10.5 -71t31 -59.5t50.5 -41t69 -15.5z" />
    <glyph glyph-name="ograve" unicode="&#xf2;" 
d="M286 -12q-55 0 -99.5 20t-75.5 54.5t-47.5 80.5t-16.5 99q0 52 16.5 98.5t47.5 80.5t75.5 54t99.5 20t99.5 -20t75.5 -54t47.5 -80.5t16.5 -98.5q0 -53 -16.5 -99t-47.5 -80.5t-75.5 -54.5t-99.5 -20zM286 55q39 0 68.5 15.5t50 41t31 59.5t10.5 71t-10.5 70.5t-31 59
t-50 41t-68.5 15.5t-69 -15.5t-50.5 -41t-31 -59t-10.5 -70.5t10.5 -71t31 -59.5t50.5 -41t69 -15.5zM286 556l-169 144h78l148 -144h-57z" />
    <glyph glyph-name="ohungarumlaut" unicode="&#x151;" 
d="M224 556h-48l94 144h69zM366 556h-48l94 144h69zM286 -12q-55 0 -99.5 20t-75.5 54.5t-47.5 80.5t-16.5 99q0 52 16.5 98.5t47.5 80.5t75.5 54t99.5 20t99.5 -20t75.5 -54t47.5 -80.5t16.5 -98.5q0 -53 -16.5 -99t-47.5 -80.5t-75.5 -54.5t-99.5 -20zM286 55
q39 0 68.5 15.5t50 41t31 59.5t10.5 71t-10.5 70.5t-31 59t-50 41t-68.5 15.5t-69 -15.5t-50.5 -41t-31 -59t-10.5 -70.5t10.5 -71t31 -59.5t50.5 -41t69 -15.5z" />
    <glyph glyph-name="omacron" unicode="&#x14d;" 
d="M104 572v48h363v-48h-363zM286 -12q-55 0 -99.5 20t-75.5 54.5t-47.5 80.5t-16.5 99q0 52 16.5 98.5t47.5 80.5t75.5 54t99.5 20t99.5 -20t75.5 -54t47.5 -80.5t16.5 -98.5q0 -53 -16.5 -99t-47.5 -80.5t-75.5 -54.5t-99.5 -20zM286 55q39 0 68.5 15.5t50 41t31 59.5
t10.5 71t-10.5 70.5t-31 59t-50 41t-68.5 15.5t-69 -15.5t-50.5 -41t-31 -59t-10.5 -70.5t10.5 -71t31 -59.5t50.5 -41t69 -15.5z" />
    <glyph glyph-name="oslash" unicode="&#xf8;" 
d="M64 0l48 61q-32 35 -48.5 81t-16.5 100q0 52 16.5 98.5t47.5 80.5t75.5 54t99.5 20q40 0 74.5 -10.5t62.5 -30.5l23 29h54l-45 -57q34 -35 52 -82t18 -102q0 -53 -16.5 -99t-47.5 -80.5t-75.5 -54.5t-99.5 -20q-83 0 -142 45l-26 -33h-54zM286 55q39 0 68.5 15.5t50 41
t31 59.5t10.5 71q0 73 -38 125l-220 -278q20 -16 44 -25t54 -9zM125 242q0 -70 34 -121l219 277q-38 30 -92 30q-39 0 -69 -15.5t-50.5 -41t-31 -59t-10.5 -70.5z" />
    <glyph glyph-name="oslashacute" unicode="&#x1ff;" 
d="M286 556h-57l148 144h78zM64 0l48 61q-32 35 -48.5 81t-16.5 100q0 52 16.5 98.5t47.5 80.5t75.5 54t99.5 20q40 0 74.5 -10.5t62.5 -30.5l23 29h54l-45 -57q34 -35 52 -82t18 -102q0 -53 -16.5 -99t-47.5 -80.5t-75.5 -54.5t-99.5 -20q-83 0 -142 45l-26 -33h-54z
M286 55q39 0 68.5 15.5t50 41t31 59.5t10.5 71q0 73 -38 125l-220 -278q20 -16 44 -25t54 -9zM125 242q0 -70 34 -121l219 277q-38 30 -92 30q-39 0 -69 -15.5t-50.5 -41t-31 -59t-10.5 -70.5z" />
    <glyph glyph-name="otilde" unicode="&#xf5;" 
d="M286 -12q-55 0 -99.5 20t-75.5 54.5t-47.5 80.5t-16.5 99q0 52 16.5 98.5t47.5 80.5t75.5 54t99.5 20t99.5 -20t75.5 -54t47.5 -80.5t16.5 -98.5q0 -53 -16.5 -99t-47.5 -80.5t-75.5 -54.5t-99.5 -20zM286 55q39 0 68.5 15.5t50 41t31 59.5t10.5 71t-10.5 70.5t-31 59
t-50 41t-68.5 15.5t-69 -15.5t-50.5 -41t-31 -59t-10.5 -70.5t10.5 -71t31 -59.5t50.5 -41t69 -15.5zM346 554q-27 0 -43 14.5t-28 31.5t-23 31.5t-29 14.5q-20 0 -34 -20.5t-14 -65.5h-45q0 59 24.5 96.5t72.5 37.5q27 0 43 -14.5t27.5 -31.5t23 -31.5t29.5 -14.5
q20 0 34 20.5t14 65.5h45q0 -59 -24.5 -96.5t-72.5 -37.5z" />
    <glyph glyph-name="uni1ECD" unicode="&#x1ecd;" 
d="M286 -12q-55 0 -99.5 20t-75.5 54.5t-47.5 80.5t-16.5 99q0 52 16.5 98.5t47.5 80.5t75.5 54t99.5 20t99.5 -20t75.5 -54t47.5 -80.5t16.5 -98.5q0 -53 -16.5 -99t-47.5 -80.5t-75.5 -54.5t-99.5 -20zM286 55q39 0 68.5 15.5t50 41t31 59.5t10.5 71t-10.5 70.5t-31 59
t-50 41t-68.5 15.5t-69 -15.5t-50.5 -41t-31 -59t-10.5 -70.5t10.5 -71t31 -59.5t50.5 -41t69 -15.5zM286 -183q-19 0 -33 13.5t-14 33.5t14 33.5t33 13.5q20 0 33 -13.5t13 -33.5t-13 -33.5t-33 -13.5z" />
    <glyph glyph-name="uni1ECF" unicode="&#x1ecf;" 
d="M286 -12q-55 0 -99.5 20t-75.5 54.5t-47.5 80.5t-16.5 99q0 52 16.5 98.5t47.5 80.5t75.5 54t99.5 20t99.5 -20t75.5 -54t47.5 -80.5t16.5 -98.5q0 -53 -16.5 -99t-47.5 -80.5t-75.5 -54.5t-99.5 -20zM286 55q39 0 68.5 15.5t50 41t31 59.5t10.5 71t-10.5 70.5t-31 59
t-50 41t-68.5 15.5t-69 -15.5t-50.5 -41t-31 -59t-10.5 -70.5t10.5 -71t31 -59.5t50.5 -41t69 -15.5zM213 596q8 23 26 39t47 16t50.5 -16.5t21.5 -52.5q0 -17 -4.5 -28.5t-14.5 -25.5h-40q13 13 18 26t5 26q0 20 -9.5 29.5t-26.5 9.5q-29 0 -40 -32z" />
    <glyph glyph-name="uni1ED1" unicode="&#x1ed1;" 
d="M368 556l-83 106l-80 -106h-51l95 144h72l98 -144h-51zM437 626h-57l148 144h78zM286 -12q-55 0 -99.5 20t-75.5 54.5t-47.5 80.5t-16.5 99q0 52 16.5 98.5t47.5 80.5t75.5 54t99.5 20t99.5 -20t75.5 -54t47.5 -80.5t16.5 -98.5q0 -53 -16.5 -99t-47.5 -80.5t-75.5 -54.5
t-99.5 -20zM286 55q39 0 68.5 15.5t50 41t31 59.5t10.5 71t-10.5 70.5t-31 59t-50 41t-68.5 15.5t-69 -15.5t-50.5 -41t-31 -59t-10.5 -70.5t10.5 -71t31 -59.5t50.5 -41t69 -15.5z" />
    <glyph glyph-name="uni1ED3" unicode="&#x1ed3;" 
d="M368 556l-83 106l-80 -106h-51l95 144h72l98 -144h-51zM286 -12q-55 0 -99.5 20t-75.5 54.5t-47.5 80.5t-16.5 99q0 52 16.5 98.5t47.5 80.5t75.5 54t99.5 20t99.5 -20t75.5 -54t47.5 -80.5t16.5 -98.5q0 -53 -16.5 -99t-47.5 -80.5t-75.5 -54.5t-99.5 -20zM286 55
q39 0 68.5 15.5t50 41t31 59.5t10.5 71t-10.5 70.5t-31 59t-50 41t-68.5 15.5t-69 -15.5t-50.5 -41t-31 -59t-10.5 -70.5t10.5 -71t31 -59.5t50.5 -41t69 -15.5zM134 626l-169 144h78l148 -144h-57z" />
    <glyph glyph-name="uni1ED5" unicode="&#x1ed5;" 
d="M368 556l-83 106l-80 -106h-51l95 144h72l98 -144h-51zM286 -12q-55 0 -99.5 20t-75.5 54.5t-47.5 80.5t-16.5 99q0 52 16.5 98.5t47.5 80.5t75.5 54t99.5 20t99.5 -20t75.5 -54t47.5 -80.5t16.5 -98.5q0 -53 -16.5 -99t-47.5 -80.5t-75.5 -54.5t-99.5 -20zM286 55
q39 0 68.5 15.5t50 41t31 59.5t10.5 71t-10.5 70.5t-31 59t-50 41t-68.5 15.5t-69 -15.5t-50.5 -41t-31 -59t-10.5 -70.5t10.5 -71t31 -59.5t50.5 -41t69 -15.5zM302 735q8 23 26 39t47 16t50.5 -16.5t21.5 -52.5q0 -17 -4.5 -28.5t-14.5 -25.5h-40q13 13 18 26t5 26
q0 20 -9.5 29.5t-26.5 9.5q-29 0 -40 -32z" />
    <glyph glyph-name="uni1ED7" unicode="&#x1ed7;" 
d="M366 524l-83 106l-80 -106h-51l95 144h72l98 -144h-51zM286 -12q-55 0 -99.5 20t-75.5 54.5t-47.5 80.5t-16.5 99q0 52 16.5 98.5t47.5 80.5t75.5 54t99.5 20t99.5 -20t75.5 -54t47.5 -80.5t16.5 -98.5q0 -53 -16.5 -99t-47.5 -80.5t-75.5 -54.5t-99.5 -20zM286 55
q39 0 68.5 15.5t50 41t31 59.5t10.5 71t-10.5 70.5t-31 59t-50 41t-68.5 15.5t-69 -15.5t-50.5 -41t-31 -59t-10.5 -70.5t10.5 -71t31 -59.5t50.5 -41t69 -15.5zM342 682q-27 0 -43 14.5t-28 31.5t-23 31.5t-29 14.5q-20 0 -34 -20.5t-14 -65.5h-45q0 59 24.5 96.5
t72.5 37.5q27 0 43 -14.5t27.5 -31.5t23 -31.5t29.5 -14.5q20 0 34 20.5t14 65.5h45q0 -59 -24.5 -96.5t-72.5 -37.5z" />
    <glyph glyph-name="uni1ED9" unicode="&#x1ed9;" 
d="M367 556l-83 106l-80 -106h-51l95 144h72l98 -144h-51zM286 -12q-55 0 -99.5 20t-75.5 54.5t-47.5 80.5t-16.5 99q0 52 16.5 98.5t47.5 80.5t75.5 54t99.5 20t99.5 -20t75.5 -54t47.5 -80.5t16.5 -98.5q0 -53 -16.5 -99t-47.5 -80.5t-75.5 -54.5t-99.5 -20zM286 55
q39 0 68.5 15.5t50 41t31 59.5t10.5 71t-10.5 70.5t-31 59t-50 41t-68.5 15.5t-69 -15.5t-50.5 -41t-31 -59t-10.5 -70.5t10.5 -71t31 -59.5t50.5 -41t69 -15.5zM286 -183q-19 0 -33 13.5t-14 33.5t14 33.5t33 13.5q20 0 33 -13.5t13 -33.5t-13 -33.5t-33 -13.5z" />
    <glyph glyph-name="ohorn" unicode="&#x1a1;" 
d="M527 530q0 -35 -16.5 -67t-41.5 -53q27 -33 41.5 -76.5t14.5 -91.5q0 -53 -16.5 -99t-47.5 -80.5t-75.5 -54.5t-99.5 -20t-99.5 20t-75.5 54.5t-47.5 80.5t-16.5 99q0 52 16.5 98.5t47.5 80.5t75.5 54t99.5 20q48 0 87.5 -15.5t69.5 -41.5q17 14 28.5 34t13.5 38
q-2 0 -5.5 -0.5t-5.5 -0.5q-17 0 -28.5 11.5t-11.5 29.5q0 17 12.5 30t30.5 13q20 0 35 -16.5t15 -46.5zM286 55q39 0 68.5 15.5t50 41t31 59.5t10.5 71t-10.5 70.5t-31 59t-50 41t-68.5 15.5t-69 -15.5t-50.5 -41t-31 -59t-10.5 -70.5t10.5 -71t31 -59.5t50.5 -41t69 -15.5
z" />
    <glyph glyph-name="uni1EDB" unicode="&#x1edb;" 
d="M286 556h-57l148 144h78zM527 530q0 -35 -16.5 -67t-41.5 -53q27 -33 41.5 -76.5t14.5 -91.5q0 -53 -16.5 -99t-47.5 -80.5t-75.5 -54.5t-99.5 -20t-99.5 20t-75.5 54.5t-47.5 80.5t-16.5 99q0 52 16.5 98.5t47.5 80.5t75.5 54t99.5 20q48 0 87.5 -15.5t69.5 -41.5
q17 14 28.5 34t13.5 38q-2 0 -5.5 -0.5t-5.5 -0.5q-17 0 -28.5 11.5t-11.5 29.5q0 17 12.5 30t30.5 13q20 0 35 -16.5t15 -46.5zM286 55q39 0 68.5 15.5t50 41t31 59.5t10.5 71t-10.5 70.5t-31 59t-50 41t-68.5 15.5t-69 -15.5t-50.5 -41t-31 -59t-10.5 -70.5t10.5 -71
t31 -59.5t50.5 -41t69 -15.5z" />
    <glyph glyph-name="uni1EDD" unicode="&#x1edd;" 
d="M527 530q0 -35 -16.5 -67t-41.5 -53q27 -33 41.5 -76.5t14.5 -91.5q0 -53 -16.5 -99t-47.5 -80.5t-75.5 -54.5t-99.5 -20t-99.5 20t-75.5 54.5t-47.5 80.5t-16.5 99q0 52 16.5 98.5t47.5 80.5t75.5 54t99.5 20q48 0 87.5 -15.5t69.5 -41.5q17 14 28.5 34t13.5 38
q-2 0 -5.5 -0.5t-5.5 -0.5q-17 0 -28.5 11.5t-11.5 29.5q0 17 12.5 30t30.5 13q20 0 35 -16.5t15 -46.5zM286 55q39 0 68.5 15.5t50 41t31 59.5t10.5 71t-10.5 70.5t-31 59t-50 41t-68.5 15.5t-69 -15.5t-50.5 -41t-31 -59t-10.5 -70.5t10.5 -71t31 -59.5t50.5 -41t69 -15.5
zM286 556l-169 144h78l148 -144h-57z" />
    <glyph glyph-name="uni1EDF" unicode="&#x1edf;" 
d="M527 530q0 -35 -16.5 -67t-41.5 -53q27 -33 41.5 -76.5t14.5 -91.5q0 -53 -16.5 -99t-47.5 -80.5t-75.5 -54.5t-99.5 -20t-99.5 20t-75.5 54.5t-47.5 80.5t-16.5 99q0 52 16.5 98.5t47.5 80.5t75.5 54t99.5 20q48 0 87.5 -15.5t69.5 -41.5q17 14 28.5 34t13.5 38
q-2 0 -5.5 -0.5t-5.5 -0.5q-17 0 -28.5 11.5t-11.5 29.5q0 17 12.5 30t30.5 13q20 0 35 -16.5t15 -46.5zM286 55q39 0 68.5 15.5t50 41t31 59.5t10.5 71t-10.5 70.5t-31 59t-50 41t-68.5 15.5t-69 -15.5t-50.5 -41t-31 -59t-10.5 -70.5t10.5 -71t31 -59.5t50.5 -41t69 -15.5
zM213 596q8 23 26 39t47 16t50.5 -16.5t21.5 -52.5q0 -17 -4.5 -28.5t-14.5 -25.5h-40q13 13 18 26t5 26q0 20 -9.5 29.5t-26.5 9.5q-29 0 -40 -32z" />
    <glyph glyph-name="uni1EE1" unicode="&#x1ee1;" 
d="M527 530q0 -35 -16.5 -67t-41.5 -53q27 -33 41.5 -76.5t14.5 -91.5q0 -53 -16.5 -99t-47.5 -80.5t-75.5 -54.5t-99.5 -20t-99.5 20t-75.5 54.5t-47.5 80.5t-16.5 99q0 52 16.5 98.5t47.5 80.5t75.5 54t99.5 20q48 0 87.5 -15.5t69.5 -41.5q17 14 28.5 34t13.5 38
q-2 0 -5.5 -0.5t-5.5 -0.5q-17 0 -28.5 11.5t-11.5 29.5q0 17 12.5 30t30.5 13q20 0 35 -16.5t15 -46.5zM286 55q39 0 68.5 15.5t50 41t31 59.5t10.5 71t-10.5 70.5t-31 59t-50 41t-68.5 15.5t-69 -15.5t-50.5 -41t-31 -59t-10.5 -70.5t10.5 -71t31 -59.5t50.5 -41t69 -15.5
zM345 554q-27 0 -43 14.5t-28 31.5t-23 31.5t-29 14.5q-20 0 -34 -20.5t-14 -65.5h-45q0 59 24.5 96.5t72.5 37.5q27 0 43 -14.5t27.5 -31.5t23 -31.5t29.5 -14.5q20 0 34 20.5t14 65.5h45q0 -59 -24.5 -96.5t-72.5 -37.5z" />
    <glyph glyph-name="uni1EE3" unicode="&#x1ee3;" 
d="M527 530q0 -35 -16.5 -67t-41.5 -53q27 -33 41.5 -76.5t14.5 -91.5q0 -53 -16.5 -99t-47.5 -80.5t-75.5 -54.5t-99.5 -20t-99.5 20t-75.5 54.5t-47.5 80.5t-16.5 99q0 52 16.5 98.5t47.5 80.5t75.5 54t99.5 20q48 0 87.5 -15.5t69.5 -41.5q17 14 28.5 34t13.5 38
q-2 0 -5.5 -0.5t-5.5 -0.5q-17 0 -28.5 11.5t-11.5 29.5q0 17 12.5 30t30.5 13q20 0 35 -16.5t15 -46.5zM286 55q39 0 68.5 15.5t50 41t31 59.5t10.5 71t-10.5 70.5t-31 59t-50 41t-68.5 15.5t-69 -15.5t-50.5 -41t-31 -59t-10.5 -70.5t10.5 -71t31 -59.5t50.5 -41t69 -15.5
zM286 -183q-19 0 -33 13.5t-14 33.5t14 33.5t33 13.5q20 0 33 -13.5t13 -33.5t-13 -33.5t-33 -13.5z" />
    <glyph glyph-name="oe" unicode="&#x153;" horiz-adv-x="962" 
d="M526 217q2 -34 15 -64.5t35 -53t53 -36t70 -13.5q42 0 81.5 16t68.5 45l36 -49q-37 -36 -85 -55t-107 -19q-47 0 -81.5 13.5t-59.5 34.5t-41.5 45t-25.5 45q-9 -20 -24.5 -44t-39 -45t-57 -35t-78.5 -14q-55 0 -99.5 20t-75.5 54.5t-47.5 80.5t-16.5 99q0 52 16.5 98.5
t47.5 80.5t75.5 54t99.5 20q45 0 79 -14.5t58 -35.5t39.5 -45t23.5 -43q8 19 24 43t40 45t57.5 35.5t76.5 14.5q55 0 98 -20t73 -55t45.5 -82.5t15.5 -101.5v-19h-390zM843 272q-1 27 -10.5 55.5t-29 52t-49.5 38.5t-71 15q-39 0 -68 -15t-48.5 -38t-30 -51.5t-11.5 -56.5
h318zM446 242q0 38 -11 71.5t-31.5 59t-50 40.5t-67.5 15t-68 -15t-50.5 -40.5t-31.5 -59t-11 -71.5t11 -72.5t31.5 -60t50.5 -40.5t68 -15t67.5 15t50 40.5t31.5 60t11 72.5z" />
    <glyph glyph-name="uni1E57" unicode="&#x1e57;" 
d="M313 -12q-50 0 -92 22t-71 63v-257h-75v667h75v-72q26 37 69 60.5t94 23.5q48 0 87.5 -17.5t68 -50t44 -79.5t15.5 -106t-15.5 -106t-44 -80t-68 -50.5t-87.5 -17.5zM294 55q36 0 65 14t49 39t30.5 59.5t10.5 74.5t-10.5 74t-30.5 59t-49 39t-65 14q-45 0 -84.5 -22.5
t-59.5 -54.5v-218q20 -32 59.5 -55t84.5 -23zM293 555q-19 0 -33 13.5t-14 33.5t14 33.5t33 13.5q20 0 33 -13.5t13 -33.5t-13 -33.5t-33 -13.5z" />
    <glyph glyph-name="racute" unicode="&#x155;" horiz-adv-x="330" 
d="M193 556h-57l148 144h78zM75 0v483h75v-78q29 38 70 63t91 25v-77q-14 3 -30 3q-17 0 -36.5 -6.5t-38 -17.5t-33.5 -24.5t-23 -28.5v-342h-75z" />
    <glyph glyph-name="rcaron" unicode="&#x159;" horiz-adv-x="330" 
d="M157 556l-98 144h51l83 -106l80 106h51l-95 -144h-72zM75 0v483h75v-78q29 38 70 63t91 25v-77q-14 3 -30 3q-17 0 -36.5 -6.5t-38 -17.5t-33.5 -24.5t-23 -28.5v-342h-75z" />
    <glyph glyph-name="rcommaaccent" unicode="&#x157;" horiz-adv-x="330" 
d="M221 -138q0 -41 -21 -76.5t-50 -57.5l-33 26q23 15 39.5 39.5t18.5 46.5q-1 -1 -5 -1.5t-6 -0.5q-18 0 -30 12.5t-12 31.5q0 20 13 33.5t33 13.5q21 0 37 -17.5t16 -49.5zM75 0v483h75v-78q29 38 70 63t91 25v-77q-14 3 -30 3q-17 0 -36.5 -6.5t-38 -17.5t-33.5 -24.5
t-23 -28.5v-342h-75z" />
    <glyph glyph-name="sacute" unicode="&#x15b;" horiz-adv-x="465" 
d="M228 556h-57l148 144h78zM228 -12q-60 0 -109 18.5t-86 57.5l39 54q24 -28 66.5 -48.5t92.5 -20.5q56 0 85 23.5t29 59.5q0 29 -22 44.5t-55.5 25.5t-72 18.5t-72 24t-55.5 41t-22 70.5q0 28 12 53.5t35 44.5t56.5 30t76.5 11q62 0 106 -20.5t73 -49.5l-35 -52
q-22 26 -59.5 43.5t-84.5 17.5q-50 0 -78.5 -22t-28.5 -54q0 -26 22 -40t55.5 -23.5t72 -18t72 -24.5t55.5 -43.5t22 -74.5q0 -30 -12 -57t-36 -46.5t-59.5 -31t-82.5 -11.5z" />
    <glyph glyph-name="scaron" unicode="&#x161;" horiz-adv-x="465" 
d="M194 556l-98 144h51l83 -106l80 106h51l-95 -144h-72zM228 -12q-60 0 -109 18.5t-86 57.5l39 54q24 -28 66.5 -48.5t92.5 -20.5q56 0 85 23.5t29 59.5q0 29 -22 44.5t-55.5 25.5t-72 18.5t-72 24t-55.5 41t-22 70.5q0 28 12 53.5t35 44.5t56.5 30t76.5 11q62 0 106 -20.5
t73 -49.5l-35 -52q-22 26 -59.5 43.5t-84.5 17.5q-50 0 -78.5 -22t-28.5 -54q0 -26 22 -40t55.5 -23.5t72 -18t72 -24.5t55.5 -43.5t22 -74.5q0 -30 -12 -57t-36 -46.5t-59.5 -31t-82.5 -11.5z" />
    <glyph glyph-name="scircumflex" unicode="&#x15d;" horiz-adv-x="465" 
d="M310 556l-83 106l-80 -106h-51l95 144h72l98 -144h-51zM228 -12q-60 0 -109 18.5t-86 57.5l39 54q24 -28 66.5 -48.5t92.5 -20.5q56 0 85 23.5t29 59.5q0 29 -22 44.5t-55.5 25.5t-72 18.5t-72 24t-55.5 41t-22 70.5q0 28 12 53.5t35 44.5t56.5 30t76.5 11
q62 0 106 -20.5t73 -49.5l-35 -52q-22 26 -59.5 43.5t-84.5 17.5q-50 0 -78.5 -22t-28.5 -54q0 -26 22 -40t55.5 -23.5t72 -18t72 -24.5t55.5 -43.5t22 -74.5q0 -30 -12 -57t-36 -46.5t-59.5 -31t-82.5 -11.5z" />
    <glyph glyph-name="scedilla" unicode="&#x15f;" horiz-adv-x="465" 
d="M227 -191q-32 0 -59 9t-42 21l19 38q18 -15 39 -22t41 -7q24 0 42.5 11t18.5 31q0 16 -9 25.5t-28 9.5q-23 0 -38 -17l-33 19l23 62q-51 4 -93.5 22t-74.5 53l39 54q24 -28 66.5 -48.5t92.5 -20.5q56 0 85 23.5t29 59.5q0 29 -22 44.5t-55.5 25.5t-72 18.5t-72 24
t-55.5 41t-22 70.5q0 28 12 53.5t35 44.5t56.5 30t76.5 11q62 0 106 -20.5t73 -49.5l-35 -52q-22 26 -59.5 43.5t-84.5 17.5q-50 0 -78.5 -22t-28.5 -54q0 -26 22 -40t55.5 -23.5t72 -18t72 -24.5t55.5 -43.5t22 -74.5q0 -59 -43.5 -100t-129.5 -45l-17 -44q16 11 37 11
q29 0 47.5 -18t18.5 -49q0 -37 -30.5 -58.5t-73.5 -21.5z" />
    <glyph glyph-name="scommaaccent" unicode="&#x219;" horiz-adv-x="465" 
d="M291 -138q0 -41 -21 -76.5t-50 -57.5l-33 26q23 15 39.5 39.5t18.5 46.5q-1 -1 -5 -1.5t-6 -0.5q-18 0 -30 12.5t-12 31.5q0 20 13 33.5t33 13.5q21 0 37 -17.5t16 -49.5zM228 -12q-60 0 -109 18.5t-86 57.5l39 54q24 -28 66.5 -48.5t92.5 -20.5q56 0 85 23.5t29 59.5
q0 29 -22 44.5t-55.5 25.5t-72 18.5t-72 24t-55.5 41t-22 70.5q0 28 12 53.5t35 44.5t56.5 30t76.5 11q62 0 106 -20.5t73 -49.5l-35 -52q-22 26 -59.5 43.5t-84.5 17.5q-50 0 -78.5 -22t-28.5 -54q0 -26 22 -40t55.5 -23.5t72 -18t72 -24.5t55.5 -43.5t22 -74.5
q0 -30 -12 -57t-36 -46.5t-59.5 -31t-82.5 -11.5z" />
    <glyph glyph-name="uni1E61" unicode="&#x1e61;" horiz-adv-x="465" 
d="M228 -12q-60 0 -109 18.5t-86 57.5l39 54q24 -28 66.5 -48.5t92.5 -20.5q56 0 85 23.5t29 59.5q0 29 -22 44.5t-55.5 25.5t-72 18.5t-72 24t-55.5 41t-22 70.5q0 28 12 53.5t35 44.5t56.5 30t76.5 11q62 0 106 -20.5t73 -49.5l-35 -52q-22 26 -59.5 43.5t-84.5 17.5
q-50 0 -78.5 -22t-28.5 -54q0 -26 22 -40t55.5 -23.5t72 -18t72 -24.5t55.5 -43.5t22 -74.5q0 -30 -12 -57t-36 -46.5t-59.5 -31t-82.5 -11.5zM232 555q-19 0 -33 13.5t-14 33.5t14 33.5t33 13.5q20 0 33 -13.5t13 -33.5t-13 -33.5t-33 -13.5z" />
    <glyph glyph-name="germandbls" unicode="&#xdf;" horiz-adv-x="597" 
d="M578 135q0 -29 -11.5 -56t-35 -47t-58.5 -32t-81 -12q-36 0 -64 6t-49.5 16.5t-39 25t-33.5 30.5l38 52q21 -28 59 -48.5t89 -20.5q57 0 85 26t28 58q0 29 -21.5 44.5t-53 26t-69 19t-69 23.5t-53 40.5t-21.5 69.5q0 27 11 47t27 35.5t35 27.5t35 23.5t27 24t11 28.5
q0 17 -9 29.5t-23 21t-31.5 13t-35.5 4.5q-24 0 -44.5 -7.5t-36.5 -22t-25 -35t-9 -46.5v-499h-75v499q0 37 13.5 69.5t38 56.5t60 38t79.5 14q34 0 66 -8.5t56 -25t38.5 -40t14.5 -52.5q0 -28 -11 -47t-28 -34t-36 -26.5t-36 -24t-28 -27.5t-11 -35q0 -26 21.5 -39.5
t53 -22.5t69 -17.5t69 -24.5t53 -43.5t21.5 -74.5z" />
    <glyph glyph-name="longs" unicode="&#x17f;" horiz-adv-x="283" 
d="M96 0v417h-80v66h80v37q0 75 37.5 116t102.5 41q29 0 54 -8t48 -29l-31 -53q-12 11 -26.5 17t-33.5 6q-37 0 -56.5 -24t-19.5 -66v-520h-75z" />
    <glyph glyph-name="tbar" unicode="&#x167;" horiz-adv-x="294" 
d="M197 -12q-54 0 -80.5 29.5t-26.5 83.5v125h-80v48h80v143h-80v66h80v132h75v-132h98v-66h-98v-143h70v-48h-70v-109q0 -27 12 -44.5t37 -17.5q16 0 29.5 6t21.5 14l22 -56q-14 -14 -35.5 -22.5t-54.5 -8.5z" />
    <glyph glyph-name="tcaron" unicode="&#x165;" horiz-adv-x="313" 
d="M325 676q0 -41 -21 -76.5t-50 -57.5l-33 26q23 15 39.5 39.5t18.5 46.5q-1 -1 -5 -1.5t-6 -0.5q-18 0 -30 12.5t-12 31.5q0 20 13 33.5t33 13.5q21 0 37 -17.5t16 -49.5zM197 -12q-54 0 -80.5 29.5t-26.5 83.5v316h-80v66h80v132h75v-132h98v-66h-98v-300q0 -27 12 -44.5
t37 -17.5q16 0 29.5 6t21.5 14l22 -56q-14 -14 -35.5 -22.5t-54.5 -8.5z" />
    <glyph glyph-name="tcommaaccent" unicode="&#x163;" horiz-adv-x="294" 
d="M203 -138q0 -41 -21 -76.5t-50 -57.5l-33 26q23 15 39.5 39.5t18.5 46.5q-1 -1 -5 -1.5t-6 -0.5q-18 0 -30 12.5t-12 31.5q0 20 13 33.5t33 13.5q21 0 37 -17.5t16 -49.5zM197 -12q-54 0 -80.5 29.5t-26.5 83.5v316h-80v66h80v132h75v-132h98v-66h-98v-300
q0 -27 12 -44.5t37 -17.5q16 0 29.5 6t21.5 14l22 -56q-14 -14 -35.5 -22.5t-54.5 -8.5z" />
    <glyph glyph-name="uni021B" unicode="&#x21b;" horiz-adv-x="294" 
d="M203 -138q0 -41 -21 -76.5t-50 -57.5l-33 26q23 15 39.5 39.5t18.5 46.5q-1 -1 -5 -1.5t-6 -0.5q-18 0 -30 12.5t-12 31.5q0 20 13 33.5t33 13.5q21 0 37 -17.5t16 -49.5zM197 -12q-54 0 -80.5 29.5t-26.5 83.5v316h-80v66h80v132h75v-132h98v-66h-98v-300
q0 -27 12 -44.5t37 -17.5q16 0 29.5 6t21.5 14l22 -56q-14 -14 -35.5 -22.5t-54.5 -8.5z" />
    <glyph glyph-name="uni1E6B" unicode="&#x1e6b;" horiz-adv-x="294" 
d="M197 -12q-54 0 -80.5 29.5t-26.5 83.5v316h-80v66h80v132h75v-132h98v-66h-98v-300q0 -27 12 -44.5t37 -17.5q16 0 29.5 6t21.5 14l22 -56q-14 -14 -35.5 -22.5t-54.5 -8.5zM134 722q-19 0 -33 13.5t-14 33.5t14 33.5t33 13.5q20 0 33 -13.5t13 -33.5t-13 -33.5
t-33 -13.5z" />
    <glyph glyph-name="uacute" unicode="&#xfa;" horiz-adv-x="551" 
d="M275 556h-57l148 144h78zM401 0v68q-28 -32 -73 -56t-99 -24q-76 0 -115 37.5t-39 116.5v341h75v-318q0 -32 7.5 -53t22 -34t34.5 -18t44 -5q44 0 83 22t60 51v355h75v-483h-75z" />
    <glyph glyph-name="ubreve" unicode="&#x16d;" horiz-adv-x="551" 
d="M401 0v68q-28 -32 -73 -56t-99 -24q-76 0 -115 37.5t-39 116.5v341h75v-318q0 -32 7.5 -53t22 -34t34.5 -18t44 -5q44 0 83 22t60 51v355h75v-483h-75zM452 626q-30 -41 -75.5 -64.5t-99.5 -23.5t-99.5 23.5t-76.5 64.5l37 32q24 -33 59 -52.5t80 -19.5q44 0 79.5 19
t58.5 53l37 -32v0z" />
    <glyph glyph-name="ucircumflex" unicode="&#xfb;" horiz-adv-x="551" 
d="M357 556l-83 106l-80 -106h-51l95 144h72l98 -144h-51zM401 0v68q-28 -32 -73 -56t-99 -24q-76 0 -115 37.5t-39 116.5v341h75v-318q0 -32 7.5 -53t22 -34t34.5 -18t44 -5q44 0 83 22t60 51v355h75v-483h-75z" />
    <glyph glyph-name="udieresis" unicode="&#xfc;" horiz-adv-x="551" 
d="M427 604q0 -20 -14 -33.5t-33 -13.5t-33 13.5t-14 33.5q0 19 14 32.5t33 13.5t33 -13.5t14 -32.5zM220 604q0 -20 -13.5 -33.5t-32.5 -13.5q-20 0 -33.5 13.5t-13.5 33.5q0 19 13.5 32.5t33.5 13.5q19 0 32.5 -13.5t13.5 -32.5zM401 0v68q-28 -32 -73 -56t-99 -24
q-76 0 -115 37.5t-39 116.5v341h75v-318q0 -32 7.5 -53t22 -34t34.5 -18t44 -5q44 0 83 22t60 51v355h75v-483h-75z" />
    <glyph glyph-name="ugrave" unicode="&#xf9;" horiz-adv-x="551" 
d="M401 0v68q-28 -32 -73 -56t-99 -24q-76 0 -115 37.5t-39 116.5v341h75v-318q0 -32 7.5 -53t22 -34t34.5 -18t44 -5q44 0 83 22t60 51v355h75v-483h-75zM275 556l-169 144h78l148 -144h-57z" />
    <glyph glyph-name="uhungarumlaut" unicode="&#x171;" horiz-adv-x="551" 
d="M401 0v68q-28 -32 -73 -56t-99 -24q-76 0 -115 37.5t-39 116.5v341h75v-318q0 -32 7.5 -53t22 -34t34.5 -18t44 -5q44 0 83 22t60 51v355h75v-483h-75zM214 556h-48l94 144h69zM356 556h-48l94 144h69z" />
    <glyph glyph-name="umacron" unicode="&#x16b;" horiz-adv-x="551" 
d="M401 0v68q-28 -32 -73 -56t-99 -24q-76 0 -115 37.5t-39 116.5v341h75v-318q0 -32 7.5 -53t22 -34t34.5 -18t44 -5q44 0 83 22t60 51v355h75v-483h-75zM93 572v48h363v-48h-363z" />
    <glyph glyph-name="uogonek" unicode="&#x173;" horiz-adv-x="551" 
d="M476 0q-36 -18 -56 -41.5t-20 -55.5q0 -26 12 -38t32 -12q21 0 33 11t19 31l37 -21q-11 -24 -32 -42t-57 -18q-35 0 -62 20.5t-27 66.5q0 29 14 54t39 45h-7v68q-28 -32 -73 -56t-99 -24q-76 0 -115 37.5t-39 116.5v341h75v-318q0 -32 7.5 -53t22 -34t34.5 -18t44 -5
q44 0 83 22t60 51v355h75v-483v0z" />
    <glyph glyph-name="uring" unicode="&#x16f;" horiz-adv-x="551" 
d="M276 543q-41 0 -69.5 28.5t-28.5 69.5q0 20 7.5 38t21 31.5t31.5 21.5t38 8t38 -8t31.5 -21.5t21 -31.5t7.5 -38q0 -41 -28.5 -69.5t-69.5 -28.5zM276 582q25 0 41.5 17.5t16.5 41.5q0 25 -16.5 42t-41.5 17q-24 0 -41 -17t-17 -42q0 -24 17 -41.5t41 -17.5zM401 0v68
q-28 -32 -73 -56t-99 -24q-76 0 -115 37.5t-39 116.5v341h75v-318q0 -32 7.5 -53t22 -34t34.5 -18t44 -5q44 0 83 22t60 51v355h75v-483h-75z" />
    <glyph glyph-name="utilde" unicode="&#x169;" horiz-adv-x="551" 
d="M401 0v68q-28 -32 -73 -56t-99 -24q-76 0 -115 37.5t-39 116.5v341h75v-318q0 -32 7.5 -53t22 -34t34.5 -18t44 -5q44 0 83 22t60 51v355h75v-483h-75zM335 554q-27 0 -43 14.5t-28 31.5t-23 31.5t-29 14.5q-20 0 -34 -20.5t-14 -65.5h-45q0 59 24.5 96.5t72.5 37.5
q27 0 43 -14.5t27.5 -31.5t23 -31.5t29.5 -14.5q20 0 34 20.5t14 65.5h45q0 -59 -24.5 -96.5t-72.5 -37.5z" />
    <glyph glyph-name="uni1EE5" unicode="&#x1ee5;" horiz-adv-x="551" 
d="M401 0v68q-28 -32 -73 -56t-99 -24q-76 0 -115 37.5t-39 116.5v341h75v-318q0 -32 7.5 -53t22 -34t34.5 -18t44 -5q44 0 83 22t60 51v355h75v-483h-75zM278 -183q-19 0 -33 13.5t-14 33.5t14 33.5t33 13.5q20 0 33 -13.5t13 -33.5t-13 -33.5t-33 -13.5z" />
    <glyph glyph-name="uhorn" unicode="&#x1b0;" horiz-adv-x="551" 
d="M401 0v68q-28 -32 -73 -56t-99 -24q-76 0 -115 37.5t-39 116.5v341h75v-318q0 -32 7.5 -53t22 -34t34.5 -18t44 -5q44 0 83 22t60 51v355h75v-48q21 16 35 37.5t16 43.5q-1 0 -5 -0.5t-6 -0.5q-17 0 -28.5 11.5t-11.5 29.5q0 17 12.5 30t30.5 13q20 0 35.5 -16.5
t15.5 -46.5q0 -43 -25 -82t-69 -62v-392h-75z" />
    <glyph glyph-name="uni1EE7" unicode="&#x1ee7;" horiz-adv-x="551" 
d="M401 0v68q-28 -32 -73 -56t-99 -24q-76 0 -115 37.5t-39 116.5v341h75v-318q0 -32 7.5 -53t22 -34t34.5 -18t44 -5q44 0 83 22t60 51v355h75v-483h-75zM203 596q8 23 26 39t47 16t50.5 -16.5t21.5 -52.5q0 -17 -4.5 -28.5t-14.5 -25.5h-40q13 13 18 26t5 26
q0 20 -9.5 29.5t-26.5 9.5q-29 0 -40 -32z" />
    <glyph glyph-name="uni1EE9" unicode="&#x1ee9;" horiz-adv-x="551" 
d="M275 556h-57l148 144h78zM401 0v68q-28 -32 -73 -56t-99 -24q-76 0 -115 37.5t-39 116.5v341h75v-318q0 -32 7.5 -53t22 -34t34.5 -18t44 -5q44 0 83 22t60 51v355h75v-48q21 16 35 37.5t16 43.5q-1 0 -5 -0.5t-6 -0.5q-17 0 -28.5 11.5t-11.5 29.5q0 17 12.5 30t30.5 13
q20 0 35.5 -16.5t15.5 -46.5q0 -43 -25 -82t-69 -62v-392h-75z" />
    <glyph glyph-name="uni1EEB" unicode="&#x1eeb;" horiz-adv-x="551" 
d="M275 556l-169 144h78l148 -144h-57zM401 0v68q-28 -32 -73 -56t-99 -24q-76 0 -115 37.5t-39 116.5v341h75v-318q0 -32 7.5 -53t22 -34t34.5 -18t44 -5q44 0 83 22t60 51v355h75v-48q21 16 35 37.5t16 43.5q-1 0 -5 -0.5t-6 -0.5q-17 0 -28.5 11.5t-11.5 29.5
q0 17 12.5 30t30.5 13q20 0 35.5 -16.5t15.5 -46.5q0 -43 -25 -82t-69 -62v-392h-75z" />
    <glyph glyph-name="uni1EED" unicode="&#x1eed;" horiz-adv-x="551" 
d="M203 596q8 23 26 39t47 16t50.5 -16.5t21.5 -52.5q0 -17 -4.5 -28.5t-14.5 -25.5h-40q13 13 18 26t5 26q0 20 -9.5 29.5t-26.5 9.5q-29 0 -40 -32zM401 0v68q-28 -32 -73 -56t-99 -24q-76 0 -115 37.5t-39 116.5v341h75v-318q0 -32 7.5 -53t22 -34t34.5 -18t44 -5
q44 0 83 22t60 51v355h75v-48q21 16 35 37.5t16 43.5q-1 0 -5 -0.5t-6 -0.5q-17 0 -28.5 11.5t-11.5 29.5q0 17 12.5 30t30.5 13q20 0 35.5 -16.5t15.5 -46.5q0 -43 -25 -82t-69 -62v-392h-75z" />
    <glyph glyph-name="uni1EEF" unicode="&#x1eef;" horiz-adv-x="551" 
d="M401 0v68q-28 -32 -73 -56t-99 -24q-76 0 -115 37.5t-39 116.5v341h75v-318q0 -32 7.5 -53t22 -34t34.5 -18t44 -5q44 0 83 22t60 51v355h75v-48q21 16 35 37.5t16 43.5q-1 0 -5 -0.5t-6 -0.5q-17 0 -28.5 11.5t-11.5 29.5q0 17 12.5 30t30.5 13q20 0 35.5 -16.5
t15.5 -46.5q0 -43 -25 -82t-69 -62v-392h-75zM335 554q-27 0 -43 14.5t-28 31.5t-23 31.5t-29 14.5q-20 0 -34 -20.5t-14 -65.5h-45q0 59 24.5 96.5t72.5 37.5q27 0 43 -14.5t27.5 -31.5t23 -31.5t29.5 -14.5q20 0 34 20.5t14 65.5h45q0 -59 -24.5 -96.5t-72.5 -37.5z" />
    <glyph glyph-name="uni1EF1" unicode="&#x1ef1;" horiz-adv-x="551" 
d="M278 -183q-19 0 -33 13.5t-14 33.5t14 33.5t33 13.5q20 0 33 -13.5t13 -33.5t-13 -33.5t-33 -13.5zM401 0v68q-28 -32 -73 -56t-99 -24q-76 0 -115 37.5t-39 116.5v341h75v-318q0 -32 7.5 -53t22 -34t34.5 -18t44 -5q44 0 83 22t60 51v355h75v-48q21 16 35 37.5t16 43.5
q-1 0 -5 -0.5t-6 -0.5q-17 0 -28.5 11.5t-11.5 29.5q0 17 12.5 30t30.5 13q20 0 35.5 -16.5t15.5 -46.5q0 -43 -25 -82t-69 -62v-392h-75z" />
    <glyph glyph-name="wacute" unicode="&#x1e83;" horiz-adv-x="734" 
d="M367 556h-57l148 144h78zM493 0l-126 388l-126 -388h-75l-154 483h78l118 -385l127 385h64l127 -385l118 385h78l-154 -483h-75z" />
    <glyph glyph-name="wcircumflex" unicode="&#x175;" horiz-adv-x="734" 
d="M449 556l-83 106l-80 -106h-51l95 144h72l98 -144h-51zM493 0l-126 388l-126 -388h-75l-154 483h78l118 -385l127 385h64l127 -385l118 385h78l-154 -483h-75z" />
    <glyph glyph-name="wdieresis" unicode="&#x1e85;" horiz-adv-x="734" 
d="M517 604q0 -20 -14 -33.5t-33 -13.5t-33 13.5t-14 33.5q0 19 14 32.5t33 13.5t33 -13.5t14 -32.5zM310 604q0 -20 -13.5 -33.5t-32.5 -13.5q-20 0 -33.5 13.5t-13.5 33.5q0 19 13.5 32.5t33.5 13.5q19 0 32.5 -13.5t13.5 -32.5zM493 0l-126 388l-126 -388h-75l-154 483
h78l118 -385l127 385h64l127 -385l118 385h78l-154 -483h-75z" />
    <glyph glyph-name="wgrave" unicode="&#x1e81;" horiz-adv-x="734" 
d="M493 0l-126 388l-126 -388h-75l-154 483h78l118 -385l127 385h64l127 -385l118 385h78l-154 -483h-75zM367 556l-169 144h78l148 -144h-57z" />
    <glyph glyph-name="yacute" unicode="&#xfd;" horiz-adv-x="490" 
d="M60 -121q8 -4 20 -6t21 -2q25 0 42 10.5t30 40.5l32 73l-202 488h81l161 -396l160 396h82l-242 -581q-22 -53 -58 -75t-84 -23q-12 0 -28 2t-27 5zM245 556h-57l148 144h78z" />
    <glyph glyph-name="ycircumflex" unicode="&#x177;" horiz-adv-x="490" 
d="M60 -121q8 -4 20 -6t21 -2q25 0 42 10.5t30 40.5l32 73l-202 488h81l161 -396l160 396h82l-242 -581q-22 -53 -58 -75t-84 -23q-12 0 -28 2t-27 5zM327 556l-83 106l-80 -106h-51l95 144h72l98 -144h-51z" />
    <glyph glyph-name="ydieresis" unicode="&#xff;" horiz-adv-x="490" 
d="M60 -121q8 -4 20 -6t21 -2q25 0 42 10.5t30 40.5l32 73l-202 488h81l161 -396l160 396h82l-242 -581q-22 -53 -58 -75t-84 -23q-12 0 -28 2t-27 5zM395 604q0 -20 -14 -33.5t-33 -13.5t-33 13.5t-14 33.5q0 19 14 32.5t33 13.5t33 -13.5t14 -32.5zM188 604
q0 -20 -13.5 -33.5t-32.5 -13.5q-20 0 -33.5 13.5t-13.5 33.5q0 19 13.5 32.5t33.5 13.5q19 0 32.5 -13.5t13.5 -32.5z" />
    <glyph glyph-name="ygrave" unicode="&#x1ef3;" horiz-adv-x="490" 
d="M60 -121q8 -4 20 -6t21 -2q25 0 42 10.5t30 40.5l32 73l-202 488h81l161 -396l160 396h82l-242 -581q-22 -53 -58 -75t-84 -23q-12 0 -28 2t-27 5zM245 556l-169 144h78l148 -144h-57z" />
    <glyph glyph-name="yacute.alt1" horiz-adv-x="551" 
d="M275 556h-57l148 144h78zM255 -196q-61 0 -104.5 18t-80.5 54l38 56q27 -35 65 -50.5t82 -15.5q69 0 107.5 38t38.5 109v65q-28 -32 -73 -56t-99 -24q-76 0 -115 37.5t-39 116.5v331h75v-308q0 -32 7.5 -53.5t22 -34.5t34.5 -18t44 -5q44 0 83 22t60 51v346h75v-470
q0 -54 -18 -93.5t-48 -65t-70 -38t-85 -12.5z" />
    <glyph glyph-name="ycircumflex.alt1" horiz-adv-x="551" 
d="M358 556l-83 106l-80 -106h-51l95 144h72l98 -144h-51zM255 -196q-61 0 -104.5 18t-80.5 54l38 56q27 -35 65 -50.5t82 -15.5q69 0 107.5 38t38.5 109v65q-28 -32 -73 -56t-99 -24q-76 0 -115 37.5t-39 116.5v331h75v-308q0 -32 7.5 -53.5t22 -34.5t34.5 -18t44 -5
q44 0 83 22t60 51v346h75v-470q0 -54 -18 -93.5t-48 -65t-70 -38t-85 -12.5z" />
    <glyph glyph-name="ydieresis.alt1" horiz-adv-x="551" 
d="M424 604q0 -20 -14 -33.5t-33 -13.5t-33 13.5t-14 33.5q0 19 14 32.5t33 13.5t33 -13.5t14 -32.5zM217 604q0 -20 -13.5 -33.5t-32.5 -13.5q-20 0 -33.5 13.5t-13.5 33.5q0 19 13.5 32.5t33.5 13.5q19 0 32.5 -13.5t13.5 -32.5zM255 -196q-61 0 -104.5 18t-80.5 54l38 56
q27 -35 65 -50.5t82 -15.5q69 0 107.5 38t38.5 109v65q-28 -32 -73 -56t-99 -24q-76 0 -115 37.5t-39 116.5v331h75v-308q0 -32 7.5 -53.5t22 -34.5t34.5 -18t44 -5q44 0 83 22t60 51v346h75v-470q0 -54 -18 -93.5t-48 -65t-70 -38t-85 -12.5z" />
    <glyph glyph-name="ygrave.alt1" horiz-adv-x="551" 
d="M255 -196q-61 0 -104.5 18t-80.5 54l38 56q27 -35 65 -50.5t82 -15.5q69 0 107.5 38t38.5 109v65q-28 -32 -73 -56t-99 -24q-76 0 -115 37.5t-39 116.5v331h75v-308q0 -32 7.5 -53.5t22 -34.5t34.5 -18t44 -5q44 0 83 22t60 51v346h75v-470q0 -54 -18 -93.5t-48 -65
t-70 -38t-85 -12.5zM275 556l-169 144h78l148 -144h-57z" />
    <glyph glyph-name="zacute" unicode="&#x17a;" horiz-adv-x="472" 
d="M235 556h-57l148 144h78zM52 0v58l266 359h-266v66h364v-57l-268 -361h272v-65h-368z" />
    <glyph glyph-name="zcaron" unicode="&#x17e;" horiz-adv-x="472" 
d="M196 556l-98 144h51l83 -106l80 106h51l-95 -144h-72zM52 0v58l266 359h-266v66h364v-57l-268 -361h272v-65h-368z" />
    <glyph glyph-name="zdotaccent" unicode="&#x17c;" horiz-adv-x="472" 
d="M52 0v58l266 359h-266v66h364v-57l-268 -361h272v-65h-368zM235 555q-19 0 -33 13.5t-14 33.5t14 33.5t33 13.5q20 0 33 -13.5t13 -33.5t-13 -33.5t-33 -13.5z" />
    <glyph glyph-name="eth" unicode="&#xf0;" 
d="M104 539l118 52q-18 12 -37 24l-38 24l41 62q29 -18 57.5 -37t54.5 -39l108 48l17 -41l-86 -38q40 -35 74.5 -73.5t59 -81.5t38.5 -91t14 -101q0 -56 -16.5 -103.5t-47.5 -82t-75.5 -54t-99.5 -19.5q-54 0 -98 18.5t-75.5 51.5t-48.5 78t-17 98q0 52 16 97t45.5 78
t70 51.5t88.5 18.5q47 0 86 -20.5t72 -68.5q-28 50 -69 91.5t-91 78.5l-143 -63zM286 55q39 0 68.5 14.5t50 39.5t31 57t10.5 68q0 35 -10.5 67.5t-31 57t-50 39t-68.5 14.5t-69 -14.5t-50.5 -39t-31 -57t-10.5 -67.5q0 -36 10.5 -68t31 -57t50.5 -39.5t69 -14.5z" />
    <glyph glyph-name="thorn" unicode="&#xfe;" 
d="M313 -12q-50 0 -92 22t-71 63v-257h-75v851h75v-256q26 37 69 60.5t94 23.5q48 0 87.5 -17.5t68 -50t44 -79.5t15.5 -106t-15.5 -106t-44 -80t-68 -50.5t-87.5 -17.5zM294 55q36 0 65 14t49 39t30.5 59.5t10.5 74.5t-10.5 74t-30.5 59t-49 39t-65 14q-45 0 -84.5 -22.5
t-59.5 -54.5v-218q20 -32 59.5 -55t84.5 -23z" />
    <glyph glyph-name="Aacute.smcp" unicode="&#xf7e1;" 
d="M286 606h-57l148 144h78zM333 550l232 -550h-87l-51 120h-282l-50 -120h-88l232 550h94zM286 468l-117 -279h234z" />
    <glyph glyph-name="Abreve.smcp" unicode="&#xf66d;" 
d="M333 550l232 -550h-87l-51 120h-282l-50 -120h-88l232 550h94zM286 468l-117 -279h234zM462 676q-30 -41 -75.5 -64.5t-99.5 -23.5t-99.5 23.5t-76.5 64.5l37 32q24 -33 59 -52.5t80 -19.5q44 0 79.5 19t58.5 53l37 -32v0z" />
    <glyph glyph-name="Acircumflex.smcp" unicode="&#xf7e2;" 
d="M369 606l-83 106l-80 -106h-51l95 144h72l98 -144h-51zM333 550l232 -550h-87l-51 120h-282l-50 -120h-88l232 550h94zM286 468l-117 -279h234z" />
    <glyph glyph-name="Adieresis.smcp" unicode="&#xf7e4;" 
d="M437 660q0 -20 -14 -33.5t-33 -13.5t-33 13.5t-14 33.5q0 19 14 32.5t33 13.5t33 -13.5t14 -32.5zM230 660q0 -20 -13.5 -33.5t-32.5 -13.5q-20 0 -33.5 13.5t-13.5 33.5q0 19 13.5 32.5t33.5 13.5q19 0 32.5 -13.5t13.5 -32.5zM333 550l232 -550h-87l-51 120h-282
l-50 -120h-88l232 550h94zM286 468l-117 -279h234z" />
    <glyph glyph-name="Agrave.smcp" unicode="&#xf7e0;" 
d="M333 550l232 -550h-87l-51 120h-282l-50 -120h-88l232 550h94zM286 468l-117 -279h234zM286 606l-169 144h78l148 -144h-57z" />
    <glyph glyph-name="Amacron.smcp" unicode="&#xf66e;" 
d="M105 622v48h363v-48h-363zM333 550l232 -550h-87l-51 120h-282l-50 -120h-88l232 550h94zM286 468l-117 -279h234z" />
    <glyph glyph-name="Aogonek.smcp" unicode="&#xf66f;" 
d="M333 550l232 -550q-36 -18 -56 -41.5t-20 -55.5q0 -26 12 -38t32 -12q21 0 33 11t19 31l37 -21q-11 -24 -32 -42t-57 -18q-35 0 -62 20.5t-27 66.5q0 29 14 54t39 45h-19l-51 120h-282l-50 -120h-88l232 550h94zM286 468l-117 -279h234z" />
    <glyph glyph-name="Aring.smcp" unicode="&#xf7e5;" 
d="M287 573q-41 0 -69.5 28.5t-28.5 69.5q0 20 7.5 38t21 31.5t31.5 21.5t38 8t38 -8t31.5 -21.5t21 -31.5t7.5 -38q0 -41 -28.5 -69.5t-69.5 -28.5zM287 612q25 0 41.5 17.5t16.5 41.5q0 25 -16.5 42t-41.5 17q-24 0 -41 -17t-17 -42q0 -24 17 -41.5t41 -17.5zM333 550
l232 -550h-87l-51 120h-282l-50 -120h-88l232 550h94zM286 468l-117 -279h234z" />
    <glyph glyph-name="Atilde.smcp" unicode="&#xf7e3;" 
d="M333 550l232 -550h-87l-51 120h-282l-50 -120h-88l232 550h94zM286 468l-117 -279h234zM346 604q-27 0 -43 14.5t-28 31.5t-23 31.5t-29 14.5q-20 0 -34 -20.5t-14 -65.5h-45q0 59 24.5 96.5t72.5 37.5q27 0 43 -14.5t27.5 -31.5t23 -31.5t29.5 -14.5q20 0 34 20.5
t14 65.5h45q0 -59 -24.5 -96.5t-72.5 -37.5z" />
    <glyph glyph-name="uni1EA0.smcp" 
d="M333 550l232 -550h-87l-51 120h-282l-50 -120h-88l232 550h94zM286 468l-117 -279h234zM287 -183q-19 0 -33 13.5t-14 33.5t14 33.5t33 13.5q20 0 33 -13.5t13 -33.5t-13 -33.5t-33 -13.5z" />
    <glyph glyph-name="uni1EA2.smcp" 
d="M333 550l232 -550h-87l-51 120h-282l-50 -120h-88l232 550h94zM286 468l-117 -279h234zM214 649q8 23 26 39t47 16t50.5 -16.5t21.5 -52.5q0 -17 -4.5 -28.5t-14.5 -25.5h-40q13 13 18 26t5 26q0 20 -9.5 29.5t-26.5 9.5q-29 0 -40 -32z" />
    <glyph glyph-name="uni1EA4.smcp" 
d="M369 606l-83 106l-80 -106h-51l95 144h72l98 -144h-51zM437 676h-57l148 144h78zM333 550l232 -550h-87l-51 120h-282l-50 -120h-88l232 550h94zM286 468l-117 -279h234z" />
    <glyph glyph-name="uni1EAC.smcp" 
d="M368 606l-83 106l-80 -106h-51l95 144h72l98 -144h-51zM333 550l232 -550h-87l-51 120h-282l-50 -120h-88l232 550h94zM286 468l-117 -279h234zM286 -183q-19 0 -33 13.5t-14 33.5t14 33.5t33 13.5q20 0 33 -13.5t13 -33.5t-13 -33.5t-33 -13.5z" />
    <glyph glyph-name="uni1EA6.smcp" 
d="M369 606l-83 106l-80 -106h-51l95 144h72l98 -144h-51zM333 550l232 -550h-87l-51 120h-282l-50 -120h-88l232 550h94zM286 468l-117 -279h234zM135 676l-169 144h78l148 -144h-57z" />
    <glyph glyph-name="uni1EA8.smcp" 
d="M369 606l-83 106l-80 -106h-51l95 144h72l98 -144h-51zM333 550l232 -550h-87l-51 120h-282l-50 -120h-88l232 550h94zM286 468l-117 -279h234zM303 785q8 23 26 39t47 16t50.5 -16.5t21.5 -52.5q0 -17 -4.5 -28.5t-14.5 -25.5h-40q13 13 18 26t5 26q0 20 -9.5 29.5
t-26.5 9.5q-29 0 -40 -32z" />
    <glyph glyph-name="uni1EAE.smcp" 
d="M289 675h-57l148 144h78zM333 550l232 -550h-87l-51 120h-282l-50 -120h-88l232 550h94zM286 468l-117 -279h234zM462 664q-30 -41 -75.5 -64.5t-99.5 -23.5t-99.5 23.5t-76.5 64.5l37 32q24 -33 59 -52.5t80 -19.5q44 0 79.5 19t58.5 53l37 -32v0z" />
    <glyph glyph-name="uni1EAA.smcp" 
d="M369 573l-83 106l-80 -106h-51l95 144h72l98 -144h-51zM333 550l232 -550h-87l-51 120h-282l-50 -120h-88l232 550h94zM286 468l-117 -279h234zM346 732q-27 0 -43 14.5t-28 31.5t-23 31.5t-29 14.5q-20 0 -34 -20.5t-14 -65.5h-45q0 59 24.5 96.5t72.5 37.5
q27 0 43 -14.5t27.5 -31.5t23 -31.5t29.5 -14.5q20 0 34 20.5t14 65.5h45q0 -59 -24.5 -96.5t-72.5 -37.5z" />
    <glyph glyph-name="uni1EB0.smcp" 
d="M333 550l232 -550h-87l-51 120h-282l-50 -120h-88l232 550h94zM286 468l-117 -279h234zM286 675l-169 144h78l148 -144h-57zM463 664q-30 -41 -75.5 -64.5t-99.5 -23.5t-99.5 23.5t-76.5 64.5l37 32q24 -33 59 -52.5t80 -19.5q44 0 79.5 19t58.5 53l37 -32v0z" />
    <glyph glyph-name="uni1EB2.smcp" 
d="M333 550l232 -550h-87l-51 120h-282l-50 -120h-88l232 550h94zM286 468l-117 -279h234zM215 741q8 23 26 39t47 16t50.5 -16.5t21.5 -52.5q0 -17 -4.5 -28.5t-14.5 -25.5h-40q13 13 18 26t5 26q0 20 -9.5 29.5t-26.5 9.5q-29 0 -40 -32zM463 664q-30 -41 -75.5 -64.5
t-99.5 -23.5t-99.5 23.5t-76.5 64.5l37 32q24 -33 59 -52.5t80 -19.5q44 0 79.5 19t58.5 53l37 -32v0z" />
    <glyph glyph-name="uni1EB4.smcp" 
d="M463 664q-30 -41 -75.5 -64.5t-99.5 -23.5t-99.5 23.5t-76.5 64.5l37 32q24 -33 59 -52.5t80 -19.5q44 0 79.5 19t58.5 53l37 -32v0zM333 550l232 -550h-87l-51 120h-282l-50 -120h-88l232 550h94zM286 468l-117 -279h234zM346 708q-27 0 -43 14.5t-28 31.5t-23 31.5
t-29 14.5q-20 0 -34 -20.5t-14 -65.5h-45q0 59 24.5 96.5t72.5 37.5q27 0 43 -14.5t27.5 -31.5t23 -31.5t29.5 -14.5q20 0 34 20.5t14 65.5h45q0 -59 -24.5 -96.5t-72.5 -37.5z" />
    <glyph glyph-name="uni1EB6.smcp" 
d="M333 550l232 -550h-87l-51 120h-282l-50 -120h-88l232 550h94zM286 468l-117 -279h234zM286 -183q-19 0 -33 13.5t-14 33.5t14 33.5t33 13.5q20 0 33 -13.5t13 -33.5t-13 -33.5t-33 -13.5zM462 676q-30 -41 -75.5 -64.5t-99.5 -23.5t-99.5 23.5t-76.5 64.5l37 32
q24 -33 59 -52.5t80 -19.5q44 0 79.5 19t58.5 53l37 -32v0z" />
    <glyph glyph-name="AE.smcp" unicode="&#xf7e6;" horiz-adv-x="821" 
d="M387 0v120h-216l-76 -120h-89l351 550h413v-69h-305v-165h298v-69h-298v-178h305v-69h-383zM387 468l-178 -279h178v279z" />
    <glyph glyph-name="AEacute.smcp" unicode="&#xf670;" horiz-adv-x="821" 
d="M426 606h-57l148 144h78zM387 0v120h-216l-76 -120h-89l351 550h413v-69h-305v-165h298v-69h-298v-178h305v-69h-383zM387 468l-178 -279h178v279z" />
    <glyph glyph-name="uni1E02.smcp" horiz-adv-x="554" 
d="M75 0v550h259q77 0 120 -39t43 -102q0 -50 -28 -82t-66 -43q22 -5 41.5 -18t34 -31t22.5 -40t8 -46q0 -67 -44 -108t-125 -41h-265zM329 69q47 0 73 23.5t26 64.5q0 18 -6.5 34t-19 28.5t-31 20t-42.5 7.5h-176v-178h176zM324 316q46 0 69.5 23.5t23.5 58.5
q0 38 -24 60.5t-69 22.5h-171v-165h171zM284 605q-19 0 -33 13.5t-14 33.5t14 33.5t33 13.5q20 0 33 -13.5t13 -33.5t-13 -33.5t-33 -13.5z" />
    <glyph glyph-name="Cacute.smcp" unicode="&#xf671;" horiz-adv-x="582" 
d="M341 606h-57l148 144h78zM340 -12q-62 0 -115.5 21t-93 59t-62 91t-22.5 116q0 64 22.5 116.5t62 90.5t93 59t115.5 21q75 0 129.5 -31.5t89.5 -81.5l-63 -35q-25 36 -66 57.5t-90 21.5q-45 0 -84 -16t-67.5 -45t-45 -69t-16.5 -88q0 -47 16.5 -87t45 -69t67.5 -45.5
t84 -16.5q49 0 91 22t65 57l64 -35q-37 -51 -91 -82t-129 -31z" />
    <glyph glyph-name="Ccaron.smcp" unicode="&#xf672;" horiz-adv-x="582" 
d="M308 606l-98 144h51l83 -106l80 106h51l-95 -144h-72zM340 -12q-62 0 -115.5 21t-93 59t-62 91t-22.5 116q0 64 22.5 116.5t62 90.5t93 59t115.5 21q75 0 129.5 -31.5t89.5 -81.5l-63 -35q-25 36 -66 57.5t-90 21.5q-45 0 -84 -16t-67.5 -45t-45 -69t-16.5 -88
q0 -47 16.5 -87t45 -69t67.5 -45.5t84 -16.5q49 0 91 22t65 57l64 -35q-37 -51 -91 -82t-129 -31z" />
    <glyph glyph-name="Ccedilla.smcp" unicode="&#xf7e7;" horiz-adv-x="582" 
d="M340 -191q-32 0 -59 9t-42 21l19 38q18 -15 39 -22t41 -7q24 0 42.5 11t18.5 31q0 16 -9 25.5t-28 9.5q-23 0 -38 -17l-33 19l23 62q-57 4 -106 27t-85 60.5t-56 88t-20 110.5q0 64 22.5 116.5t62 90.5t93 59t115.5 21q75 0 129.5 -31.5t89.5 -81.5l-63 -35
q-25 36 -66 57.5t-90 21.5q-45 0 -84 -16t-67.5 -45t-45 -69t-16.5 -88q0 -47 16.5 -87t45 -69t67.5 -45.5t84 -16.5q49 0 91 22t65 57l64 -35q-35 -48 -84.5 -78t-117.5 -34l-17 -44q16 11 37 11q29 0 47.5 -18t18.5 -49q0 -37 -30.5 -58.5t-73.5 -21.5z" />
    <glyph glyph-name="Ccircumflex.smcp" unicode="&#xf673;" horiz-adv-x="582" 
d="M424 606l-83 106l-80 -106h-51l95 144h72l98 -144h-51zM340 -12q-62 0 -115.5 21t-93 59t-62 91t-22.5 116q0 64 22.5 116.5t62 90.5t93 59t115.5 21q75 0 129.5 -31.5t89.5 -81.5l-63 -35q-25 36 -66 57.5t-90 21.5q-45 0 -84 -16t-67.5 -45t-45 -69t-16.5 -88
q0 -47 16.5 -87t45 -69t67.5 -45.5t84 -16.5q49 0 91 22t65 57l64 -35q-37 -51 -91 -82t-129 -31z" />
    <glyph glyph-name="Cdotaccent.smcp" unicode="&#xf674;" horiz-adv-x="582" 
d="M340 -12q-62 0 -115.5 21t-93 59t-62 91t-22.5 116q0 64 22.5 116.5t62 90.5t93 59t115.5 21q75 0 129.5 -31.5t89.5 -81.5l-63 -35q-25 36 -66 57.5t-90 21.5q-45 0 -84 -16t-67.5 -45t-45 -69t-16.5 -88q0 -47 16.5 -87t45 -69t67.5 -45.5t84 -16.5q49 0 91 22t65 57
l64 -35q-37 -51 -91 -82t-129 -31zM343 605q-19 0 -33 13.5t-14 33.5t14 33.5t33 13.5q20 0 33 -13.5t13 -33.5t-13 -33.5t-33 -13.5z" />
    <glyph glyph-name="Dcaron.smcp" unicode="&#xf675;" horiz-adv-x="615" 
d="M262 606l-98 144h51l83 -106l80 106h51l-95 -144h-72zM63 0v550h199q68 0 122.5 -21t92.5 -58.5t58.5 -88t20.5 -108.5q0 -59 -20.5 -109t-58.5 -86.5t-92.5 -57.5t-121.5 -21h-200zM262 69q52 0 91.5 16t66.5 43.5t41 65t14 80.5t-13.5 80.5t-40.5 65.5t-66.5 44.5
t-91.5 16.5h-122v-412h121z" />
    <glyph glyph-name="Dcroat.smcp" unicode="&#xf676;" horiz-adv-x="626" 
d="M73 0v251h-63v53h63v246h199q68 0 122.5 -21t92.5 -58.5t58.5 -88t20.5 -108.5q0 -59 -20.5 -109t-58.5 -86.5t-92.5 -57.5t-121.5 -21h-200zM151 251v-182h121q52 0 91.5 16t66.5 43.5t41 65t14 80.5t-13.5 80.5t-40.5 65.5t-66.5 44.5t-91.5 16.5h-122v-177h134v-53
h-134z" />
    <glyph glyph-name="uni1E0A.smcp" horiz-adv-x="615" 
d="M75 0v550h199q68 0 122.5 -21t92.5 -58.5t58.5 -88t20.5 -108.5q0 -59 -20.5 -109t-58.5 -86.5t-92.5 -57.5t-121.5 -21h-200zM274 69q52 0 91.5 16t66.5 43.5t41 65t14 80.5t-13.5 80.5t-40.5 65.5t-66.5 44.5t-91.5 16.5h-122v-412h121zM305 605q-19 0 -33 13.5
t-14 33.5t14 33.5t33 13.5q20 0 33 -13.5t13 -33.5t-13 -33.5t-33 -13.5z" />
    <glyph glyph-name="Eacute.smcp" unicode="&#xf7e9;" horiz-adv-x="509" 
d="M266 606h-57l148 144h78zM75 0v550h382v-69h-304v-165h299v-69h-299v-178h304v-69h-382z" />
    <glyph glyph-name="Ebreve.smcp" unicode="&#xf677;" horiz-adv-x="509" 
d="M75 0v550h382v-69h-304v-165h299v-69h-299v-178h304v-69h-382zM441 676q-30 -41 -75.5 -64.5t-99.5 -23.5t-99.5 23.5t-76.5 64.5l37 32q24 -33 59 -52.5t80 -19.5q44 0 79.5 19t58.5 53l37 -32v0z" />
    <glyph glyph-name="Ecaron.smcp" unicode="&#xf678;" horiz-adv-x="509" 
d="M232 606l-98 144h51l83 -106l80 106h51l-95 -144h-72zM75 0v550h382v-69h-304v-165h299v-69h-299v-178h304v-69h-382z" />
    <glyph glyph-name="Ecircumflex.smcp" unicode="&#xf7ea;" horiz-adv-x="509" 
d="M350 606l-83 106l-80 -106h-51l95 144h72l98 -144h-51zM75 0v550h382v-69h-304v-165h299v-69h-299v-178h304v-69h-382z" />
    <glyph glyph-name="Edieresis.smcp" unicode="&#xf7eb;" horiz-adv-x="509" 
d="M416 654q0 -20 -14 -33.5t-33 -13.5t-33 13.5t-14 33.5q0 19 14 32.5t33 13.5t33 -13.5t14 -32.5zM209 654q0 -20 -13.5 -33.5t-32.5 -13.5q-20 0 -33.5 13.5t-13.5 33.5q0 19 13.5 32.5t33.5 13.5q19 0 32.5 -13.5t13.5 -32.5zM75 0v550h382v-69h-304v-165h299v-69h-299
v-178h304v-69h-382z" />
    <glyph glyph-name="Edotaccent.smcp" unicode="&#xf679;" horiz-adv-x="509" 
d="M75 0v550h382v-69h-304v-165h299v-69h-299v-178h304v-69h-382zM269 605q-19 0 -33 13.5t-14 33.5t14 33.5t33 13.5q20 0 33 -13.5t13 -33.5t-13 -33.5t-33 -13.5z" />
    <glyph glyph-name="Egrave.smcp" unicode="&#xf7e8;" horiz-adv-x="509" 
d="M75 0v550h382v-69h-304v-165h299v-69h-299v-178h304v-69h-382zM266 606l-169 144h78l148 -144h-57z" />
    <glyph glyph-name="Emacron.smcp" unicode="&#xf67a;" horiz-adv-x="509" 
d="M75 0v550h382v-69h-304v-165h299v-69h-299v-178h304v-69h-382zM83 622v48h363v-48h-363z" />
    <glyph glyph-name="Eogonek.smcp" unicode="&#xf67c;" horiz-adv-x="509" 
d="M514 -126q-11 -24 -32 -42t-57 -18q-35 0 -62 20.5t-27 66.5q0 29 14 54t39 45h-314v550h382v-69h-304v-165h299v-69h-299v-178h304v-69q-36 -18 -56 -41.5t-20 -55.5q0 -26 12 -38t32 -12q21 0 33 11t19 31z" />
    <glyph glyph-name="uni1EB8.smcp" horiz-adv-x="509" 
d="M75 0v550h382v-69h-304v-165h299v-69h-299v-178h304v-69h-382zM268 -183q-19 0 -33 13.5t-14 33.5t14 33.5t33 13.5q20 0 33 -13.5t13 -33.5t-13 -33.5t-33 -13.5z" />
    <glyph glyph-name="uni1EBA.smcp" horiz-adv-x="509" 
d="M75 0v550h382v-69h-304v-165h299v-69h-299v-178h304v-69h-382zM195 649q8 23 26 39t47 16t50.5 -16.5t21.5 -52.5q0 -17 -4.5 -28.5t-14.5 -25.5h-40q13 13 18 26t5 26q0 20 -9.5 29.5t-26.5 9.5q-29 0 -40 -32z" />
    <glyph glyph-name="uni1EBC.smcp" horiz-adv-x="509" 
d="M75 0v550h382v-69h-304v-165h299v-69h-299v-178h304v-69h-382zM328 604q-27 0 -43 14.5t-28 31.5t-23 31.5t-29 14.5q-20 0 -34 -20.5t-14 -65.5h-45q0 59 24.5 96.5t72.5 37.5q27 0 43 -14.5t27.5 -31.5t23 -31.5t29.5 -14.5q20 0 34 20.5t14 65.5h45q0 -59 -24.5 -96.5
t-72.5 -37.5z" />
    <glyph glyph-name="uni1EBE.smcp" horiz-adv-x="509" 
d="M348 606l-83 106l-80 -106h-51l95 144h72l98 -144h-51zM416 676h-57l148 144h78zM75 0v550h382v-69h-304v-165h299v-69h-299v-178h304v-69h-382z" />
    <glyph glyph-name="uni1EC0.smcp" horiz-adv-x="509" 
d="M348 606l-83 106l-80 -106h-51l95 144h72l98 -144h-51zM75 0v550h382v-69h-304v-165h299v-69h-299v-178h304v-69h-382zM114 676l-169 144h78l148 -144h-57z" />
    <glyph glyph-name="uni1EC2.smcp" horiz-adv-x="509" 
d="M348 606l-83 106l-80 -106h-51l95 144h72l98 -144h-51zM75 0v550h382v-69h-304v-165h299v-69h-299v-178h304v-69h-382zM285 785q8 23 26 39t47 16t50.5 -16.5t21.5 -52.5q0 -17 -4.5 -28.5t-14.5 -25.5h-40q13 13 18 26t5 26q0 20 -9.5 29.5t-26.5 9.5q-29 0 -40 -32z
" />
    <glyph glyph-name="uni1EC4.smcp" horiz-adv-x="509" 
d="M348 573l-83 106l-80 -106h-51l95 144h72l98 -144h-51zM75 0v550h382v-69h-304v-165h299v-69h-299v-178h304v-69h-382zM325 732q-27 0 -43 14.5t-28 31.5t-23 31.5t-29 14.5q-20 0 -34 -20.5t-14 -65.5h-45q0 59 24.5 96.5t72.5 37.5q27 0 43 -14.5t27.5 -31.5t23 -31.5
t29.5 -14.5q20 0 34 20.5t14 65.5h45q0 -59 -24.5 -96.5t-72.5 -37.5z" />
    <glyph glyph-name="uni1EC6.smcp" horiz-adv-x="509" 
d="M350 606l-83 106l-80 -106h-51l95 144h72l98 -144h-51zM75 0v550h382v-69h-304v-165h299v-69h-299v-178h304v-69h-382zM268 -183q-19 0 -33 13.5t-14 33.5t14 33.5t33 13.5q20 0 33 -13.5t13 -33.5t-13 -33.5t-33 -13.5z" />
    <glyph glyph-name="uni1E1E.smcp" horiz-adv-x="491" 
d="M270 605q-19 0 -33 13.5t-14 33.5t14 33.5t33 13.5q20 0 33 -13.5t13 -33.5t-13 -33.5t-33 -13.5zM75 0v550h382v-69h-304v-165h299v-69h-299v-247h-78z" />
    <glyph glyph-name="Gbreve.smcp" unicode="&#xf67d;" horiz-adv-x="626" 
d="M341 -12q-62 0 -115.5 21t-93.5 58.5t-62.5 90.5t-22.5 117t22.5 117t62.5 90.5t93.5 58.5t115.5 21q73 0 128 -28t93 -73l-61 -41q-27 32 -68.5 52t-91.5 20q-45 0 -84 -16t-67.5 -45t-45 -68.5t-16.5 -87.5q0 -47 16.5 -87.5t45 -69.5t67.5 -45.5t84 -16.5
q51 0 88.5 19t58.5 39v107h-170v66h248v-203q-41 -44 -98.5 -70t-126.5 -26zM517 676q-30 -41 -75.5 -64.5t-99.5 -23.5t-99.5 23.5t-76.5 64.5l37 32q24 -33 59 -52.5t80 -19.5q44 0 79.5 19t58.5 53l37 -32v0z" />
    <glyph glyph-name="Gcircumflex.smcp" unicode="&#xf67e;" horiz-adv-x="626" 
d="M341 -12q-62 0 -115.5 21t-93.5 58.5t-62.5 90.5t-22.5 117t22.5 117t62.5 90.5t93.5 58.5t115.5 21q73 0 128 -28t93 -73l-61 -41q-27 32 -68.5 52t-91.5 20q-45 0 -84 -16t-67.5 -45t-45 -68.5t-16.5 -87.5q0 -47 16.5 -87.5t45 -69.5t67.5 -45.5t84 -16.5
q51 0 88.5 19t58.5 39v107h-170v66h248v-203q-41 -44 -98.5 -70t-126.5 -26zM423 606l-83 106l-80 -106h-51l95 144h72l98 -144h-51z" />
    <glyph glyph-name="Gcommaaccent.smcp" unicode="&#xf67f;" horiz-adv-x="626" 
d="M341 -12q-62 0 -115.5 21t-93.5 58.5t-62.5 90.5t-22.5 117t22.5 117t62.5 90.5t93.5 58.5t115.5 21q73 0 128 -28t93 -73l-61 -41q-27 32 -68.5 52t-91.5 20q-45 0 -84 -16t-67.5 -45t-45 -68.5t-16.5 -87.5q0 -47 16.5 -87.5t45 -69.5t67.5 -45.5t84 -16.5
q51 0 88.5 19t58.5 39v107h-170v66h248v-203q-41 -44 -98.5 -70t-126.5 -26zM393 -138q0 -41 -21 -76.5t-50 -57.5l-33 26q23 15 39.5 39.5t18.5 46.5q-1 -1 -5 -1.5t-6 -0.5q-18 0 -30 12.5t-12 31.5q0 20 13 33.5t33 13.5q21 0 37 -17.5t16 -49.5z" />
    <glyph glyph-name="Gdotaccent.smcp" unicode="&#xf680;" horiz-adv-x="626" 
d="M341 -12q-62 0 -115.5 21t-93.5 58.5t-62.5 90.5t-22.5 117t22.5 117t62.5 90.5t93.5 58.5t115.5 21q73 0 128 -28t93 -73l-61 -41q-27 32 -68.5 52t-91.5 20q-45 0 -84 -16t-67.5 -45t-45 -68.5t-16.5 -87.5q0 -47 16.5 -87.5t45 -69.5t67.5 -45.5t84 -16.5
q51 0 88.5 19t58.5 39v107h-170v66h248v-203q-41 -44 -98.5 -70t-126.5 -26zM343 605q-19 0 -33 13.5t-14 33.5t14 33.5t33 13.5q20 0 33 -13.5t13 -33.5t-13 -33.5t-33 -13.5z" />
    <glyph glyph-name="Gbreve.smcp.alt1" horiz-adv-x="642" 
d="M338 -12q-61 0 -114 21t-92.5 58.5t-62 90.5t-22.5 117t22.5 117t62.5 90.5t93.5 58.5t115.5 21q73 0 128 -28t93 -73l-61 -41q-27 32 -68.5 52.5t-91.5 20.5q-45 0 -84 -16t-67.5 -45t-45 -69t-16.5 -88q0 -47 16.5 -87.5t45 -69.5t67.5 -45.5t84 -16.5q35 0 66 11
t55.5 32.5t41 52t21.5 69.5h-207v66h290q0 -68 -19.5 -123.5t-54.5 -94.5t-85 -60t-111 -21zM517 676q-30 -41 -75.5 -64.5t-99.5 -23.5t-99.5 23.5t-76.5 64.5l37 32q24 -33 59 -52.5t80 -19.5q44 0 79.5 19t58.5 53l37 -32v0z" />
    <glyph glyph-name="Gcommaaccent.smcp.alt1" horiz-adv-x="642" 
d="M393 -138q0 -41 -21 -76.5t-50 -57.5l-33 26q23 15 39.5 39.5t18.5 46.5q-1 -1 -5 -1.5t-6 -0.5q-18 0 -30 12.5t-12 31.5q0 20 13 33.5t33 13.5q21 0 37 -17.5t16 -49.5zM338 -12q-61 0 -114 21t-92.5 58.5t-62 90.5t-22.5 117t22.5 117t62.5 90.5t93.5 58.5t115.5 21
q73 0 128 -28t93 -73l-61 -41q-27 32 -68.5 52.5t-91.5 20.5q-45 0 -84 -16t-67.5 -45t-45 -69t-16.5 -88q0 -47 16.5 -87.5t45 -69.5t67.5 -45.5t84 -16.5q35 0 66 11t55.5 32.5t41 52t21.5 69.5h-207v66h290q0 -68 -19.5 -123.5t-54.5 -94.5t-85 -60t-111 -21z" />
    </font>
</defs>
</svg>
