<?xml version="1.0" encoding="utf-8"?>
<!-- Generator: Adobe Illustrator 16.0.4, SVG Export Plug-In . SVG Version: 6.00 Build 0)  -->
<!DOCTYPE svg PUBLIC "-//W3C//DTD SVG 1.1//EN" "http://www.w3.org/Graphics/SVG/1.1/DTD/svg11.dtd" [
	<!ENTITY ns_extend "http://ns.adobe.com/Extensibility/1.0/">
	<!ENTITY ns_ai "http://ns.adobe.com/AdobeIllustrator/10.0/">
	<!ENTITY ns_graphs "http://ns.adobe.com/Graphs/1.0/">
	<!ENTITY ns_vars "http://ns.adobe.com/Variables/1.0/">
	<!ENTITY ns_imrep "http://ns.adobe.com/ImageReplacement/1.0/">
	<!ENTITY ns_sfw "http://ns.adobe.com/SaveForWeb/1.0/">
	<!ENTITY ns_custom "http://ns.adobe.com/GenericCustomNamespace/1.0/">
	<!ENTITY ns_adobe_xpath "http://ns.adobe.com/XPath/1.0/">
]>
<svg version="1.1" id="Layer_1" xmlns:x="&ns_extend;" xmlns:i="&ns_ai;" xmlns:graph="&ns_graphs;"
	 xmlns="http://www.w3.org/2000/svg" xmlns:xlink="http://www.w3.org/1999/xlink" x="0px" y="0px" width="21.151px"
	 height="17.189px" viewBox="-0.576 0 21.151 17.189" enable-background="new -0.576 0 21.151 17.189" xml:space="preserve">
<metadata>
	<sfw  xmlns="&ns_sfw;">
		<slices></slices>
		<sliceSourceBounds  height="17.189" width="21.151" x="628.924" y="392.447" bottomLeftOrigin="true"></sliceSourceBounds>
	</sfw>
</metadata>
<g>
	<path fill="#BDCCD4" d="M20.575,2.035c-0.778,0.345-1.615,0.578-2.492,0.684c0.895-0.537,1.584-1.388,1.907-2.4
		c-0.839,0.496-1.767,0.857-2.755,1.053C16.444,0.527,15.315,0,14.067,0c-2.396,0-4.34,1.943-4.34,4.34
		c0,0.34,0.038,0.671,0.112,0.988C6.234,5.147,3.036,3.42,0.896,0.795C0.521,1.435,0.309,2.18,0.309,2.976
		c0,1.505,0.766,2.833,1.93,3.611C1.527,6.565,0.858,6.37,0.273,6.045c0,0.018,0,0.036,0,0.055c0,2.103,1.494,3.856,3.48,4.256
		c-0.365,0.099-0.747,0.151-1.144,0.151c-0.279,0-0.551-0.026-0.816-0.077c0.553,1.724,2.155,2.979,4.055,3.014
		c-1.486,1.163-3.357,1.857-5.39,1.857c-0.351,0-0.696-0.021-1.035-0.061c1.92,1.23,4.201,1.949,6.651,1.949
		c7.981,0,12.347-6.612,12.347-12.347c0-0.188-0.005-0.376-0.013-0.562C19.257,3.67,19.993,2.905,20.575,2.035L20.575,2.035z"/>
</g>
</svg>
