<?xml version="1.0" encoding="utf-8"?>
<!-- Generator: Adobe Illustrator 16.0.4, SVG Export Plug-In . SVG Version: 6.00 Build 0)  -->
<!DOCTYPE svg PUBLIC "-//W3C//DTD SVG 1.1//EN" "http://www.w3.org/Graphics/SVG/1.1/DTD/svg11.dtd" [
	<!ENTITY ns_extend "http://ns.adobe.com/Extensibility/1.0/">
	<!ENTITY ns_ai "http://ns.adobe.com/AdobeIllustrator/10.0/">
	<!ENTITY ns_graphs "http://ns.adobe.com/Graphs/1.0/">
	<!ENTITY ns_vars "http://ns.adobe.com/Variables/1.0/">
	<!ENTITY ns_imrep "http://ns.adobe.com/ImageReplacement/1.0/">
	<!ENTITY ns_sfw "http://ns.adobe.com/SaveForWeb/1.0/">
	<!ENTITY ns_custom "http://ns.adobe.com/GenericCustomNamespace/1.0/">
	<!ENTITY ns_adobe_xpath "http://ns.adobe.com/XPath/1.0/">
]>
<svg version="1.1" id="Layer_1" xmlns:x="&ns_extend;" xmlns:i="&ns_ai;" xmlns:graph="&ns_graphs;"
	 xmlns="http://www.w3.org/2000/svg" xmlns:xlink="http://www.w3.org/1999/xlink" x="0px" y="0px" width="25.853px"
	 height="17.714px" viewBox="1.94 -0.364 25.853 17.714" enable-background="new 1.94 -0.364 25.853 17.714" xml:space="preserve">
<metadata>
	<sfw  xmlns="&ns_sfw;">
		<slices></slices>
		<sliceSourceBounds  height="17.714" width="25.853" x="631.44" y="392.286" bottomLeftOrigin="true"></sliceSourceBounds>
	</sfw>
</metadata>
<path id="g" fill="#BDCCD4" d="M10.832,9.998c-0.486-0.343-1.414-1.179-1.414-1.669c0-0.576,0.164-0.858,1.03-1.535
	c0.887-0.693,1.516-1.796,1.516-2.93c0-1.35-0.602-3.227-1.731-3.227h1.704l1.199-1c0,0-4.025,0-5.366,0
	c-2.406,0-4.672,2.016-4.672,4.127c0,2.157,1.641,3.995,4.089,3.995c0.17,0,0.335,0.046,0.496,0.034
	C7.527,8.097,7.412,8.464,7.412,8.819c0,0.6,0.324,1.099,0.732,1.495c-0.31,0-0.607,0.015-0.932,0.015
	c-2.979,0-5.272,1.9-5.272,3.868c0,1.939,2.513,3.153,5.493,3.153c3.399,0,5.274-1.927,5.274-3.865
	C12.707,11.931,12.25,11.001,10.832,9.998z M7.964,7.309C6.582,7.268,5.268,5.762,5.029,3.947c-0.238-1.815,0.688-3.205,2.07-3.164
	c1.383,0.042,2.696,1.499,2.938,3.313C10.274,5.913,9.346,7.35,7.964,7.309z M7.423,16.495c-2.061,0-3.549-1.304-3.549-2.87
	c0-1.535,1.846-2.812,3.906-2.791c0.48,0.005,0.928,0.083,1.334,0.215c1.119,0.776,1.922,1.217,2.147,2.103
	c0.043,0.18,0.066,0.365,0.066,0.553C11.328,15.271,10.318,16.495,7.423,16.495z"/>
<g>
	<path fill="#BDCCD4" d="M17.301,11.675V8.411h-3.238V7.047h3.238V3.808h1.381v3.239h3.238v1.364h-3.238v3.263H17.301z"/>
	<path fill="#BDCCD4" d="M27.793,13.599h-1.461V4.287c-0.352,0.336-0.812,0.671-1.385,1.007c-0.57,0.335-1.084,0.587-1.537,0.755
		V4.636c0.816-0.384,1.531-0.85,2.143-1.396c0.611-0.546,1.045-1.077,1.299-1.591h0.941V13.599z"/>
</g>
</svg>
