<?xml version="1.0" encoding="utf-8"?>
<!-- Generator: Adobe Illustrator 16.0.4, SVG Export Plug-In . SVG Version: 6.00 Build 0)  -->
<!DOCTYPE svg PUBLIC "-//W3C//DTD SVG 1.1//EN" "http://www.w3.org/Graphics/SVG/1.1/DTD/svg11.dtd" [
	<!ENTITY ns_extend "http://ns.adobe.com/Extensibility/1.0/">
	<!ENTITY ns_ai "http://ns.adobe.com/AdobeIllustrator/10.0/">
	<!ENTITY ns_graphs "http://ns.adobe.com/Graphs/1.0/">
	<!ENTITY ns_vars "http://ns.adobe.com/Variables/1.0/">
	<!ENTITY ns_imrep "http://ns.adobe.com/ImageReplacement/1.0/">
	<!ENTITY ns_sfw "http://ns.adobe.com/SaveForWeb/1.0/">
	<!ENTITY ns_custom "http://ns.adobe.com/GenericCustomNamespace/1.0/">
	<!ENTITY ns_adobe_xpath "http://ns.adobe.com/XPath/1.0/">
]>
<svg version="1.1" id="Layer_1" xmlns:x="&ns_extend;" xmlns:i="&ns_ai;" xmlns:graph="&ns_graphs;"
	 xmlns="http://www.w3.org/2000/svg" xmlns:xlink="http://www.w3.org/1999/xlink" x="0px" y="0px" width="20px" height="18.273px"
	 viewBox="0 0 20 18.273" enable-background="new 0 0 20 18.273" xml:space="preserve">
<metadata>
	<sfw  xmlns="&ns_sfw;">
		<slices></slices>
		<sliceSourceBounds  height="18.273" width="20" x="629.5" y="391.363" bottomLeftOrigin="true"></sliceSourceBounds>
	</sfw>
</metadata>
<path fill="#BDCCD4" d="M7.871,16.456c0.307,0.196,0.473,0.817,0.99,0.817h7.043c1.412,0,2.359-1.44,2.359-2.459
	c0-0.233-0.047-0.629-0.138-0.825c0.454-0.408,0.715-1.053,0.715-1.586c0-0.231-0.046-0.494-0.135-0.691
	c0.452-0.408,0.714-0.986,0.714-1.523c0-0.229-0.047-0.461-0.137-0.656C19.736,9.124,20,8.558,20,8.02c0-0.449-0.18-0.938-0.5-1.227
	c-0.223-0.195-0.626-0.521-1.279-0.521h-4.744c0.193,0,0.398-2.383,0.409-2.463c0.007-0.055,0.011-0.063,0.007-0.119
	c-0.098-1.413-0.984-3.074-1.022-3.144c-0.083-0.156-0.216-0.27-0.38-0.339C12.15,0.071,11.818,0,11.501,0
	c-0.667,0-1.158,0.333-1.377,0.611c-0.108,0.144-0.165,0.316-0.162,0.495c0,0.021,0.047,1.82,0.052,2.384
	C9.781,4.162,7.86,7.249,7.419,7.645C7.348,7.706,7.256,8.052,7.151,8.128c-0.123-0.082-0.27,0.146-0.428,0.146H6.108H2.003H0.766
	c-0.212,0-0.419-0.186-0.562-0.024C0.056,8.406-0.015,8.478,0.002,8.691l0.617,8.377c0.031,0.396,0.363,1.206,0.767,1.206H2.62
	h3.488h0.615C7.148,18.274,8,16.795,8,16.37 M17.641,9.598c1.687,0,1.107,2.029-0.576,2.029c1.685,0,1.104,2.683-0.58,2.683
	c1.685,0,1.104,1.964-0.58,1.964c-0.883,0-4.52,0-7.043,0c-0.513,0-0.86-1.021-0.86-1.086V8.551c0-0.115,0.062-0.227,0.176-0.323
	c0.562-0.478,2.735-4.197,2.735-4.663c0-0.465-0.118-2.477-0.118-2.477s0.212-0.314,0.738-0.314c0.192,0,0.403,0.043,0.676,0.155
	c0,0,0.838,1.831,0.924,3.097c0,0-0.387,2.248-0.593,3.248c0,0,4.525,0,5.682,0C19.904,7.274,19.327,9.598,17.641,9.598z"/>
</svg>
