<?xml version="1.0" encoding="utf-8"?>
<!-- Generator: Adobe Illustrator 16.0.4, SVG Export Plug-In . SVG Version: 6.00 Build 0)  -->
<!DOCTYPE svg PUBLIC "-//W3C//DTD SVG 1.1//EN" "http://www.w3.org/Graphics/SVG/1.1/DTD/svg11.dtd" [
	<!ENTITY ns_extend "http://ns.adobe.com/Extensibility/1.0/">
	<!ENTITY ns_ai "http://ns.adobe.com/AdobeIllustrator/10.0/">
	<!ENTITY ns_graphs "http://ns.adobe.com/Graphs/1.0/">
	<!ENTITY ns_vars "http://ns.adobe.com/Variables/1.0/">
	<!ENTITY ns_imrep "http://ns.adobe.com/ImageReplacement/1.0/">
	<!ENTITY ns_sfw "http://ns.adobe.com/SaveForWeb/1.0/">
	<!ENTITY ns_custom "http://ns.adobe.com/GenericCustomNamespace/1.0/">
	<!ENTITY ns_adobe_xpath "http://ns.adobe.com/XPath/1.0/">
]>
<svg version="1.1" id="Layer_1" xmlns:x="&ns_extend;" xmlns:i="&ns_ai;" xmlns:graph="&ns_graphs;"
	 xmlns="http://www.w3.org/2000/svg" xmlns:xlink="http://www.w3.org/1999/xlink" x="0px" y="0px" width="64px" height="64px"
	 viewBox="0 0 64 64" enable-background="new 0 0 64 64" xml:space="preserve">
<metadata>
	<sfw  xmlns="&ns_sfw;">
		<slices></slices>
		<sliceSourceBounds  height="64" width="64" bottomLeftOrigin="true" y="-600.5" x="288"></sliceSourceBounds>
	</sfw>
</metadata>
<g>
	<rect x="16.074" y="20.274" fill="#333333" width="10.683" height="8.009"/>
	<rect x="37.242" y="35.719" fill="#333333" width="10.681" height="8.008"/>
	<path fill="#333333" d="M0,0v64h64V0H0z M36.538,21.095c0,0.058,0.003,0.109,0.004,0.166c0.022-2.024,0.425-3.384,1.216-4.071
		c0.812-0.709,2.357-1.063,4.621-1.063h0.408c2.266,0,3.805,0.354,4.62,1.063c0.792,0.687,1.194,2.047,1.217,4.069
		c0.001-0.056,0.004-0.106,0.004-0.164v0.334c0-0.06-0.003-0.112-0.004-0.17c-0.022,1.991-0.434,3.346-1.244,4.05
		c-0.83,0.725-2.363,1.088-4.593,1.088h-0.408c-2.264,0-3.809-0.363-4.621-1.088c-0.791-0.704-1.193-2.058-1.216-4.048
		c-0.001,0.058-0.004,0.11-0.004,0.168V21.095z M9.51,24.521c0,0.03,0,0.058,0,0.088v-0.173C9.51,24.465,9.51,24.491,9.51,24.521
		c0.012-4.121,0.811-6.397,2.403-7.779c1.603-1.394,4.642-2.092,9.104-2.092h0.801c4.466,0,7.497,0.698,9.103,2.092
		c1.592,1.381,2.391,3.658,2.402,7.778c0-0.029,0.002-0.055,0.002-0.084v0.173c0-0.031-0.002-0.058-0.002-0.089
		c-0.012,4.044-0.83,5.829-2.457,7.245c-1.64,1.426-4.653,2.139-9.048,2.139h-0.801c-4.462,0-7.501-0.713-9.104-2.139
		C10.32,30.35,9.521,28.564,9.51,24.521z M27.461,42.908c0-0.061-0.003-0.112-0.004-0.171c-0.021,1.991-0.432,3.346-1.244,4.052
		c-0.829,0.723-2.363,1.086-4.593,1.086h-0.407c-2.267,0-3.807-0.363-4.621-1.086c-0.791-0.706-1.193-2.059-1.217-4.05
		c0,0.058-0.004,0.109-0.004,0.169v-0.335c0,0.058,0.004,0.11,0.004,0.166c0.023-2.024,0.426-3.385,1.217-4.071
		c0.814-0.708,2.354-1.063,4.621-1.063h0.407c2.267,0,3.808,0.355,4.621,1.063c0.791,0.686,1.194,2.047,1.216,4.069
		c0.001-0.056,0.004-0.106,0.004-0.164V42.908z M54.49,40.053c0-0.03-0.001-0.059-0.001-0.088c-0.011,4.043-0.831,5.828-2.458,7.246
		c-1.639,1.425-4.653,2.139-9.047,2.139h-0.802c-4.461,0-7.501-0.714-9.103-2.139c-1.594-1.418-2.393-3.203-2.404-7.246
		c0,0.03,0,0.059,0,0.088V39.88c0,0.03,0,0.056,0,0.085c0.012-4.121,0.811-6.396,2.404-7.779c1.602-1.393,4.642-2.091,9.103-2.091
		h0.802c4.465,0,7.496,0.698,9.102,2.091c1.592,1.382,2.393,3.658,2.403,7.779c0-0.029,0.001-0.056,0.001-0.085V40.053z"/>
</g>
</svg>
